<svg t="1715252166444" class="icon" viewBox="0 0 1024 1024" version="1.1" xmlns="http://www.w3.org/2000/svg" p-id="37011" width="32" height="32"><path d="M0 93.09056C0 41.6768 41.6896 0 93.09056 0h837.81888C982.3232 0 1024 41.6896 1024 93.09056v837.81888C1024 982.3232 982.3104 1024 930.90944 1024H93.09056C41.6768 1024 0 982.3104 0 930.90944V93.09056z m671.872 620.2624H651.5456c-19.32416 0-34.99008 15.94624-34.99008 35.61856 0 19.67232 15.66592 35.61984 34.99008 35.61984h139.96032c19.32416 0 34.99008-15.9488 34.99008-35.61984 0-19.67232-15.6672-35.61984-34.99008-35.61984h-45.32224l-166.656-466.63808a34.99008 34.99008 0 0 0-32.95232-23.22176h-69.98016a34.99008 34.99008 0 0 0-32.95232 23.22176l-166.656 466.63808h-45.32224c-19.32416 0-34.99008 15.9488-34.99008 35.61984 0 19.67232 15.66592 35.61984 34.99008 35.61984h139.96032c19.32416 0 34.99008-15.9488 34.99008-35.61984 0-19.67232-15.66592-35.61984-34.99008-35.61984h-20.32896l49.536-138.7008h221.50656l49.536 138.7008zM426.27456 503.4112l74.97856-209.94048h20.66432l74.97856 209.94048H426.27328z" fill="#358DE5" p-id="37012"></path></svg>