<svg t="1715304335359" class="icon" viewBox="0 0 1024 1024" version="1.1" xmlns="http://www.w3.org/2000/svg" p-id="61725" width="32" height="32"><path d="M928 0H96C41.6 0 0 41.6 0 96v832c0 54.4 41.6 96 96 96h832c51.2 0 96-41.6 96-96V96c0-54.4-44.8-96-96-96zM489.6 816c0 9.6-9.6 16-19.2 16-3.2 0-6.4 0-9.6-3.2l-249.6-131.2c-12.8-6.4-19.2-19.2-19.2-32v-262.4c0-9.6 9.6-16 19.2-16h6.4l3.2 3.2 246.4 128 6.4 3.2c9.6 6.4 19.2 19.2 19.2 32v262.4z m41.6-329.6c-6.4 3.2-12.8 3.2-19.2 3.2-6.4 0-12.8 0-19.2-3.2l-3.2-3.2-262.4-137.6s-12.8-6.4-12.8-16 12.8-12.8 12.8-12.8l259.2-115.2s16-6.4 22.4-6.4c9.6 0 22.4 6.4 22.4 6.4l259.2 115.2s9.6 3.2 9.6 12.8c0 9.6-9.6 16-9.6 16l-262.4 137.6 3.2 3.2z m300.8 179.2c0 12.8-6.4 25.6-19.2 32l-249.6 131.2c-3.2 0-6.4 3.2-9.6 3.2-9.6 0-19.2-6.4-19.2-16v-265.6c0-12.8 6.4-22.4 19.2-32l6.4-3.2 246.4-128 3.2-3.2h6.4c9.6 0 19.2 6.4 19.2 16v265.6z" fill="#4D96F5" p-id="61726"></path></svg>