<svg t="1715252287968" class="icon" viewBox="0 0 1078 1024" version="1.1" xmlns="http://www.w3.org/2000/svg" p-id="40020" width="32" height="32"><path d="M0 0m195.046319 0l688.025889 0q195.046319 0 195.046319 195.046319l0 633.900536q0 195.046319-195.046319 195.046318l-688.025889 0q-195.046319 0-195.046319-195.046318l0-633.900536q0-195.046319 195.046319-195.046319Z" fill="#A9EFFF" p-id="40021"></path><path d="M296.470404 269.651536m-80.944222 0a80.944222 80.944222 0 1 0 161.888445 0 80.944222 80.944222 0 1 0-161.888445 0Z" fill="#22C6FF" p-id="40022"></path><path d="M1078.118527 828.946855v-222.352804a74.117601 74.117601 0 0 0-10.727548-10.727547l-146.284739-117.515407a89.721307 89.721307 0 0 0-119.953486 5.363773l-281.84193 263.800147a89.233691 89.233691 0 0 1-124.829644 0L316.950268 677.298342a89.721307 89.721307 0 0 0-124.829644 0L0.975232 853.81526a195.046319 195.046319 0 0 0 195.046318 170.177913h688.02589a195.046319 195.046319 0 0 0 194.071087-195.046318z" fill="#22C6FF" p-id="40023"></path></svg>