<svg t="1704089931056" class="icon" viewBox="0 0 1024 1024" version="1.1" xmlns="http://www.w3.org/2000/svg" p-id="25641" width="200" height="200"><path d="M789.93 865.904c-31.278 0-56.722 25.388-56.722 56.71s25.442 56.735 56.721 56.735c31.293 0 56.709-25.414 56.709-56.735s-25.416-56.71-56.709-56.71m-362.94 0c-31.253 0-56.738 25.388-56.738 56.71s25.486 56.735 56.737 56.735c31.279 0 56.666-25.414 56.666-56.735s-25.386-56.71-56.666-56.71M294.63 677.84l-55.887-347.462C203.045 125.82 29.349 123.568 27.639 123.568l-0.166 54.083c5.294 0.069 130.23 3.376 157.8 161.704l55.61 344.392c2.849 46.216 34.74 133.69 135.276 133.69h531.385v-54.192H376.158c-73.203 0-80.623-74.482-81.528-85.406m625.989-371.334c-101.509 0-539.82-54.082-539.82-54.082s-108.33-22.039-89.976 94.797c18.232 116.822 45.787 281.986 45.787 281.986s22.15 89.014 115.25 89.014h379.062c84.654 0 114.166-102.187 114.166-102.187l47.398-222.748s29.684-86.78-71.867-86.78" p-id="25642" fill="currentColor"></path></svg>