<svg t="1704090221578" class="icon" viewBox="0 0 1024 1024" version="1.1" xmlns="http://www.w3.org/2000/svg" p-id="35890" width="200" height="200"><path d="M298.666667 138.666667h10.666666A160 160 0 0 1 469.333333 298.666667v170.666666h-170.666666a160 160 0 0 1-160-160V298.666667A160 160 0 0 1 298.666667 138.666667zM725.333333 469.333333h-170.666666v-170.666666a160 160 0 0 1 160-160h10.666666a160 160 0 0 1 160 160v10.666666A160 160 0 0 1 725.333333 469.333333zM298.666667 554.666667h170.666666v170.666666a160 160 0 0 1-160 160H298.666667A160 160 0 0 1 138.666667 725.333333v-10.666666A160 160 0 0 1 298.666667 554.666667zM725.333333 885.333333h-10.666666A160 160 0 0 1 554.666667 725.333333v-170.666666h170.666666a160 160 0 0 1 160 160v10.666666a160 160 0 0 1-160 160z" p-id="35891" fill="currentColor"></path></svg>