<svg t="1725154700562" class="icon" viewBox="0 0 1535 1024" version="1.1" xmlns="http://www.w3.org/2000/svg"
    p-id="41604" width="32" height="32">
    <path
        d="M0 882.687226c0 78.038866 343.734905 141.302317 767.767337 141.302317s767.767337-63.263451 767.767337-141.302317S1191.799769 741.384909 767.767337 741.384909 0 804.648361 0 882.687226z"
        fill="#F1F5F9" p-id="41605"></path>
    <path d="M1267.998244 702.757605L885.521011 1012.685776l-13.185986-627.406129 405.074311-214.782031z" fill="#F0F2F5"
        p-id="41606"></path>
    <path
        d="M197.831609 813.923514V580.298386L760.228007 741.384909c37.644368-267.53643 113.048128-399.448569 113.048127-339.133926 0 32.029083 8.48044 455.005382 13.185986 613.268577z"
        fill="#E6E9F0" p-id="41607"></path>
    <path
        d="M874.206787 403.192092l-184.635167-39.568413-11.303767-131.880768 9.411092-230.801802 589.761761 169.566963z"
        fill="#CDD2D9" p-id="41608"></path>
    <path d="M687.678945 365.516354l-480.436244-132.800964L687.678945 0.03137z" fill="#E6E9F0" p-id="41609"></path>
    <path d="M1416.829434 459.710928l-139.420098-289.202856-3.764437 249.644899z" fill="#E1E5EC" p-id="41610"></path>
    <path d="M763.992443 756.46357l-688.63051-209.135377 129.99855-314.644173 667.905194 169.566963z" fill="#F1F5F9"
        p-id="41611"></path>
</svg>