<svg t="1728893409542" class="icon" viewBox="0 0 1024 1024" version="1.1" xmlns="http://www.w3.org/2000/svg" p-id="10179" width="32" height="32"><path d="M879.48705185 8.3437037H144.51294815C69.26791111 8.3437037 8.3437037 69.02518518 8.3437037 143.90613333v731.45457778C8.3437037 950.1202963 69.26791111 1010.80177778 144.51294815 1010.80177778h64.44373333c15.89854815 1.94180741 31.91845925 3.88361482 48.54518519 4.2477037 7.5245037 0.24272592 14.0781037 0.24272592 30.21937778 0.36408889 15.29173333 0.24272592 27.91348148 0.24272592 36.89434073 0.24272593h374.16201482c9.22358518 0 21.72397037 0 36.89434075-0.24272593 16.01991111-0.24272592 22.69487408-0.24272592 30.21937777-0.36408889 16.62672592-0.24272592 32.64663703-2.3058963 48.54518518-4.2477037h64.92918519c75.24503703 0 136.16924445-60.68148148 136.16924444-135.56242963V143.90613333C1015.6562963 69.02518518 954.73208889 8.3437037 879.48705185 8.3437037z" fill="#FF4401" p-id="10180"></path><path d="M352.77179259 438.21131852c20.14625185-20.38897778 38.10797037-40.77795555 53.64242963-61.04557037 16.01991111-6.91768889 31.55437037-13.71401482 46.60337778-19.78216297-18.56853333 33.61754075-48.54518518 84.46862222-78.76456297 116.62980741l42.35567408 37.37979259s28.88438518-28.03484445 60.31739259-61.77374815h36.40888889V512H373.28213333v50.00154075h140.05285926v119.66388147c-1.57771852 0-3.51952592 0-5.21860741-0.24272592-15.29173333-0.9709037-39.44296297-3.51952592-48.90927407-18.44717038-11.40811852-18.32580741-3.15543703-51.94334815-2.30589629-72.57505184h-96.96900741l-3.51952593 1.69908147S320.9746963 752.54139259 458.6002963 748.9005037c129.00882963 3.64088889 202.79751111-36.16616297 238.35685925-63.71555555l14.0781037 53.15697777 79.49274075-33.49617777L736.52148148 571.71057778 672.07774815 592.09955555l12.01493333 45.38974815c-16.50536297 12.50038518-35.43798518 21.9666963-56.06968889 28.64165927v-104.37214815h137.01878519v-50.00154074h-137.14014815v-62.38056297h137.38287407v-50.00154074H520.98085925c17.84035555-21.60260741 31.55437037-41.38477037 35.0738963-53.88515555l-42.35567407-11.77220741c182.65125925-66.02145185 284.23205925-54.61333333 283.38251852 53.64242962v284.96023705s10.8013037 97.93991111-100.24580741 90.77949629l-60.19602962-12.86447407-14.07810372 57.76877037s259.47401482 75.00231111 280.71253334-126.46020742c21.11715555-201.70524445-4.97588148-330.22862222-4.97588148-330.22862222s-23.78714075-185.92805925-426.59081481-70.63324444c17.3549037-30.21937778 25.48622222-50.00154075 25.48622222-50.00154074l-100.85262222-28.5202963s-40.65659259 133.74198518-112.98891852 196.12254815c0 0.12136297 70.26915555 40.89931852 69.41961481 39.92841482z" fill="#FFFFFF" p-id="10181"></path><path d="M310.65884445 604.47857778c19.29671111-60.43875555 23.54441482-106.55668148-9.34494815-140.29558519-42.35567408-43.08385185-46.96746667-46.96746667-109.83348148-94.29902222l-45.51111112 70.39051852 83.61908148 52.55016296s55.94832592 28.64165925 29.36983704 82.52681482c-24.75804445 51.21517037-146.4850963 162.99045925-146.4850963 162.99045925l108.74121483 68.69143705c75.3664-165.29635555 70.51188148-143.32965925 89.4445037-202.55478519zM250.8269037 343.66957037c39.44296297 0 71.60414815-29.00574815 71.60414815-65.05054815 0-36.0448-32.16118518-65.05054815-71.60414815-65.05054814-39.80705185 0-71.72551111 28.88438518-71.96823703 65.05054814 0 35.80207408 32.16118518 65.05054815 71.96823703 65.05054815z" fill="#FFFFFF" p-id="10182"></path></svg>