<svg t="1728887269868" class="icon" viewBox="0 0 1024 1024" version="1.1" xmlns="http://www.w3.org/2000/svg" p-id="36305" width="32" height="32"><path d="M512 512m-662.80359506 0a662.80359506 662.80359506 0 1 0 1325.60719012 0 662.80359506 662.80359506 0 1 0-1325.60719012 0Z" fill="#FFDD62" p-id="36306"></path><path d="M643.89791541 533.20971504c-25.84934021-23.86092942-59.65232355-41.75662649-102.07175363-53.6870912-41.75662649-11.26766112-86.16446736-14.58167909-133.88632621-9.94205392-72.24559186 7.95364315-132.56071902 30.48896537-180.28257785 69.59437747-47.72185885 38.44260851-69.59437748 82.18764578-64.95475231 129.90950464 2.65121438 31.15176897 17.23289347 59.65232355 43.08223367 83.51325298 25.84934021 23.86092942 59.65232355 41.75662649 102.07175363 53.6870912s86.16446736 15.24448269 133.88632622 9.94205392c72.24559186-7.95364315 132.56071902-30.48896537 180.28257785-69.59437748 47.72185885-39.10541211 69.59437748-82.85044939 64.29194872-130.57230822-1.98841078-30.48896537-16.57008987-58.32671636-42.41943009-82.85044939z" fill="#FFFFFF" p-id="36307"></path><path d="M533.20971504 602.80409253c-15.24448269-29.16335819-41.0938229-49.04746604-76.88521702-58.32671637-34.46578693-9.27925033-68.26877029-5.96523235-102.73455724 9.27925033-33.80298335 15.24448269-58.32671636 37.77980492-73.57119905 68.26877029-15.24448269 31.15176897-16.57008987 61.64073435-3.31401798 91.46689612s37.11700133 51.03587682 71.58278827 61.64073433c36.45419773 11.93046471 72.90839547 9.94205392 109.36259319-5.96523235 36.45419773-15.24448269 62.96634153-40.4310193 76.88521702-73.57119905 15.24448269-32.47737616 14.58167909-63.62914512-1.32560719-92.7925033z m-129.24670103 100.08334285c-7.29083955 11.26766112-17.23289347 18.55850066-31.15176898 23.86092942-13.2560719 4.63962516-25.18653662 3.97682157-36.45419772-1.3256072-11.26766112-5.30242877-18.55850066-13.2560719-21.20971504-24.52373301-2.65121438-11.26766112-0.66280359-22.53532223 5.96523235-33.80298334 6.62803595-11.26766112 16.57008987-18.55850066 29.16335819-22.53532223 11.26766112-3.97682157 24.52373301-3.97682157 35.79139413 0.66280359 11.26766112 4.63962516 18.55850066 13.2560719 21.87251863 24.52373302s2.65121438 21.87251863-3.97682156 33.14017975z m45.73344805-59.65232356c-1.98841078 4.63962516-5.96523235 7.95364315-11.26766111 9.94205393-4.63962516 1.3256072-9.27925033 1.3256072-13.9188755 0-9.27925033-4.63962516-11.26766112-11.93046471-5.96523235-22.53532223 4.63962516-8.61644674 15.24448269-12.5932683 24.52373301-9.94205392 3.97682157 1.3256072 7.29083955 5.30242877 8.61644674 9.27925031 1.3256072 4.63962516 0.66280359 8.61644674-1.98841079 13.25607191z" fill="#040000" p-id="36308"></path><path d="M820.8664753 561.71026963c-11.26766112-17.23289347-23.86092942-30.48896537-39.1054121-40.4310193-15.90728628-9.94205392-32.47737616-17.89569707-50.37307324-23.19812583-3.97682157-1.3256072-6.62803595-2.65121438-7.95364313-2.65121437l-5.96523236-3.97682158c-2.65121438-1.98841078-3.31401797-3.97682157-2.65121438-5.96523236 1.3256072-3.31401797 1.98841078-6.62803595 2.65121438-9.94205392 14.58167909-37.77980492 14.58167909-66.9431631 0-87.49007454-15.24448269-19.88410785-39.7682157-29.82616178-74.89680624-29.82616178s-74.89680624 9.94205392-119.96745072 29.16335818l-2.65121436 0.6628036c-1.98841078 0.66280359-4.63962516 1.3256072-6.62803595 1.98841078-1.98841078 0.66280359-4.63962516 1.3256072-7.29083955 0.66280359-1.98841078 0-3.97682157-1.3256072-4.63962516-3.31401797-0.66280359-1.98841078-0.66280359-5.30242877 0.66280359-9.94205392 15.24448269-47.05905525 11.26766112-81.52484219-9.27925035-102.73455724-23.86092942-23.86092942-64.29194871-25.18653662-119.9674507-3.31401798-56.33830558 22.53532223-112.01380756 60.97793075-167.02650595 115.99062914-41.75662649 41.75662649-73.57119905 84.17605657-96.76932487 126.59548665-22.53532223 42.41943008-33.80298335 82.85044939-33.80298336 120.63025431 0 35.12859054 10.60485751 67.6059667 31.81457256 98.09493206 21.20971504 29.82616178 49.04746604 54.34989479 84.17605659 74.23400266 34.46578693 19.22130427 73.57119905 34.46578693 117.31623632 45.73344805 43.74503728 11.26766112 88.81568174 16.57008987 133.8863262 16.57008988 45.73344805-0.66280359 90.14128893-5.30242877 131.89791542-15.24448269 42.41943008-9.94205392 78.87362782-23.86092942 110.68820037-40.4310193 29.82616178-15.90728628 57.66391277-35.12859054 82.18764579-57.66391276 23.19812583-21.20971504 41.0938229-43.74503728 53.0242876-66.94316311 11.93046471-23.86092942 17.89569707-46.39625165 17.89569707-68.93157389-0.66280359-21.20971504-6.62803595-41.0938229-17.23289347-58.32671636z m-198.17827493 185.58500662c-47.72185885 39.10541211-108.03698599 61.64073435-180.28257785 69.59437748-47.72185885 4.63962516-92.12969971 1.3256072-133.8863262-9.94205392-41.75662649-11.26766112-75.55960983-29.16335819-102.07175365-53.6870912s-40.4310193-52.361484-43.08223368-83.51325298c-4.63962516-47.72185885 16.57008987-91.46689612 64.95475232-129.90950464 47.72185885-39.10541211 108.03698599-61.64073435 180.28257786-69.59437748 47.72185885-4.63962516 92.12969971-1.3256072 133.8863262 9.94205392 41.75662649 11.26766112 75.55960983 29.16335819 102.07175365 53.6870912 25.84934021 23.86092942 40.4310193 52.361484 43.08223367 83.51325299 3.97682157 47.72185885-17.23289347 90.80409253-64.95475232 129.90950463z" fill="#E6162D" p-id="36309"></path><path d="M800.98236745 313.15892148c13.2560719 15.24448269 22.53532223 33.14017975 26.5121438 53.02428761 3.97682157 19.88410785 2.65121438 39.10541211-3.31401797 57.66391278-2.65121438 7.95364315-7.29083955 13.2560719-14.58167909 17.23289346-7.29083955 3.31401797-14.58167909 4.63962516-21.87251864 1.98841078-7.29083955-1.98841078-13.2560719-7.29083955-16.57008988-14.58167909s-4.63962516-14.58167909-1.98841079-21.87251864c5.96523235-20.54691145 2.65121438-38.44260851-11.26766111-54.34989478-14.58167909-15.24448269-31.81457257-21.20971504-52.36148401-17.23289348-7.29083955 1.3256072-15.24448269 0-21.87251865-3.97682157-6.62803595-4.63962516-11.26766112-9.94205392-11.93046471-18.55850066-1.3256072-7.95364315-0.66280359-15.24448269 3.97682158-21.87251864s9.94205392-11.26766112 17.89569707-12.59326832c39.7682157-8.61644674 80.86203859 4.63962516 107.3741824 35.12859055zM889.79804918 232.95968649c27.83775099 30.48896537 47.05905525 68.26877029 55.01269839 109.36259317 7.95364315 41.75662649 5.96523235 80.86203859-6.62803594 118.64184352-2.65121438 8.61644674-8.61644674 15.24448269-16.57008988 19.88410785-7.95364315 4.63962516-16.57008987 4.63962516-25.8493402 1.98841078-8.61644674-2.65121438-15.24448269-8.61644674-19.22130427-17.23289346-4.63962516-7.95364315-4.63962516-16.57008987-2.65121438-25.84934021 9.27925033-26.51214381 10.60485751-55.0126984 4.63962517-84.83886017-5.30242877-29.16335819-19.22130427-55.67550198-39.1054121-77.54802062-20.54691145-22.53532223-44.40784087-38.44260851-72.24559187-47.05905525-27.17494739-8.61644674-56.33830558-9.94205392-84.17605658-4.63962517-8.61644674 1.98841078-17.89569707 0-25.8493402-4.63962516-7.95364315-4.63962516-12.5932683-11.93046471-14.58167909-21.20971505-1.98841078-9.27925033-0.66280359-17.23289347 4.63962516-25.18653661 4.63962516-7.95364315 12.5932683-12.5932683 21.20971505-14.58167909 39.7682157-8.61644674 79.53643141-6.62803595 119.30464711 5.96523236 39.7682157 13.2560719 73.57119905 35.12859054 102.07175363 66.94316311z" fill="#FF9933" p-id="36310"></path></svg>