<svg t="1728882702323" class="icon" viewBox="0 0 1024 1024" version="1.1" xmlns="http://www.w3.org/2000/svg" p-id="26286" width="32" height="32"><path d="M874 1024H150C67.2 1024 0 956.8 0 874V150C0 67.2 67.2 0 150 0h724c82.8 0 150 67.2 150 150v724c0 82.8-67.2 150-150 150z" fill="#FBE74F" p-id="26287"></path><path d="M920 682.5c-2.4 5.6-7.4 9.3-12.5 12.2-5.5 3.3-11.2 6.1-17.2 8.4-12.8 5.7-26.3 9.6-40.1 11.7-44.9 6.7-90.5-0.3-134.3-10.8h-0.2c-37.7-6.7-77.3-12.5-114.7-0.8-8.1 3.3-16 7.2-23.7 11.4-8.7 4.8-19.7 3-27.7-2.5-2.7-2.8-5-6.1-7.4-9.3l0.1-0.7c-1.7-4.6-2.6-9.4-2.2-14.3 2.7-15.9 18.8-22.1 31.6-28.1 43.1-18.7 91.8-16.6 137.2-8.9 29.6 4.9 58.8 13.3 88.9 14.7 11.1 0.9 22.2 1 33.2-0.1 8.5-0.7 17-2.2 25.3-4.6 1.4-0.4 2.8-0.9 4.2-1.3 10-3.1 28.3-13.4 28.4-13.4 6.4-1.8 13.3-0.8 19.6 1.6 0.9 0.3 1.8 0.8 2.6 1.3 0.2 0.1 0.3 0.2 0.4 0.3 9.7 7.7 14.3 21.9 8.5 33.2zM130.5 716.5c-14.7 0-26.6-11.9-26.6-26.6V337.7c0-14.7 11.9-26.6 26.6-26.6 14.7 0 26.6 11.9 26.6 26.6V690c0 14.6-11.9 26.5-26.6 26.5zM210.5 715.8c-14.7 0-26.6-11.9-26.6-26.6V545.9c0-14.7 11.9-26.6 26.6-26.6 14.7 0 26.6 11.9 26.6 26.6v143.4c0.1 14.6-11.8 26.5-26.6 26.5zM370.3 715.8c-14.7 0-26.6-11.9-26.6-26.6V545.9c0-14.7 11.9-26.6 26.6-26.6 14.7 0 26.6 11.9 26.6 26.6v143.4c0 14.6-11.9 26.5-26.6 26.5zM176 458.5c0-14.7 11.9-26.6 26.6-26.6h175.3c14.7 0 26.6 11.9 26.6 26.6 0 14.7-11.9 26.6-26.6 26.6H202.6c-14.7 0-26.6-11.9-26.6-26.6zM545 337.6c0-14.7 11.9-26.6 26.6-26.6h319.1c14.7 0 26.6 11.9 26.6 26.6 0 14.7-11.9 26.6-26.6 26.6h-319c-14.7 0-26.7-11.9-26.7-26.6z" fill="#262626" p-id="26288"></path><path d="M890.7 311c14.7 0 26.6 11.9 26.6 26.6v28.8c0 14.7-11.9 26.6-26.6 26.6-14.7 0-26.6-11.9-26.6-26.6v-28.8c0-14.7 11.9-26.6 26.6-26.6zM571.7 311c14.7 0 26.6 11.9 26.6 26.6v28.8c0 14.7-11.9 26.6-26.6 26.6-14.7 0-26.6-11.9-26.6-26.6v-28.8C545 322.9 557 311 571.7 311zM890.7 409.3c14.7 0 26.6 11.9 26.6 26.6V596c0 14.7-11.9 26.6-26.6 26.6-14.7 0-26.6-11.9-26.6-26.6V435.9c0-14.7 11.9-26.6 26.6-26.6zM571.7 409.3c14.7 0 26.6 11.9 26.6 26.6V596c0 14.7-11.9 26.6-26.6 26.6-14.7 0-26.6-11.9-26.6-26.6V435.9c-0.1-14.7 11.9-26.6 26.6-26.6zM731.2 409.3c14.7 0 26.6 11.9 26.6 26.6V596c0 14.7-11.9 26.6-26.6 26.6-14.7 0-26.6-11.9-26.6-26.6V435.9c0-14.7 11.9-26.6 26.6-26.6z" fill="#262626" p-id="26289"></path><path d="M917.4 435.9c0 14.7-11.9 26.6-26.6 26.6H571.7c-14.7 0-26.6-11.9-26.6-26.6 0-14.7 11.9-26.6 26.6-26.6h319.1c14.7 0 26.6 11.9 26.6 26.6zM917.4 596c0 14.7-11.9 26.6-26.6 26.6H571.7c-14.7 0-26.6-11.9-26.6-26.6 0-14.7 11.9-26.6 26.6-26.6h319.1c14.7-0.1 26.6 11.9 26.6 26.6zM917.4 515.9c0 14.7-11.9 26.6-26.6 26.6H571.7c-14.7 0-26.6-11.9-26.6-26.6 0-14.7 11.9-26.6 26.6-26.6h319.1c14.7 0 26.6 11.9 26.6 26.6zM288.6 715.8c-14.7 0-26.6-11.9-26.6-26.6V407.6c0-14.7 11.9-26.6 26.6-26.6 14.7 0 26.6 11.9 26.6 26.6v281.6c0.1 14.7-11.9 26.6-26.6 26.6zM475.4 350v339.3c0 14.7-11.9 26.6-26.6 26.6-14.7 0-26.6-11.9-26.6-26.6V337.7c0-12.8 9-23.5 21-26 16.1 2.8 28.8 15.5 31.6 31.6 0.4 2.1 0.6 4.4 0.6 6.7z" fill="#262626" p-id="26290"></path><path d="M474.8 343.3c-1.1 5.1-3.6 9.7-7.2 13.2-4.8 4.8-11.5 7.8-18.8 7.8H277.3c-14.7 0-26.6-11.9-26.6-26.6s11.9-26.6 26.6-26.6h171.5c-1.9 0-3.8 0.2-5.6 0.6 16.1 2.7 28.8 15.4 31.6 31.6z" fill="#262626" p-id="26291"></path><path d="M203.9 335.7m-28.7 0a28.7 28.7 0 1 0 57.4 0 28.7 28.7 0 1 0-57.4 0Z" fill="#262626" p-id="26292"></path><path d="M475.4 350c0 21.5-17.4 38.9-38.9 38.9-5.1 0-9.9-1-14.3-2.7V382c0-9.7-7.9-17.6-17.6-17.6h-4.2c-1.8-4.4-2.7-9.3-2.7-14.3 0-21.5 17.4-38.9 38.9-38.9 2.3 0 4.5 0.2 6.7 0.6 16.1 2.8 28.8 15.5 31.6 31.6 0.3 2 0.5 4.3 0.5 6.6z" fill="#262626" p-id="26293"></path><path d="M422.2 364.3v17.6c0-9.7-7.9-17.6-17.6-17.6h17.6zM609.5 462.5c-6.2 0-11.3 5.1-11.3 11.3v-11.3h11.3zM864.1 473.8c0-6.2-5.1-11.3-11.3-11.3h11.3v11.3zM852.9 569.3c6.2 0 11.3-5.1 11.3-11.3v11.3h-11.3zM598.3 558.1c0 6.2 5.1 11.3 11.3 11.3h-11.3v-11.3z" fill="#262626" p-id="26294"></path></svg>