<svg t="1719031988583" class="icon" viewBox="0 0 1024 1024" version="1.1" xmlns="http://www.w3.org/2000/svg" p-id="12330" width="32" height="32"><path d="M908.714667 0.768H114.090667C51.626667 0.768 0.597333 51.882667 0.597333 114.261333v794.624c0 62.464 51.114667 113.493333 113.493334 113.493334h794.624c62.464 0 113.493333-51.114667 113.493333-113.493334V114.346667c0-62.464-51.114667-113.578667-113.493333-113.578667z m-16.981334 942.250667H131.072c-28.16 0-51.029333-22.869333-51.029333-51.029334V131.242667c0-28.16 22.869333-51.029333 51.029333-51.029334h760.661333c28.16 0 51.029333 22.869333 51.029334 51.029334v760.661333a50.9696 50.9696 0 0 1-51.029334 51.114667z" p-id="12331" fill="currentColor"></path><path d="M258.816 741.461333c28.416 0 51.114667-22.698667 51.114667-51.114666V329.984c0-28.416-22.698667-51.114667-51.114667-51.114667s-51.114667 22.698667-51.114667 51.114667v363.264c0.085333 28.330667 22.784 48.213333 51.114667 48.213333z m505.173333 0c28.416 0 51.114667-22.698667 51.114667-51.114666V329.984c0-28.416-22.698667-51.114667-51.114667-51.114667s-51.114667 22.698667-51.114666 51.114667v363.264c2.816 28.330667 22.698667 48.213333 51.114666 48.213333zM511.402667 454.826667c25.514667 0 48.213333-22.698667 48.213333-48.213334S536.917333 358.4 511.402667 358.4s-48.213333 22.698667-48.213334 48.213333c0 28.330667 19.797333 48.213333 48.213334 48.213334z m0 218.538666c25.514667 0 48.213333-22.698667 48.213333-48.213333s-22.698667-48.213333-48.213333-48.213333-48.213333 22.698667-48.213334 48.213333 19.797333 48.213333 48.213334 48.213333z m0 0" p-id="12332" fill="currentColor"></path></svg>