<svg t="1730401511540" class="icon" viewBox="0 0 1050 1024" version="1.1" xmlns="http://www.w3.org/2000/svg" p-id="4013" width="32" height="32"><path d="M993.483487 929.851077c0 9.878974-3.912205 19.364103-10.889846 26.348308a37.146256 37.146256 0 0 1-26.295795 10.909538H93.958564a37.218462 37.218462 0 0 1-37.185641-37.257846V768H0v161.851077c0.157538 51.928615 42.12841 93.997949 93.958564 94.148923h862.339282c51.830154-0.157538 93.801026-42.220308 93.958564-94.148923V768h-56.772923v161.851077zM956.297846 0H93.958564C42.12841 0.157538 0.157538 42.220308 0 94.148923V256h56.772923V94.148923a37.218462 37.218462 0 0 1 37.185641-37.257846h862.339282c9.865846 0 19.324718 3.925333 26.295795 10.909538a37.303795 37.303795 0 0 1 10.89641 26.348308V256H1050.25641V94.148923C1050.098872 42.220308 1008.128 0.150974 956.297846 0z" fill="#000000" p-id="4014"></path><path d="M122.860308 196.923077v287.986872H45.948718v47.616h76.91159V820.512821h56.759795V532.525949h54.770871V820.512821h85.136411V532.525949h68.969025V820.512821h28.38318V532.525949h83.147487V820.512821h56.766359V532.525949h54.770872V820.512821h85.13641V532.525949h68.969026V820.512821h28.376615V532.525949h83.154051V820.512821h56.759795V532.525949H1010.871795v-47.616h-76.91159V196.923077h-56.759795v287.986872h-83.154051V196.923077h-28.376615v287.986872h-68.962462V196.923077H611.564308v287.986872h-54.770872V196.923077h-56.766359v287.986872H416.886154V196.923077h-28.38318v287.986872H319.533949V196.923077h-85.136411v287.986872h-54.777435V196.923077z" fill="currentColor" p-id="4015"></path></svg>