<svg t="1716009021368" class="icon" viewBox="0 0 1024 1024" version="1.1" xmlns="http://www.w3.org/2000/svg" p-id="9901" width="32" height="32"><path d="M778.24 51.2H245.76C138.24 51.2 51.2 138.24 51.2 245.76v531.2C51.2 885.76 138.24 972.8 245.76 972.8h531.2C885.76 972.8 972.8 885.76 972.8 778.24V245.76C972.8 138.24 885.76 51.2 778.24 51.2zM908.8 753.92C908.8 839.68 839.68 908.8 753.92 908.8H270.08C184.32 908.8 115.2 839.68 115.2 753.92V270.08C115.2 184.32 184.32 115.2 270.08 115.2h482.56C839.68 115.2 908.8 184.32 908.8 270.08v483.84z" fill="currentColor" p-id="9902"></path><path d="M323.84 288c0-25.6 20.48-46.08 46.08-46.08H563.2c96 3.84 145.92 48.64 149.76 135.68 0 52.48-23.04 90.88-70.4 112.64 66.56 23.04 99.84 67.84 99.84 133.12 0 39.68-12.8 72.96-38.4 99.84-33.28 39.68-81.92 58.88-147.2 58.88H369.92c-25.6 0-46.08-20.48-46.08-46.08v-448zM396.8 469.76h129.28c76.8 2.56 113.92-26.88 112.64-88.32 0-52.48-37.12-79.36-112.64-79.36H396.8v167.68z m0 249.6h156.16c74.24-2.56 112.64-34.56 115.2-97.28 0-61.44-43.52-90.88-129.28-90.88H396.8v188.16z" fill="currentColor" p-id="9903"></path></svg>