<svg t="1716047634503" class="icon" viewBox="0 0 1024 1024" version="1.1" xmlns="http://www.w3.org/2000/svg" p-id="13724" width="32" height="32"><path d="M314.568784 943.686275H0V0h943.686275v251.64298h-62.905726v-188.737255H62.905725v817.874824h251.663059z" fill="currentColor" p-id="13725"></path><path d="M702.745098 475.196235h-174.682353V140.54902h-58.227451v334.647215H120.470588v55.757804h349.364706V642.509804h58.227451v-111.555765H702.745098zM1004.202667 401.367843a67.383216 67.383216 0 0 0-95.573334 0l-47.786666 47.987451 95.573333 95.87451 47.786667-47.887059a68.065882 68.065882 0 0 0 0-95.974902z m-192.652549 95.372549L524.850196 784.263529l95.573333 95.87451 286.72-287.523137-95.573333-95.87451zM381.490196 1024l191.146667-95.87451-95.573334-95.87451L381.490196 1024z" fill="currentColor" p-id="13726"></path></svg>