<svg t="1716046522929" class="icon" viewBox="0 0 1024 1024" version="1.1" xmlns="http://www.w3.org/2000/svg" p-id="12702" width="32" height="32"><path d="M992 992H32V32h960v960zM96 928h832V96H96v832z" fill="currentColor" p-id="12703"></path><path d="M928 544h-64v-64h64v64z m-128 0h-64v-64h64v64z m-128 0h-64v-64h64v64z m-128 0h-64v-64h64v64z m-128 0h-64v-64h64v64z m-128 0h-64v-64h64v64z m-128 0H96v-64h64v64z" fill="currentColor" p-id="12704"></path><path d="M544 928h-64v-64h64v64z m0-128h-64v-64h64v64z m0-128h-64v-64h64v64z m0-128h-64v-64h64v64z m0-128h-64v-64h64v64z m0-128h-64v-64h64v64z m0-128h-64V96h64v64z" fill="currentColor" p-id="12705"></path></svg>