<svg t="1718881763981" class="icon" viewBox="0 0 1024 1024" version="1.1" xmlns="http://www.w3.org/2000/svg" p-id="25477" width="32" height="32"><path d="M1014.009756 849.170732l-127.37561-119.882927c-9.990244-12.487805-22.478049-17.482927-37.463414-17.482927s-29.970732 7.492683-37.463415 17.482927L681.834146 849.170732c-12.487805 12.487805-12.487805 29.970732-2.497561 42.458536 12.487805 12.487805 29.970732 12.487805 42.458537 2.497561l84.917073-79.921951 2.497561-2.497561h9.990244v182.321951c0 17.482927 12.487805 29.970732 29.970732 29.970732s29.970732-12.487805 29.970731-29.970732v-189.814634l94.907317 89.912195c4.995122 4.995122 12.487805 7.492683 22.478049 7.492683 7.492683 0 14.985366-2.497561 19.980488-9.990244 4.995122-4.995122 7.492683-12.487805 7.492683-22.478048 0-7.492683-4.995122-14.985366-9.990244-19.980488z m0 0" fill="currentColor" p-id="25478"></path><path d="M956.565854 352.156098v317.190243c0 17.482927 14.985366 29.970732 32.468292 32.468293h2.497561c17.482927 0 32.468293-12.487805 32.468293-29.970732V112.390244C1024 49.95122 974.04878 0 911.609756 0h-799.219512C49.95122 0 0 49.95122 0 112.390244v799.219512C0 974.04878 49.95122 1024 112.390244 1024h559.453658c17.482927 0 32.468293-14.985366 32.468293-32.468293 0-17.482927-14.985366-32.468293-32.468293-32.468292H112.390244c-24.97561 0-47.453659-19.980488-47.453659-47.453659v-799.219512c0-24.97561 22.478049-47.453659 47.453659-47.453659h796.721951c24.97561 0 47.453659 19.980488 47.453659 47.453659V352.156098zM64.936585 112.390244" fill="currentColor" p-id="25479"></path><path d="M774.243902 307.2c-29.970732 39.960976-114.887805 147.356098-182.321951 234.770732L507.004878 449.560976c77.42439-72.429268 172.331707-162.341463 207.297561-192.312196C774.243902 199.804878 829.190244 167.336585 841.678049 179.82439c7.492683 7.492683-12.487805 57.443902-67.434147 127.37561z m-197.307317 252.253659c-24.97561 32.468293-47.453659 62.439024-62.439024 79.921951l-99.902439-102.4c17.482927-14.985366 42.458537-39.960976 74.926829-69.931708l87.414634 92.409757z m-77.42439 99.902439c-57.443902 234.770732-319.687805 99.902439-319.687805 99.902439s109.892683 14.985366 109.892683-92.409757c0-104.897561 99.902439-112.390244 107.395122-112.390243l102.4 104.897561z m0 0" fill="currentColor" p-id="25480"></path></svg>