<svg t="1720753513953" class="icon" viewBox="0 0 1024 1024" version="1.1" xmlns="http://www.w3.org/2000/svg" p-id="3502" width="32" height="32"><path d="M876.09 152.32l-1.96-1.96C781.55 57.55 653.77 0.54 512.85 0h-1.68C371.34 0.54 244.41 56.72 152.12 147.57l-2.22 2.79C57.07 242.57 0 370.59 0 511.97c0 141.43 57.06 269.43 149.9 362.24 92.84 92.21 220.33 149.51 361.28 149.79h1.68c140.92-0.28 268.7-57.58 361.28-149.79 92.84-92.81 149.87-220.8 149.87-362.24-0.01-140.27-55.94-267.15-147.92-359.65zM472.31 943.49c-103.75-9.49-197.13-55.33-266.76-125.2h-0.31 0.31C127.53 740.05 78.59 631.61 78.59 511.97c0-119.58 48.93-227.48 126.95-306.29l1.94-1.65C276.83 135.27 369.69 89.97 472.31 80.48v863.01z m79.13-863.01c19 2.24 38.02 4.75 56.21 8.95l-56.21 56.44V80.48z m0 132.2l107.93-108.16c16.8 6.16 33.01 13.13 48.37 21.23l-156.3 156.52v-69.59z m0 136.09l199.09-198.41c13.99 8.92 26.87 19.01 39.44 29.64L551.44 418.67v-69.9z m0 136.95L824.91 212.14c11.46 12.02 22.38 24.27 32.16 37.71L551.44 555.03v-69.31z m0 136.08l332.21-332.26c9.5 14.52 17.32 29.9 24.05 45.81L551.44 691.43V621.8z m0 136.13l374.7-373.92c5.57 17.88 10.09 36.89 13.42 55.9L551.44 827.78v-69.85z m266.79 60.36c-42.82 43.05-95.11 77.15-153.25 98.92l252.49-252.07c-21.79 57.84-55.93 110.12-99.24 153.15zM575.21 940.71c-7.82 1.11-15.92 1.96-23.77 2.79v-48.62l393.72-393.79v10.89c0 21.54-1.42 42.51-4.46 63.17L575.21 940.71z" fill="currentColor" p-id="3503"></path></svg>