<svg t="1724238028933" class="icon" viewBox="0 0 1024 1024" version="1.1" xmlns="http://www.w3.org/2000/svg" p-id="7456"
    width="32" height="32">
    <path
        d="M759.296 976.4864H154.4192a112.128 112.128 0 0 1-112.0256-112.0256V345.9584a112.128 112.128 0 0 1 112.0256-112.0256H759.296a112.128 112.128 0 0 1 112.0256 112.0256v518.5024a112.128 112.128 0 0 1-112.0256 112.0256zM154.4192 285.1328a60.8768 60.8768 0 0 0-60.8256 60.8256v518.5024a60.8768 60.8768 0 0 0 60.8256 60.8256H759.296a60.8768 60.8768 0 0 0 60.8256-60.8256V345.9584a60.8768 60.8768 0 0 0-60.8256-60.8256z"
        fill="currentColor" p-id="7457"></path>
    <path
        d="M221.44 847.2576l-47.6672-18.7392A307.5584 307.5584 0 0 1 240.64 730.4704c43.4688-41.9328 117.76-84.0192 224.512-46.336 30.1568 10.6496 57.0368 9.3696 81.92-3.9424 57.8048-30.72 92.16-119.6032 100.6592-151.296l49.5104 13.1072c-1.4848 5.5296-36.9152 136.2432-126.208 183.4496-37.888 20.0704-79.3088 22.3744-122.88 6.9632-65.7408-23.296-123.5968-11.52-171.6736 34.8672a255.6416 255.6416 0 0 0-55.04 79.9744zM284.0576 587.6224a112.0256 112.0256 0 1 1 111.9744-112.0256 112.128 112.128 0 0 1-111.9744 112.0256z m0-172.8512a60.8256 60.8256 0 1 0 60.7744 60.8256A60.8768 60.8768 0 0 0 284.0576 414.72z"
        fill="currentColor" p-id="7458"></path>
    <path
        d="M1000.96 778.24h-51.2V259.5328a147.4048 147.4048 0 0 0-147.2-147.2512h-691.2v-51.2h691.2a198.656 198.656 0 0 1 198.4 198.4512z"
        fill="currentColor" p-id="7459"></path>
</svg>