<svg t="1719721504444" class="icon" viewBox="0 0 1024 1024" version="1.1" xmlns="http://www.w3.org/2000/svg" p-id="2390" width="32" height="32"><path d="M494.023111 64a430.023111 430.023111 0 0 1 324.494222 712.135111l104.277334 107.975111a36.010667 36.010667 0 1 1-51.768889 50.005334l-104.106667-107.804445a430.023111 430.023111 0 1 1-272.896-762.311111z m0 72.021333a358.001778 358.001778 0 1 0 0 716.003556 358.001778 358.001778 0 0 0 0-716.003556z m185.457778 172.544c13.880889 13.880889 14.051556 36.408889 0.398222 50.460445L544.881778 493.966222l134.599111 134.599111 0.398222 0.398223a36.010667 36.010667 0 0 1-51.313778 50.517333L493.966222 544.881778l-134.485333 134.599111a36.010667 36.010667 0 0 1-51.370667-50.517333l0.455111-0.398223 134.485334-134.599111-134.940445-134.940444a36.010667 36.010667 0 0 1-3.697778-45.511111l4.152889-4.949334a36.010667 36.010667 0 0 1 50.915556 0l134.485333 134.485334 134.599111-134.485334a36.010667 36.010667 0 0 1 50.915556 0z" fill="currentColoe" p-id="2391"></path></svg>