<svg t="1721314380019" class="icon" viewBox="0 0 1084 1024" version="1.1" xmlns="http://www.w3.org/2000/svg" p-id="2443"
    width="32" height="32">
    <path
        d="M303.194264 362.586246a330.571197 330.571197 0 0 1 278.317094 112.971261 45.176457 45.176457 0 1 1-68.21645 59.241395 240.941106 240.941106 0 1 0-32.496932 346.864839A329.788138 329.788138 0 0 1 421.646935 692.705679c0-27.045639 3.252705-53.699749 9.637644-79.510565a45.176457 45.176457 0 0 1 87.702562 21.624464A240.941106 240.941106 0 1 0 993.882061 692.705679a241.151929 241.151929 0 0 0-150.527956-223.442758 331.504844 331.504844 0 0 1-195.674295 176.127948 45.176457 45.176457 0 0 1-28.762345-85.624445A241.061576 241.061576 0 0 0 783.058593 331.29402a240.941106 240.941106 0 1 0-479.864329 31.292226z m-88.425386 19.877642A333.492608 333.492608 0 0 1 210.823467 331.29402C210.823467 148.329368 359.152836 0 542.117488 0s331.29402 148.329368 331.29402 331.29402c0 17.34776-1.355294 34.454578-3.945411 51.199985A331.474726 331.474726 0 0 1 1084.234975 692.705679c0 182.964652-148.329368 331.29402-331.29402 331.29402-80.112918 0-153.53972-28.43105-210.823467-75.715743A330.209785 330.209785 0 0 1 331.29402 1023.999699C148.329368 1023.999699 0 875.670331 0 692.705679c0-141.944429 89.298797-263.047452 214.73876-310.211674z"
        fill="currentColor" p-id="2444"></path>
</svg>