<svg t="1700657696174" class="icon" viewBox="0 0 1024 1024" version="1.1" xmlns="http://www.w3.org/2000/svg" p-id="15426" width="64" height="64"><path d="M779.636364 139.636364h-674.909091C86.109091 139.636364 69.818182 123.345455 69.818182 104.727273S86.109091 69.818182 104.727273 69.818182h674.909091c18.618182 0 34.909091 16.290909 34.909091 34.909091S798.254545 139.636364 779.636364 139.636364z" fill="currentColor" p-id="15427"></path><path d="M442.181818 954.181818c-18.618182 0-34.909091-16.290909-34.909091-34.909091v-791.272727c0-18.618182 16.290909-34.909091 34.909091-34.909091s34.909091 16.290909 34.909091 34.909091v791.272727c0 18.618182-16.290909 34.909091-34.909091 34.909091zM104.727273 256C86.109091 256 69.818182 242.036364 69.818182 221.090909V111.709091c0-18.618182 16.290909-34.909091 34.909091-34.909091S139.636364 93.090909 139.636364 111.709091v109.381818c0 20.945455-16.290909 34.909091-34.909091 34.909091zM779.636364 256c-18.618182 0-34.909091-13.963636-34.909091-34.909091V111.709091c0-18.618182 16.290909-34.909091 34.909091-34.909091S814.545455 93.090909 814.545455 111.709091v109.381818c0 20.945455-16.290909 34.909091-34.909091 34.909091z" fill="currentColor" p-id="15428"></path><path d="M935.563636 551.563636H600.436364c-18.618182 0-34.909091-16.290909-34.909091-34.909091s16.290909-34.909091 34.909091-34.90909h337.454545c18.618182 0 34.909091 16.290909 34.909091 34.90909s-16.290909 34.909091-37.236364 34.909091z" fill="currentColor" p-id="15429"></path><path d="M768 954.181818c-18.618182 0-34.909091-16.290909-34.909091-34.909091V528.290909c0-18.618182 16.290909-34.909091 34.909091-34.909091s34.909091 16.290909 34.909091 34.909091v390.981818c0 18.618182-16.290909 34.909091-34.909091 34.909091zM600.436364 612.072727c-18.618182 0-34.909091-16.290909-34.909091-34.909091v-55.854545c0-18.618182 16.290909-34.909091 34.909091-34.909091s34.909091 16.290909 34.909091 34.909091v55.854545c-2.327273 18.618182-16.290909 34.909091-34.909091 34.909091zM935.563636 612.072727c-18.618182 0-34.909091-16.290909-34.909091-34.909091v-55.854545c0-18.618182 16.290909-34.909091 34.909091-34.909091s34.909091 16.290909 34.909091 34.909091v55.854545c2.327273 18.618182-13.963636 34.909091-34.909091 34.909091z" fill="currentColor" p-id="15430"></path></svg>