<svg t="1720754735291" class="icon" viewBox="0 0 1024 1024" version="1.1" xmlns="http://www.w3.org/2000/svg" p-id="5744" width="32" height="32"><path d="M599.915411 186.94969l47.841457 43.425322a30.986543 30.986543 0 1 1-41.217255 46.369411L465.959334 152.356637a31.648963 31.648963 0 0 1-8.832269-33.121008 36.065098 36.065098 0 0 1 13.984426-19.136582L632.300397 4.416134a31.648963 31.648963 0 0 1 32.384986 53.729636l-87.586666 52.25759a411.436523 411.436523 0 0 1 66.978039 809.624643 37.905154 37.905154 0 1 1-18.40056-73.60224 338.570305 338.570305 0 0 0-25.760785-662.420162zM361.444153 203.142183a37.537143 37.537143 0 0 0 22.080672-47.105434 36.80112 36.80112 0 0 0-47.105434-22.080672 412.172546 412.172546 0 0 0 58.881793 789.752038l-73.602241 41.953277a31.648963 31.648963 0 0 0-10.304313 43.425322 30.912941 30.912941 0 0 0 42.689299 10.304314l164.132996-95.682913a30.912941 30.912941 0 0 0 12.512381-38.273165 33.121008 33.121008 0 0 0-8.096247-12.51238L383.524825 746.326716a32.384986 32.384986 0 0 0-44.161344 0 30.912941 30.912941 0 0 0 0 44.161344l62.561904 57.409748a337.834283 337.834283 0 0 1-42.689299-646.963692z" fill="currentColor" p-id="5745"></path></svg>