<svg t="1730403776939" class="icon" viewBox="0 0 1024 1024" version="1.1" xmlns="http://www.w3.org/2000/svg" p-id="5865" width="32" height="32"><path d="M192 544C192 524.8 211.2 512 230.4 512L787.2 512C806.4 512 825.6 524.8 825.6 544 825.6 563.2 806.4 576 787.2 576L230.4 576C211.2 576 192 563.2 192 544L192 544ZM192 800C192 780.8 211.2 768 230.4 768L787.2 768C806.4 768 825.6 780.8 825.6 800 825.6 819.2 806.4 832 787.2 832L230.4 832C211.2 832 192 819.2 192 800L192 800ZM96 896 96 896C76.8 896 64 883.2 64 864L64 160C64 140.8 76.8 128 96 128L96 128C115.2 128 128 140.8 128 160L128 864C128 883.2 115.2 896 96 896L96 896ZM928 896 928 896C908.8 896 896 883.2 896 864L896 160C896 140.8 908.8 128 928 128L928 128C947.2 128 960 140.8 960 160L960 864C960 883.2 947.2 896 928 896L928 896Z" fill="#979797" p-id="5866"></path><path d="M831.760333 314.731698C831.80836 306.580973 828.826493 298.411057 822.671223 292.255786L731.744214 201.328777C719.089315 188.673879 699.194828 189.040671 686.69805 201.537448 674.566749 213.668749 674.107848 234.202079 686.489379 246.583611L754.580301 314.674533 686.489379 382.765455C673.834481 395.420353 674.201273 415.31484 686.69805 427.811618 698.829351 439.942918 719.362682 440.40182 731.744214 428.020289L822.671223 337.093279C828.96356 330.800941 832.036505 322.718737 831.999673 314.646039ZM202.890602 314.617368C202.842574 322.768092 205.824442 330.938009 211.979711 337.093279L302.906721 428.020289C315.561619 440.675187 335.456107 440.308395 347.952884 427.811618 360.084185 415.680317 360.543087 395.146986 348.161555 382.765455L280.070633 314.674533 348.161555 246.583611C360.816453 233.928713 360.449661 214.034225 347.952884 201.537448 335.821583 189.406147 315.288253 188.947245 302.906721 201.328777L211.979711 292.255786C205.687374 298.548124 202.61443 306.630328 202.651261 314.703027Z" fill="#979797" p-id="5867"></path><path d="M768 288l0 64-512 0 0-64 512 0Z" fill="currentColor" p-id="5868"></path></svg>