<svg t="1720753820739" class="icon" viewBox="0 0 1024 1024" version="1.1" xmlns="http://www.w3.org/2000/svg" p-id="1557" width="32" height="32"><path d="M930.4 648.3c1.8-15.8 2.8-31.9 2.8-48.2 0-99.7-35.5-196.5-100-273-1-1.5-2.2-3-3.5-4.4l-7.2-7.6c-5.9-6.5-11.8-12.9-17.3-18.2L531.5 9.5c-11.7-12.2-32.9-12.2-44.6 0L214.2 296c-6.3 6.1-12.3 12.6-17.7 18.6l-7.6 8c-1.3 1.4-2.5 2.9-3.5 4.5-64.5 76.4-100 173.2-100 273 0 233.7 190.2 423.9 423.9 423.9 217.2 0 396.7-164.2 421.1-374.9-0.1-0.2 0-0.5 0-0.8zM234.8 363.9c0.5-0.6 1.1-1.3 1.5-2l5.2-5.4c5.1-5.6 10.1-11.1 16.4-17.2l251.3-264L761.3 340c5.4 5.3 10.6 10.9 16.1 16.9l4.8 5.1c0.5 0.6 1 1.3 1.5 1.9 56.7 65.9 87.9 149.7 87.9 236.2 0 4.9-0.1 9.7-0.3 14.6h-724c-0.2-4.8-0.3-9.7-0.3-14.6-0.1-86.5 31.1-170.4 87.8-236.2z m274.4 598.5c-173.7 0-319.2-122.8-354.3-286.2h708.5c-35 163.4-180.5 286.2-354.2 286.2z" fill="currentColor" p-id="1558"></path></svg>