<svg t="1719623648094" class="icon" viewBox="0 0 1024 1024" version="1.1" xmlns="http://www.w3.org/2000/svg" p-id="8699" width="32" height="32"><path d="M46.777178 434.134084h497.111453a46.713183 46.713183 0 1 0 0-93.490357H46.777178a46.777173 46.777173 0 0 0 0 93.490357z m930.360226 155.881251H46.777178a46.713183 46.713183 0 0 0-0.031995 93.458361h930.360225a46.713183 46.713183 0 0 0 0.031996-93.458361z m-433.248773 249.339612H46.777178a46.713183 46.713183 0 0 0 0 93.490356h497.111453a46.713183 46.713183 0 1 0 0-93.490356z m433.248773 0H46.777178a46.713183 46.713183 0 0 0 0 93.490356h930.360226a46.713183 46.713183 0 1 0 0-93.490356z m0-498.71122H46.745183a46.713183 46.713183 0 0 0 0 93.490357h930.392221a46.713183 46.713183 0 1 0 0-93.490357zM932.567908 4.884727l-87.57122 87.57122a16.189637 16.189637 0 0 0 0 22.812671l87.57122 87.57122a16.061656 16.061656 0 0 0 27.483989-11.390338V16.275065a16.093651 16.093651 0 0 0-27.483989-11.390338z m-841.25323 0l87.603216 87.57122a16.189637 16.189637 0 0 1 0 22.812671L91.314678 202.839838a16.061656 16.061656 0 0 1-27.483989-11.390338V16.275065c0-14.397899 17.40546-21.468867 27.483989-11.390338z" fill="currentColor" p-id="8700"></path></svg>