<svg t="1719115915779" class="icon" viewBox="0 0 1024 1024" version="1.1" xmlns="http://www.w3.org/2000/svg" p-id="5409" width="32" height="32"><path d="M475.438455 1008.64765C437.264221 969.736145 102.4 622.317844 102.4 409.59479 102.4 183.744223 286.144223 0 511.99479 0s409.59479 183.744223 409.59479 409.59479c0 212.723054-334.864221 560.141355-373.038455 599.05286a51.199349 51.199349 0 0 1-73.11267 0zM511.99479 102.398697c-169.408405 0-307.196092 137.808167-307.196093 307.196093 0 129.247636 196.605499 368.942507 307.196093 488.830902C622.585383 778.496338 819.190882 538.617149 819.190882 409.59479c0-169.387925-137.787687-307.196092-307.196092-307.196093z" fill="currentColor" p-id="5410"></path><path d="M511.99479 409.59479m-102.398698 0a102.398697 102.398697 0 1 0 204.797395 0 102.398697 102.398697 0 1 0-204.797395 0Z" fill="currentColor" p-id="5411"></path></svg>