<svg t="1721003829321" class="icon" viewBox="0 0 1024 1024" version="1.1" xmlns="http://www.w3.org/2000/svg" p-id="33070" width="32" height="32"><path d="M768 208H595.349a223.478 223.478 0 0 1-147.964-56 223.473 223.473 0 0 0-147.964-56H256C149.961 96 64 181.961 64 288v448c0 106.039 85.961 192 192 192h512c106.039 0 192-85.961 192-192V400c0-106.039-85.961-192-192-192z m-512-32h43.421a143.372 143.372 0 0 1 94.995 35.953A303.263 303.263 0 0 0 595.349 288H768c61.757 0 112 50.242 112 112H144V288c0-61.758 50.243-112 112-112z m512 672H256c-61.757 0-112-50.243-112-112V480h736v256c0 61.757-50.243 112-112 112z" fill="currentColor" p-id="33071"></path></svg>