<svg t="1716465727515" class="icon" viewBox="0 0 1024 1024" version="1.1" xmlns="http://www.w3.org/2000/svg" p-id="2440" width="32" height="32"><path d="M358.997333 385.024H52.565333C35.626667 385.024 21.333333 369.92 21.333333 352.085333V32.938667C21.333333 14.677333 35.626667 0 52.565333 0h306.432c16.938667 0 31.232 14.677333 31.232 32.938667v319.146666c0 17.792-14.293333 32.938667-31.232 32.938667z m-275.2-65.408h243.541334V64.981333H83.797333v254.634667z m880.725334 65.408h-306.432c-16.938667 0-31.232-15.146667-31.232-32.938667V32.938667c0-18.261333 14.293333-32.938667 31.232-32.938667h306.432c17.408 0 31.232 14.677333 31.232 32.938667v319.146666c0 17.792-13.824 32.938667-31.232 32.938667z m-274.986667-65.408h243.541333V64.981333h-243.541333v254.634667zM358.997333 1023.786667H52.565333c-16.938667 0-31.232-14.677333-31.232-32.938667v-319.146667c0-17.834667 14.293333-32.938667 31.232-32.938666h306.432c16.938667 0 31.232 15.104 31.232 32.938666v319.146667c0 18.261333-14.293333 32.938667-31.232 32.938667z m-275.2-64.981334h243.541334v-254.634666H83.797333v254.634666zM964.522667 1024h-306.432c-16.938667 0-31.232-14.677333-31.232-32.938667v-319.146666c0-17.792 14.293333-32.938667 31.232-32.938667h306.432c16.981333 0 31.232 15.146667 31.232 32.938667v319.146666c0 18.261333-14.250667 32.938667-31.232 32.938667z m-274.986667-64.981333h243.541333v-254.634667h-243.541333v254.634667zM512 544.810667H207.786667c-17.834667 0-31.232-15.104-31.232-32.938667 0-17.792 13.397333-32.938667 31.232-32.938667h272.981333V192.298667c0-17.792 13.824-32.512 31.232-32.512s31.232 14.72 31.232 32.512v319.573333c0 17.834667-13.824 32.938667-31.232 32.938667z m0-422.826667c-17.408 0-31.232-15.146667-31.232-32.938667V32.938667c0-18.261333 13.824-32.938667 31.232-32.938667s31.232 14.677333 31.232 32.938667v56.064c0 17.834667-13.824 32.981333-31.232 32.981333z m-405.461333 422.826667H52.565333c-16.938667 0-31.232-15.104-31.232-32.938667 0-17.792 14.293333-32.938667 31.232-32.938667h53.973334c17.408 0 31.658667 15.146667 31.658666 32.938667 0 17.834667-14.250667 32.938667-31.658666 32.938667z m864.896 0h-306.432c-16.938667 0-31.232-15.104-31.232-32.938667 0-17.792 14.293333-32.938667 31.232-32.938667h306.432c17.408 0 31.232 15.146667 31.232 32.938667 0 17.834667-13.824 32.938667-31.232 32.938667zM512 1023.786667c-17.408 0-31.232-14.677333-31.232-32.938667v-319.146667c0-17.834667 13.824-32.938667 31.232-32.938666s31.232 15.104 31.232 32.938666v319.146667c0 18.261333-13.824 32.938667-31.232 32.938667z" p-id="2441" fill="currentColor"></path></svg>