<svg t="1719738824465" class="icon" viewBox="0 0 1024 1024" version="1.1" xmlns="http://www.w3.org/2000/svg" p-id="14606" width="32" height="32"><path d="M346.94637037 45.96622222H152.76562963c-64.07964445 0-116.50844445 52.4288-116.50844445 116.50844445v194.18074074c0 64.07964445 52.4288 116.50844445 116.50844445 116.50844444h194.18074074c64.07964445 0 116.50844445-52.4288 116.50844445-116.50844444V162.47466667c0-64.07964445-52.4288-116.50844445-116.50844445-116.50844445z m38.83614815 310.68918519c0 21.35988148-17.47626667 38.83614815-38.83614815 38.83614814H152.76562963c-21.35988148 0-38.83614815-17.47626667-38.83614815-38.83614814V162.47466667c0-21.35988148 17.47626667-38.83614815 38.83614815-38.83614815h194.18074074c21.35988148 0 38.83614815 17.47626667 38.83614815 38.83614815v194.18074074z m-38.83614815 194.18074074H152.76562963c-64.07964445 0-116.50844445 52.4288-116.50844445 116.50844444v194.18074074c0 64.07964445 52.4288 116.50844445 116.50844445 116.50844445h194.18074074c64.07964445 0 116.50844445-52.4288 116.50844445-116.50844445V667.34459259c0-64.07964445-52.4288-116.50844445-116.50844445-116.50844444z m38.83614815 310.68918518c0 21.35988148-17.47626667 38.83614815-38.83614815 38.83614815H152.76562963c-21.35988148 0-38.83614815-17.47626667-38.83614815-38.83614815V667.34459259c0-21.35988148 17.47626667-38.83614815 38.83614815-38.83614814h194.18074074c21.35988148 0 38.83614815 17.47626667 38.83614815 38.83614814v194.18074074z m485.45185185-815.55911111H677.05362963c-64.07964445 0-116.50844445 52.4288-116.50844445 116.50844445v194.18074074c0 64.07964445 52.4288 116.50844445 116.50844445 116.50844444h194.18074074c64.07964445 0 116.50844445-52.4288 116.50844445-116.50844444V162.47466667c0-64.07964445-52.4288-116.50844445-116.50844445-116.50844445z m38.83614815 310.68918519c0 21.35988148-17.47626667 38.83614815-38.83614815 38.83614814H677.05362963c-21.35988148 0-38.83614815-17.47626667-38.83614815-38.83614814V162.47466667c0-21.35988148 17.47626667-38.83614815 38.83614815-38.83614815h194.18074074c21.35988148 0 38.83614815 17.47626667 38.83614815 38.83614815v194.18074074z m19.41807407 217.48242962c-21.35988148 0-38.83614815 17.47626667-38.83614814 38.83614815V919.77955555c0 11.65084445 3.88361482 21.35988148 11.65084444 27.1853037 7.76722963 7.76722963 17.47626667 11.65084445 27.1853037 11.65084445 21.35988148 0 38.83614815-17.47626667 38.83614816-38.83614815V612.97398518c0-21.35988148-17.47626667-38.83614815-38.83614816-38.83614815z m-310.68918518 0c-21.35988148 0-38.83614815 17.47626667-38.83614816 38.83614815V919.77955555c0 11.65084445 3.88361482 21.35988148 11.65084445 27.1853037 7.76722963 7.76722963 17.47626667 11.65084445 27.18530371 11.65084445 21.35988148 0 38.83614815-17.47626667 38.83614814-38.83614815V612.97398518c0-21.35988148-17.47626667-38.83614815-38.83614814-38.83614815z m155.34459259 213.59881482c-21.35988148 0-38.83614815 17.47626667-38.83614815 38.83614815V919.77955555c0 11.65084445 3.88361482 21.35988148 11.65084445 27.1853037 7.76722963 7.76722963 17.47626667 11.65084445 27.1853037 11.65084445 21.35988148 0 38.83614815-17.47626667 38.83614815-38.83614815v-93.20675555c0-21.35988148-17.47626667-38.83614815-38.83614815-38.83614815z m0-213.59881482c-21.35988148 0-38.83614815 17.47626667-38.83614815 38.83614815V706.18074075c0 11.65084445 3.88361482 21.35988148 11.65084445 27.1853037 7.76722963 7.76722963 17.47626667 11.65084445 27.1853037 11.65084444 21.35988148 0 38.83614815-17.47626667 38.83614815-38.83614814v-93.20675557c0-21.35988148-17.47626667-38.83614815-38.83614815-38.83614815z" fill="currentColor" p-id="14607"></path></svg>