<svg t="1720511622034" class="icon" viewBox="0 0 1024 1024" version="1.1" xmlns="http://www.w3.org/2000/svg" p-id="2384" width="32" height="32"><path d="M400.384 365.661091l130.094545 14.429091c25.413818 2.839273 31.185455 20.014545 13.405091 37.748363l-38.074181 38.027637 304.872727 304.872727a128 128 0 1 1-53.992727 57.856l-306.827637-306.734545-38.260363 38.260363c-17.966545 17.966545-34.862545 12.101818-37.701819-13.451636l-14.429091-130.094546c-2.839273-25.413818 15.36-43.752727 40.913455-40.913454zM935.563636 6.981818a39.563636 39.563636 0 1 1 2.653091 78.801455l-2.653091 0.186182A842.938182 842.938182 0 0 0 333.544727 333.544727 842.193455 842.193455 0 0 0 86.109091 935.563636a40.029091 40.029091 0 0 1-39.563636 34.909091 39.563636 39.563636 0 0 1-38.353455-29.789091l-0.930909-5.166545A919.738182 919.738182 0 0 1 277.597091 277.597091 921.088 921.088 0 0 1 935.563636 6.981818zM872.727273 823.854545a48.872727 48.872727 0 1 0 0 97.745455 48.872727 48.872727 0 0 0 0-97.745455z" p-id="2385" fill="currentColor"></path></svg>