<svg t="1719144903390" class="icon" viewBox="0 0 1024 1024" version="1.1" xmlns="http://www.w3.org/2000/svg" p-id="5160" width="32" height="32"><path d="M592.579835 81.640994a42.656246 42.656246 0 0 0-42.656246 42.661366v335.884661a13.961064 13.961064 0 0 0 13.961064 13.961064h335.812987a42.656246 42.656246 0 0 0 0-85.312492h-187.243104a6.983092 6.983092 0 0 1-4.889188-11.87228l302.791769-302.924879a42.72792 42.72792 0 1 0-60.390432-60.395551l-302.791769 302.791769a6.983092 6.983092 0 0 1-11.938835-4.889188V124.235805c0-23.524418-19.126709-42.584572-42.656246-42.584572zM126.350955 633.120932h187.314779a6.983092 6.983092 0 0 1 4.889188 11.86204l-307.046132 307.122925a42.72792 42.72792 0 0 0 60.390432 60.385313l307.046132-307.117806a6.983092 6.983092 0 0 1 11.938834 4.889188v187.314779a42.656246 42.656246 0 0 0 85.312492 0v-335.884662c0-7.679353-6.281711-13.961064-13.961063-13.961063H126.422629a42.656246 42.656246 0 0 0 0 85.312492l-0.071674 0.071674z" fill="currentColor" p-id="5161"></path></svg>