<svg t="1719032982617" class="icon" viewBox="0 0 1024 1024" version="1.1" xmlns="http://www.w3.org/2000/svg" p-id="20261" width="32" height="32"><path d="M612.352 940.032h-389.12c-73.728 0-135.168-59.392-135.168-135.168V432.128c0-73.728 59.392-135.168 135.168-135.168h387.072c73.728 0 135.168 59.392 135.168 135.168v372.736c0 73.728-59.392 135.168-133.12 135.168z m-389.12-581.632c-40.96 0-73.728 32.768-73.728 73.728v372.736c0 40.96 32.768 73.728 73.728 73.728h387.072c40.96 0 73.728-32.768 73.728-73.728V432.128c0-40.96-32.768-73.728-73.728-73.728H223.232zM931.84 370.688h-120.832c-16.384 0-30.72-14.336-30.72-30.72s14.336-30.72 30.72-30.72h120.832c16.384 0 30.72 14.336 30.72 30.72s-14.336 30.72-30.72 30.72zM931.84 935.936h-120.832c-16.384 0-30.72-14.336-30.72-30.72s14.336-30.72 30.72-30.72h120.832c16.384 0 30.72 14.336 30.72 30.72s-14.336 30.72-30.72 30.72z" fill="currentColor" p-id="20262"></path><path d="M872.448 935.936c-16.384 0-30.72-14.336-30.72-30.72v-552.96c0-16.384 14.336-30.72 30.72-30.72s30.72 14.336 30.72 30.72v552.96c0 16.384-14.336 30.72-30.72 30.72z" fill="currentColor" p-id="20263"></path><path d="M139.264 260.096c-16.384 0-30.72-14.336-30.72-30.72V108.544c0-16.384 14.336-30.72 30.72-30.72s30.72 14.336 30.72 30.72v120.832c0 18.432-14.336 30.72-30.72 30.72zM702.464 260.096c-16.384 0-30.72-14.336-30.72-30.72V108.544c0-16.384 14.336-30.72 30.72-30.72s30.72 14.336 30.72 30.72v120.832c0 18.432-14.336 30.72-30.72 30.72z" fill="currentColor" p-id="20264"></path><path d="M702.464 198.656h-552.96c-16.384 0-30.72-14.336-30.72-30.72s14.336-30.72 30.72-30.72h552.96c16.384 0 30.72 14.336 30.72 30.72s-14.336 30.72-30.72 30.72z" fill="currentColor" p-id="20265"></path></svg>