<svg t="1719147999494" class="icon" viewBox="0 0 1033 1024" version="1.1" xmlns="http://www.w3.org/2000/svg" p-id="9758" width="32" height="32"><path d="M939.2384 962.00192H92.3648a30.24384 30.24384 0 0 1 0-60.48768h846.8736a30.24384 30.24384 0 1 1 0 60.48768z" p-id="9759" fill="currentColor"></path><path d="M92.3648 962.00192a30.24896 30.24896 0 0 1-26.31168-45.37344l483.92704-838.40512a30.24896 30.24896 0 1 1 52.3264 30.24896L118.37952 946.57536a30.26944 30.26944 0 0 1-26.01472 15.42656z" p-id="9760" fill="currentColor"></path><path d="M731.87328 781.98784a13.20448 13.20448 0 0 0-9.00096-3.47648l-60.53376-0.0256c-24.09984-155.52512-141.09696-287.54944-304.11264-322.80064l-13.00992 60.48768c4.83328 1.04448 9.64096 2.19648 14.42304 3.45088 126.65344 33.32608 216.6528 135.68 240.52224 256.04608l-0.37888 2.81088-63.08352-0.04096a13.7216 13.7216 0 0 0-9.20576 3.70176l-0.2304 0.22528a14.2336 14.2336 0 0 0-0.6912 19.47136l84.62336 95.13472a13.27616 13.27616 0 0 0 19.15904 0.84992l101.56544-95.10912a14.15168 14.15168 0 0 0-0.04608-20.72576z" p-id="9761" fill="currentColor"></path></svg>