<svg t="1715781121562" class="icon" viewBox="0 0 1025 1024" version="1.1" xmlns="http://www.w3.org/2000/svg" p-id="2339" width="32" height="32"><path d="M512 1024a512 512 0 1 1 512-512 512 512 0 0 1-512 512z m0-958.72a448 448 0 1 0 448 448 448 448 0 0 0-448-448z" p-id="2340" fill="currentColor"></path><path d="M241.28 374.187a69.76 69.76 0 1 0 139.52 0 69.76 69.76 0 1 0-139.52 0zM642.133 374.187a69.76 69.76 0 1 0 139.52 0 69.76 69.76 0 1 0-139.52 0zM512 680.32h85.333a30.507 30.507 0 0 1 29.227 40.32 121.173 121.173 0 0 1-228.267 1.28 30.507 30.507 0 0 1 28.374-40.533z" p-id="2341" fill="currentColor"></path><path d="M505.6 1006.293a362.667 362.667 0 0 1 474.24-414.506l-21.333 60.373a298.667 298.667 0 0 0-390.4 341.333z" p-id="2342" fill="currentColor"></path></svg>