<svg t="1718424885779" class="icon" viewBox="0 0 1024 1024" version="1.1" xmlns="http://www.w3.org/2000/svg" p-id="10913" width="32" height="32"><path d="M94.69812 56.356467a38.389789 38.389789 0 0 0-38.38979 38.389789v834.370371a38.389789 38.389789 0 0 0 38.38979 38.389789h834.37037a38.389789 38.389789 0 0 0 38.389789-38.389789v-834.370371a38.389789 38.389789 0 0 0-38.389789-38.389789h-834.37037m0-56.305413h834.37037a94.814815 94.814815 0 0 1 94.69812 94.69812v834.37037a94.814815 94.814815 0 0 1-94.69812 94.69812h-834.37037A94.814815 94.814815 0 0 1 0 929.119544v-834.37037A94.814815 94.814815 0 0 1 94.69812 0.048137z" fill="currentColor" p-id="10914"></path><path d="M737.673846 457.202872c64.243601 0 104.185436 19.776912 104.185436 78.255772 0 30.059214-15.59339 51.062883-47.300923 61.353937l1.582678 2.469561c35.008547 7.001709 53.131305 32.544821 53.131305 67.537322 0 58.05584-40.361937 84.434781-120.65404 84.434781q-16.337322 0-38.782177-2.262427a28.778484 28.778484 0 0 1-25.868399-28.634074 21.788444 21.788444 0 0 1 24.770006-21.588604 277.721345 277.721345 0 0 0 36.581014 3.063247c34.187305 0 61.772581-7.41306 61.772582-39.95788 0-30.884832-27.52547-39.110382-71.596855-39.110382l-0.526587-0.106484c-11.179396-1.094017-21.288114-10.489436-21.288114-21.725721l1.582678-2.47102a21.394598 21.394598 0 0 1 21.410644-21.396057c39.940376 0 65.476194-8.663157 65.476194-37.890917 0-25.945709-20.188262-33.358769-51.887043-33.358769a199.996536 199.996536 0 0 0-32.394575 3.619008 19.814838 19.814838 0 0 1-23.201915-19.483715 29.256934 29.256934 0 0 1 24.408251-28.851419 237.527157 237.527157 0 0 1 38.601299-3.888866z m-473.757538 4.128091a15.066803 15.066803 0 0 1 15.066803 15.066803v242.558177a30.270724 30.270724 0 0 1-60.535612 0V515.268923l-45.350656 8.81486a20.726519 20.726519 0 0 1-24.651852-20.354552 30.701037 30.701037 0 0 1 24.613926-30.088388l61.040319-12.324467z m209.930211-4.128091c63.015385 0 100.074849 26.365812 100.074849 81.133766 0 46.116467-46.43592 87.687658-111.598496 139.215863l-1.191749 1.108604a8.979692 8.979692 0 0 0 6.765401 14.9151h85.835123a26.774245 26.774245 0 1 1 0 53.533903H402.418872a15.066803 15.066803 0 0 1-15.066804-15.066803v-38.459806c0-32.258917 124.782131-113.665459 124.782131-146.194234 0-31.290348-18.53265-40.767453-49.833208-40.767453q-13.221561 0-40.243783 5.452581a20.065732 20.065732 0 0 1-23.999818-19.660216 30.269265 30.269265 0 0 1 25.041322-29.817072q30.757926-5.382564 50.728844-5.397151z" fill="currentColor" p-id="10915"></path><path d="M816.956536 272.61739c17.845607 0 32.315806 13.488501 32.315806 30.133607s-14.470199 30.137983-32.315806 30.137983H180.759339c-17.848524 0-32.312889-13.488501-32.312889-30.137983s14.465823-30.133607 32.312889-30.133607z" fill="currentColor" p-id="10916"></path></svg>