<svg t="1720142034106" class="icon" viewBox="0 0 1024 1024" version="1.1" xmlns="http://www.w3.org/2000/svg" p-id="3299" width="32" height="32"><path d="M416 96h192a32 32 0 0 1 0 64H465.92l29.312 64H672a32 32 0 0 1 0 64H524.544l29.312 64H736a32 32 0 0 1 0 64H583.232l29.312 64h171.456a32 32 0 0 1 0 64h-142.08l29.312 64h176.768a32 32 0 0 1 0 64h-147.456l29.312 64h182.144a32 32 0 0 1 0 64h-152.768l29.312 64H960a32 32 0 0 1 0 64h-191.296a32.128 32.128 0 0 1-30.208-19.584L630.144 672H201.856l-108.8 237.312a32 32 0 1 1-58.112-26.624L386.496 115.584A32 32 0 0 1 416 96z m0 108.8L231.232 608h369.6l-37.504-81.792a31.872 31.872 0 0 1-0.832-1.792L416 204.8z" fill="currentColor" p-id="3300"></path></svg>