<svg t="1720016552884" class="icon" viewBox="0 0 1024 1024" version="1.1" xmlns="http://www.w3.org/2000/svg" p-id="3738" width="32" height="32"><path d="M710.4 6.4l-704 704 307.2 307.2 704-704L710.4 6.4zM96 710.4l48.64-48.64 67.84 67.84 44.8-44.8-67.84-67.84 34.56-34.56 140.8 140.8 44.8-44.8-140.8-140.8 34.56-34.56 67.84 67.84 44.8-44.8-67.84-67.84 34.56-34.56 140.8 140.8 44.8-44.8-140.8-140.8L460.8 345.6l67.84 67.84 44.8-44.8-67.84-67.84 34.56-34.56 140.8 140.8 44.8-44.8-140.8-140.8 34.56-34.56 67.84 67.84 44.8-44.8-67.84-67.84 47.36-47.36 217.6 217.6-614.4 614.4L96 710.4z" fill="currentColor" p-id="3739"></path></svg>