<svg height="144" node-id="1" sillyvg="true" template-height="144" template-width="153" version="1.1" viewBox="0 0 153 144" width="153" xmlns="http://www.w3.org/2000/svg" xmlns:xlink="http://www.w3.org/1999/xlink"><defs node-id="36"><linearGradient gradientUnits="objectBoundingBox" id="linearGradient-1" node-id="5" spreadMethod="pad" x1="0.52044576" x2="0.52044576" y1="1" y2="-0.07865265"><stop offset="0" stop-color="#f3f4f6" stop-opacity="0"/><stop offset="1" stop-color="#e4e6e9"/></linearGradient><linearGradient gradientUnits="objectBoundingBox" id="linearGradient-2" node-id="8" spreadMethod="pad" x1="0.19146033" x2="0.6224153" y1="0.2516816" y2="0.8426095"><stop offset="0" stop-color="#ececec"/><stop offset="1" stop-color="#e4e6e9"/></linearGradient><linearGradient gradientUnits="objectBoundingBox" id="linearGradient-3" node-id="11" spreadMethod="pad" x1="0.6382356" x2="0.5" y1="0.23659867" y2="0.8125209"><stop offset="0" stop-color="#f3f3f3"/><stop offset="1" stop-color="#dcddde"/></linearGradient><linearGradient gradientUnits="objectBoundingBox" id="linearGradient-4" node-id="14" spreadMethod="pad" x1="0.5" x2="0.5" y1="0" y2="1"><stop offset="0" stop-color="#eeeeee"/><stop offset="1" stop-color="#d8d8d8"/></linearGradient></defs><g node-id="61"><g node-id="62"><path d="M 134.00 80.50 L 133.72 82.83 L 132.93 85.11 L 131.60 87.37 L 129.64 89.65 L 126.60 92.23 L 122.69 94.72 L 117.74 97.12 L 112.61 99.04 L 106.75 100.73 L 100.10 102.15 L 93.39 103.15 L 86.20 103.77 L 78.50 104.00 L 70.80 103.77 L 63.61 103.15 L 56.90 102.15 L 50.25 100.73 L 44.39 99.04 L 39.26 97.12 L 34.31 94.72 L 30.40 92.23 L 27.36 89.65 L 25.40 87.37 L 24.07 85.11 L 23.28 82.83 L 23.00 80.50 L 23.28 78.17 L 24.07 75.89 L 25.40 73.63 L 27.36 71.35 L 30.40 68.77 L 34.31 66.28 L 39.26 63.88 L 44.39 61.96 L 50.25 60.27 L 56.90 58.85 L 63.61 57.85 L 70.80 57.23 L 78.50 57.00 L 86.20 57.23 L 93.39 57.85 L 100.10 58.85 L 106.75 60.27 L 112.61 61.96 L 117.74 63.88 L 122.69 66.28 L 126.60 68.77 L 129.64 71.35 L 131.60 73.63 L 132.93 75.89 L 133.72 78.17 L 134.00 80.50 Z" fill="url(#linearGradient-1)" fill-rule="evenodd" group-id="1,2" id="椭圆形备份-13" node-id="20" stroke="none" target-height="47" target-width="111" target-x="23" target-y="57"/><g node-id="63"><path d="M 50.08 50.94 L 74.15 44.52 L 107.00 47.55 L 80.06 53.20 Z" fill="#d8d8d8" fill-rule="evenodd" group-id="1,2,3" id="路径-22" node-id="22" stroke="none" target-height="8.684261" target-width="56.91584" target-x="50.08416" target-y="44.5151"/><path d="M 50.08 63.34 L 50.63 79.54 L 80.06 85.61 L 80.06 53.20 L 50.08 50.94 Z" fill="url(#linearGradient-2)" fill-rule="evenodd" group-id="1,2,3" id="路径-25" node-id="23" stroke="none" target-height="34.669476" target-width="29.97889" target-x="50.08416" target-y="50.93836"/><path d="M 80.06 85.61 L 106.03 78.00 L 105.72 47.37 L 80.06 53.20" fill="url(#linearGradient-3)" fill-rule="evenodd" group-id="1,2,3" id="路径-26" node-id="24" stroke="none" target-height="38.23766" target-width="25.96347" target-x="80.06305" target-y="47.370174"/><path d="M 74.15 44.52 L 74.15 55.70 L 50.08 50.94 Z" fill="url(#linearGradient-4)" fill-rule="evenodd" group-id="1,2,3" id="路径-27" node-id="25" stroke="none" target-height="11.181122" target-width="24.06511" target-x="50.08416" target-y="44.5151"/><g node-id="64"><path d="M 53.29 27.56 L 57.17 33.69 L 60.58 38.17 L 63.60 41.31 L 66.27 43.38 L 68.65 44.61 L 70.82 45.16 L 72.84 45.13 L 74.81 44.56 L 76.47 43.56 L 77.28 42.64 L 77.54 41.74 L 77.39 40.78 L 76.90 39.87 L 75.99 38.98 L 74.28 38.03 L 72.24 37.56 L 70.84 37.60 L 69.55 37.99 L 68.34 38.76 L 67.43 39.83 L 66.75 41.46 L 66.37 43.84 L 66.69 45.15 L 67.34 46.27 L 68.35 47.24 L 70.26 48.37 L 72.70 49.30 L 77.99 50.59 L 82.85 51.66 L 84.78 52.36 L 85.85 53.09 L 87.75 54.98 L 88.71 56.44" fill="none" group-id="1,2,3,4" id="路径-3" node-id="26" stroke="#b9bbc0" stroke-dasharray="0.78422403 0.78422403" stroke-linecap="butt" stroke-width="0.784224" target-height="28.879478" target-width="35.41152" target-x="53.29424" target-y="27.56026"/></g><path d="M 80.06 53.20 L 89.23 68.82 L 114.60 59.36 L 105.72 47.37 Z" fill="#f6f7f8" fill-rule="evenodd" group-id="1,2,3" id="路径-24" node-id="27" stroke="none" target-height="21.449322" target-width="34.536613" target-x="80.06305" target-y="47.370174"/><path d="M 49.15 50.94 L 43.26 61.30 L 73.66 67.78 L 80.06 53.20 Z" fill="#f6f7f8" fill-rule="evenodd" group-id="1,2,3" id="路径-23" node-id="28" stroke="none" target-height="16.837917" target-width="36.80401" target-x="43.25904" target-y="50.93836"/><path d="M 47.00 13.64 L 52.48 18.50 L 74.00 12.00 Z" fill="#e4e6e9" fill-rule="evenodd" group-id="1,2,3,5" id="路径-8" node-id="30" stroke="none" target-height="6.5046616" target-width="27" target-x="47" target-y="12"/><path d="M 55.44 21.19 L 74.00 12.00 L 65.69 30.00 Z" fill="#e4e6e9" fill-rule="evenodd" group-id="1,2,3,5" id="路径-9" node-id="31" stroke="none" target-height="18" target-width="18.561348" target-x="55.438652" target-y="12"/><path d="M 52.48 18.50 L 52.03 25.98 L 55.52 21.17 L 74.00 12.00 Z" fill="#d7d8da" fill-rule="evenodd" group-id="1,2,3,5" id="路径-10" node-id="32" stroke="none" target-height="13.983555" target-width="21.965164" target-x="52.034836" target-y="12"/><path d="M 52.03 25.98 L 58.20 23.47 L 55.42 21.19 Z" fill="#dee0e4" fill-rule="evenodd" group-id="1,2,3,5" id="路径-11" node-id="33" stroke="none" target-height="4.7912064" target-width="6.1611404" target-x="52.034836" target-y="21.192348"/></g></g><path d="M 61.41 124.14 L 61.41 123.48 L 62.69 123.37 L 62.69 122.65 L 61.41 122.75 L 61.41 122.21 L 62.78 122.21 L 62.78 121.48 L 61.41 121.48 L 61.41 120.93 L 60.59 120.93 L 60.59 121.48 L 59.80 121.48 L 60.34 120.59 L 62.87 120.59 L 62.87 119.81 L 60.70 119.81 L 60.86 119.38 L 59.98 119.24 L 59.77 119.81 L 58.51 119.81 L 58.51 120.59 L 59.39 120.59 L 58.77 121.49 L 58.95 122.21 L 60.59 122.21 L 60.59 122.81 L 58.65 122.90 L 58.76 123.67 L 60.59 123.55 L 60.59 124.14 L 61.41 124.14 Z M 63.33 124.22 L 63.82 123.30 L 64.10 122.22 L 65.11 122.22 L 65.11 124.15 L 65.96 124.15 L 65.96 122.22 L 66.86 122.22 L 66.86 121.44 L 64.16 121.44 L 64.16 120.64 L 65.58 120.38 L 66.67 120.01 L 66.09 119.36 L 65.05 119.70 L 63.34 119.96 L 63.34 121.51 L 63.16 122.64 L 62.72 123.58 L 63.33 124.22 Z M 60.46 127.96 L 60.46 127.64 L 65.01 127.64 L 65.01 127.96 L 65.91 127.96 L 65.91 124.35 L 59.56 124.35 L 59.56 127.96 L 60.46 127.96 Z M 65.01 125.62 L 60.46 125.62 L 60.46 125.09 L 65.01 125.09 L 65.01 125.62 Z M 65.01 126.88 L 60.46 126.88 L 60.46 126.33 L 65.01 126.33 L 65.01 126.88 Z M 69.08 127.96 L 70.78 126.93 L 71.89 125.61 L 72.29 124.67 L 72.60 123.52 L 73.18 123.52 L 73.18 126.71 L 73.30 127.34 L 73.63 127.69 L 74.22 127.81 L 75.71 127.81 L 76.25 127.74 L 76.58 127.54 L 76.81 127.10 L 77.01 125.78 L 76.18 125.51 L 75.97 126.78 L 75.55 126.98 L 74.49 126.98 L 74.17 126.87 L 74.06 126.52 L 74.06 123.52 L 76.88 123.52 L 76.88 122.66 L 72.74 122.66 L 72.85 121.18 L 72.85 120.62 L 76.14 120.62 L 76.14 119.75 L 69.33 119.75 L 69.33 120.62 L 71.94 120.62 L 71.94 121.18 L 71.83 122.66 L 68.73 122.66 L 68.73 123.52 L 71.67 123.52 L 71.20 124.93 L 70.26 126.12 L 68.58 127.17 L 69.08 127.96 Z M 86.71 128.02 L 87.32 127.30 L 86.21 126.37 L 85.26 125.33 L 86.00 123.63 L 86.34 121.55 L 87.08 121.55 L 87.08 120.68 L 84.12 120.68 L 84.38 119.45 L 83.49 119.30 L 82.89 121.60 L 81.99 123.23 L 82.53 123.90 L 83.02 123.24 L 84.17 125.36 L 83.21 126.32 L 81.94 127.11 L 81.94 119.37 L 81.07 119.37 L 81.07 124.71 L 79.91 125.11 L 79.91 120.15 L 79.04 120.15 L 79.04 125.15 L 78.80 125.42 L 79.07 126.17 L 81.07 125.56 L 81.07 127.90 L 81.94 127.90 L 81.94 127.19 L 82.41 127.94 L 83.70 127.09 L 84.72 126.09 L 85.63 127.09 L 86.71 128.02 Z M 84.70 124.57 L 83.54 122.29 L 83.85 121.55 L 85.49 121.55 L 85.24 123.20 L 84.70 124.57 Z M 90.73 127.97 L 91.16 126.73 L 91.35 124.97 L 91.35 122.24 L 94.81 122.24 L 95.09 125.15 L 95.28 125.95 L 94.47 126.93 L 94.47 126.62 L 93.77 126.62 L 93.77 125.91 L 94.49 125.91 L 94.49 124.01 L 93.77 124.01 L 93.77 123.36 L 94.47 123.36 L 94.47 122.67 L 91.76 122.67 L 91.76 127.32 L 94.05 127.32 L 94.42 127.93 L 95.05 127.47 L 95.61 126.87 L 95.82 127.25 L 96.28 127.80 L 96.64 127.94 L 97.01 127.64 L 97.41 126.17 L 96.77 125.81 L 96.60 126.80 L 96.51 126.94 L 96.18 126.45 L 96.07 126.14 L 96.59 124.77 L 96.94 122.91 L 96.20 122.75 L 95.77 124.83 L 95.77 124.81 L 95.58 122.24 L 97.26 122.24 L 97.26 121.50 L 96.85 121.50 L 96.59 120.78 L 95.85 120.89 L 96.13 121.50 L 95.56 121.50 L 95.55 121.06 L 95.09 121.06 L 95.09 120.63 L 97.19 120.63 L 97.19 119.85 L 95.09 119.85 L 95.09 119.34 L 94.19 119.34 L 94.19 119.85 L 91.99 119.85 L 91.99 119.33 L 91.09 119.33 L 91.09 119.85 L 88.99 119.85 L 88.99 120.63 L 91.09 120.63 L 91.09 121.18 L 91.99 121.18 L 91.99 120.63 L 94.19 120.63 L 94.19 121.19 L 94.79 121.19 L 94.79 121.50 L 90.56 121.50 L 90.56 122.73 L 89.90 122.73 L 89.90 121.27 L 89.15 121.27 L 89.15 123.47 L 90.56 123.47 L 90.56 124.27 L 88.81 124.27 L 88.81 125.01 L 89.30 125.01 L 89.10 126.38 L 88.72 127.09 L 89.32 127.57 L 89.75 126.68 L 89.99 125.01 L 90.56 125.01 L 90.42 126.44 L 90.09 127.39 L 90.73 127.97 Z M 93.08 124.01 L 92.46 124.01 L 92.46 123.36 L 93.08 123.36 L 93.08 124.01 Z M 93.81 125.26 L 92.46 125.26 L 92.46 124.64 L 93.81 124.64 L 93.81 125.26 Z M 93.08 126.62 L 92.46 126.62 L 92.46 125.91 L 93.08 125.91 L 93.08 126.62 Z" fill="#b4b6ba" fill-rule="nonzero" group-id="1" hidden="true" id="暂无收藏" node-id="34" stroke="none" target-height="8.775818" target-width="38.89258" target-x="58.514587" target-y="119.24396" visibility="hidden"/></g></svg>