<svg t="1708341433635" class="icon" viewBox="0 0 1024 1024" version="1.1" xmlns="http://www.w3.org/2000/svg"
    p-id="44454" width="200" height="200">
    <path
        d="M778.66666667 102.4H260.26666667c-96 0-179.2 83.2-179.2 179.2V640c0 96 83.2 179.2 179.2 179.2h19.2s0 6.4 6.4 6.4l70.4 76.8c12.8 12.8 32 12.8 38.4 0l64-70.4 6.4-6.4h313.6c96 0 179.2-83.2 179.2-179.2V281.6c0-96-83.2-179.2-179.2-179.2zM273.06666667 531.2c-38.4 0-64-32-64-70.4 0-38.4 32-70.4 70.4-70.4 38.4 0 70.4 32 70.4 70.4-6.4 38.4-38.4 70.4-76.8 70.4z m243.2 0c-38.4 0-70.4-32-70.4-70.4 0-38.4 32-70.4 70.4-70.4 38.4 0 70.4 32 70.4 70.4 0 38.4-32 70.4-70.4 70.4z m249.6 0c-38.4 0-70.4-32-70.4-70.4 0-38.4 32-70.4 70.4-70.4 38.4 0 70.4 32 70.4 70.4-6.4 38.4-38.4 70.4-70.4 70.4z"
        fill="currentColor" p-id="44455"></path>
</svg>