<svg t="1708340727978" class="icon" viewBox="0 0 1024 1024" version="1.1" xmlns="http://www.w3.org/2000/svg"
    p-id="26128" width="200" height="200">
    <path
        d="M956.6 842.1c3.9 15.2 2.9 29.5-2.5 43.2-5.4 13.7-13.7 25.5-25 36.3-11.3 10.3-25.5 18.7-41.7 24.6-16.7 5.9-34.4 8.8-53 8.8-119.8 0.5-226.8 1-321.1 1H189.7c-22.6 0-42.7-3.9-60.4-12.3-17.2-8.3-31.4-18.2-41.7-30.4-10.3-12.3-17.7-25-21.1-39.3-3.4-14.2-2.9-27 1.5-38.3 3.9-8.8 7.4-18.2 11.3-27.5 2.9-8.3 6.9-17.7 11.3-28s9.3-21.1 14.2-31.9l36.3-87.4h108.5l-40.8 119.8h612.3L780.4 661H884c13.3 32.4 25.5 61.4 36.3 87.4 4.4 11.3 8.8 22.6 13.3 33.4 4.4 10.8 8.3 20.6 11.8 29 3.4 8.3 6.4 15.7 8.3 22.1 2 5.3 2.9 8.8 2.9 9.2z m0 0"
        fill="currentColor" p-id="26129"></path>
    <path
        d="M478.9 88c11.3-13.7 22.1-20.6 32.9-20.6 10.3 0.5 21.1 7.9 32.9 22.1 12.8 15.7 27 34.9 43.2 56.5 16.2 22.1 32.4 44.2 49.6 67.3 16.7 23.1 32.9 45.7 49.1 66.8 15.7 21.6 29.9 39.8 41.7 55 11.3 14.7 14.7 26.5 9.8 35.8-4.9 9.3-15.7 13.7-32.9 13.7-10.3 0-22.1 0.5-35.8 1-13.7 0.5-25 1-34.9 1-13.3-0.5-21.6 4.4-25.5 15.7-3.9 11.3-5.9 26-5.9 44.2v44.7c0 16.7 0 32.9-0.5 49.6-0.5 16.7-0.5 31.9-0.5 46.6v36.8c-0.5 21.6-4.4 37.3-11.8 47.1-7.4 9.8-21.6 14.7-42.2 14.7-14.7 0-27.5 0-38.3-0.5-11.3-0.5-23.1-0.5-36.8-0.5-11.3 0-20.6-2-27-5.9-6.9-3.9-11.8-8.3-15.2-14.2-3.4-5.9-5.9-12.3-6.9-19.2-1-6.9-1.5-13.7-1.5-20.1 0-14.7 0-30.4 0.5-47.6 0.5-17.2 0.5-34.4 0.5-52 0-17.7 0-34.9 0.5-51.6 0.5-16.7 0.5-31.9 0.5-46.2 0-12.8-1.5-22.6-4.9-30.4-2.9-7.4-11.3-11.3-23.6-11.3-11.3 0-25.5-0.5-42.7-1.5-17.2-1-30.9-1-40.8-0.5-18.2 0-29-5.4-32.4-16.7-2.9-11.3 2.5-25 17.2-42.2 12.8-15.7 27-34.4 43.2-56 16.2-21.6 32.4-43.2 49.1-65.8 16.7-22.1 32.4-43.7 48.1-64.8 15.3-20.1 29-37.3 41.3-51z m0 0"
        fill="currentColor" p-id="26130"></path>
</svg>