<svg t="1716710651696" class="icon" viewBox="0 0 1024 1024" version="1.1" xmlns="http://www.w3.org/2000/svg" p-id="15959" width="32" height="32"><path d="M1008.535135 710.670332l-70.446388 116.386904a112.099975 112.099975 0 0 1-140.572857 43.829042l-69.422645-17.083729c-5.502624 3.1992-11.133217 6.3984-16.763809 9.341665l-18.299425 62.896276C687.335435 981.514621 639.4754 1023.744064 582.657604 1023.744064H441.764828c-56.817796 0-104.677831-42.293427-110.308423-97.703574l-18.299425-62.896276a422.166458 422.166458 0 0 1-16.827793-9.341665l-69.614597 17.083729a112.163959 112.163959 0 0 1-140.508873-43.893026L15.631361 710.542364a107.493127 107.493127 0 0 1 32.43989-144.731817L96.251206 518.910272a410.649338 410.649338 0 0 1 0-14.204448l-48.179955-46.836291a107.365159 107.365159 0 0 1-32.375906-144.731817l70.190452-116.450888a112.099975 112.099975 0 0 1 140.572857-43.893026l69.550612 17.083729c5.566608-3.1992 11.133217-6.3984 16.827794-9.341665l18.299425-62.896276C336.831061 42.229443 384.691096 0 441.508892 0H582.529636c56.817796 0 104.677831 42.293427 110.372407 97.63959l18.235441 62.704324c5.75856 3.007248 11.325169 6.142464 16.827793 9.341665l69.678581-17.083729a112.163959 112.163959 0 0 1 140.508873 43.893026l70.446388 116.514872a107.493127 107.493127 0 0 1-32.375906 144.731817l-48.179955 46.772307a414.616346 414.616346 0 0 1 0 14.204448l48.243939 46.836291c47.092227 31.928018 62.192452 94.952262 32.247938 145.115721z m-213.066733-142.23644l3.391152-31.032242a246.210447 246.210447 0 0 0 0-51.699076l-3.263184-30.904274 93.992502-91.305173-53.554612-88.553862-131.615096 32.311922-23.546113-16.059985a294.134466 294.134466 0 0 0-48.627844-26.809297l-27.513121-11.901025L568.453156 127.968008H455.649356L419.370426 252.736816l-27.705074 11.965009c-16.635841 7.166208-32.951762 16.187953-48.499875 26.745313l-23.610097 15.996001-131.487128-32.247938-53.36266 88.489878 94.056486 91.433141-3.263184 30.968258a247.874031 247.874031 0 0 0 0 51.699076l3.1992 30.904274-93.928518 91.369157 53.554612 88.489878 131.551112-32.311922 23.610097 16.059985c15.292177 10.429393 31.544114 19.451137 48.563859 26.809297l27.577106 11.965009L455.905292 895.776056h112.611848l36.342914-124.768808 27.64109-11.965009c16.699825-7.166208 32.951762-16.187953 48.563859-26.745313l23.546113-15.996001 131.423144 32.247938 53.68258-88.745814-94.184454-91.369157zM512.147232 615.846038c57.329668 0 103.846038-46.516371 103.974006-103.974006 0-57.329668-46.644339-103.974006-103.974006-103.974007S408.173225 454.542364 408.173225 511.872032 454.817564 615.846038 512.147232 615.846038z m0 127.968008c-127.968008 0-231.942014-103.910022-231.942015-231.942014 0-127.968008 103.910022-231.942014 231.942015-231.942015 127.968008 0 231.942014 103.910022 231.942014 232.133967A232.133967 232.133967 0 0 1 512.147232 743.814046z" fill="currentColor" p-id="15960"></path></svg>