<svg t="1729440291971" class="icon" viewBox="0 0 1230 1024" version="1.1" xmlns="http://www.w3.org/2000/svg" p-id="3846" width="32" height="32"><path d="M879.992718 42.461694C855.810265 25.062756 828.52086 11.599292 800.14402 0c-44.688344 53.077118-110.866448 87.460733-185.640455 87.460733-74.82579 0-141.055676-34.383616-185.692238-87.460733C400.382705 11.651075 373.196865 25.062756 348.910847 42.461694L0 332.806473l205.990999 205.990999 52.559292-52.611075 0 402.143312c0 74.929355 49.607686 135.722073 110.762882 135.722073l490.795044 0c61.206979 0 110.762882-60.792718 110.762882-135.722073L970.8711 486.23818l52.611075 52.507509 205.939216-205.990999L879.992718 42.461694zM1023.171479 443.362225l-119.980177-119.928394 0 564.844096c0 39.044046-22.784324 68.249406-43.290215 68.249406L369.157826 956.527332c-20.505891 0-43.290215-29.20536-43.290215-68.249406L325.867611 323.330265 205.939216 443.362225 99.940329 337.363338l290.189431-241.410265c7.404905-5.230038 15.482984-10.097598 24.493148-14.965158 55.821593 47.432819 126.401214 73.945487 199.93244 73.945487s143.955499-26.512668 199.828875-73.945487c9.061947 4.86756 17.088243 9.73512 24.54493 14.965158l290.189431 241.410265L1023.171479 443.362225z" p-id="3847" fill="currentColor"></path></svg>