<svg t="1705787186586" class="icon" viewBox="0 0 1024 1024" version="1.1" xmlns="http://www.w3.org/2000/svg"
    p-id="12325" width="64" height="64">
    <path
        d="M896.3072 36.6592H128C57.4464 36.6592 0 95.3344 0 167.424v523.6736c0 72.0896 57.4464 130.7648 128 130.7648h251.2896L512 987.3408l132.4032-165.5808H896c70.5536 0 128-58.6752 128-130.7648V167.424c0.3072-72.0896-57.0368-130.7648-127.6928-130.7648zM219.5456 474.8288c-39.7312 0-71.8848-32.8704-71.8848-73.4208s32.256-73.4208 71.8848-73.4208 71.8848 32.8704 71.8848 73.4208-32.1536 73.4208-71.8848 73.4208z m293.2736 0c-40.448 0-73.216-32.8704-73.216-73.4208s32.8704-73.4208 73.216-73.4208 73.216 32.8704 73.216 73.4208-32.768 73.4208-73.216 73.4208z m291.84 0c-40.448 0-73.216-32.8704-73.216-73.4208s32.8704-73.4208 73.216-73.4208 73.216 32.8704 73.216 73.4208-32.768 73.4208-73.216 73.4208z m0 0"
        p-id="12326" fill="currentColor"></path>
</svg>