<svg t="1707306277099" class="icon" viewBox="0 0 1024 1024" version="1.1" xmlns="http://www.w3.org/2000/svg" p-id="3734"
    width="200" height="200">
    <path d="M512 512m-512 0a512 512 0 1 0 1024 0 512 512 0 1 0-1024 0Z" fill="#4CE0C7" p-id="3735"></path>
    <path
        d="M487.68 711.68c-21.76-8.96-34.56-29.44-37.12-51.2-6.4-10.24-11.52-23.04-11.52-37.12v-1.28c-5.12-15.36-5.12-32 0-47.36 1.28-57.6 6.4-115.2 37.12-167.68 6.4-11.52 15.36-19.2 24.32-24.32 14.08-38.4 52.48-60.16 93.44-53.76-42.24-35.84-96-57.6-154.88-57.6-131.84 0-240.64 107.52-240.64 240.64 0 52.48 17.92 104.96 49.92 145.92l-8.96 44.8c-1.28 8.96 1.28 17.92 8.96 24.32 6.4 6.4 16.64 7.68 25.6 5.12l42.24-14.08c38.4 21.76 80.64 34.56 124.16 34.56 25.6 0 49.92-3.84 72.96-11.52-12.8-6.4-20.48-17.92-25.6-29.44z"
        fill="#FFFFFF" opacity=".5" p-id="3736"></path>
    <path
        d="M556.8 243.2c-147.2 0-268.8 120.32-268.8 268.8 0 58.88 19.2 116.48 55.04 162.56l-10.24 49.92c-1.28 10.24 1.28 20.48 10.24 26.88 7.68 6.4 17.92 8.96 28.16 6.4l47.36-15.36c42.24 24.32 89.6 38.4 138.24 38.4 147.2 0 268.8-120.32 268.8-268.8-1.28-148.48-121.6-268.8-268.8-268.8z m81.92 348.16c-16.64 32-47.36 52.48-81.92 52.48h-2.56c-33.28 0-64-19.2-83.2-51.2-5.12-10.24-1.28-21.76 7.68-26.88 10.24-5.12 21.76-1.28 26.88 7.68 10.24 19.2 29.44 30.72 49.92 30.72s38.4-11.52 48.64-32c2.56-5.12 6.4-7.68 11.52-10.24 5.12-1.28 10.24-1.28 15.36 1.28 5.12 2.56 7.68 6.4 8.96 12.8 2.56 5.12 1.28 10.24-1.28 15.36z"
        fill="#FFFFFF" p-id="3737"></path>
</svg>