<svg t="1706010766601" class="icon" viewBox="0 0 1024 1024" version="1.1" xmlns="http://www.w3.org/2000/svg"
    p-id="18134" width="32" height="32">
    <path
        d="M829.482342 400.713163a81.778197 81.778197 0 0 0-47.703948 14.311185 91.318986 91.318986 0 0 0-86.548591-68.148497 96.770866 96.770866 0 0 0-50.429888 14.311184A89.956016 89.956016 0 0 0 511.22886 310.075662V96.770866A93.363441 93.363441 0 0 0 420.591359 0a95.407896 95.407896 0 0 0-94.044926 96.770866v490.66918l-57.926223-58.607708a96.089381 96.089381 0 0 0-132.889569 0 103.585716 103.585716 0 0 0-7.496335 143.793329l263.734684 272.593989a82.459682 82.459682 0 0 0 17.71861 13.629699 300.534873 300.534873 0 0 0 219.43816 63.378103c266.460624 0 290.994083-148.563724 290.994083-331.201697V497.484029a92.000471 92.000471 0 0 0-90.637501-96.770866z"
        fill="currentColor" p-id="18135"></path>
</svg>