<svg t="1707232058441" class="icon" viewBox="0 0 1024 1024" version="1.1" xmlns="http://www.w3.org/2000/svg" p-id="29014" width="200" height="200"><path d="M512 0c283.2 0 512 228.8 512 512S795.2 1024 512 1024 0 795.2 0 512 228.8 0 512 0z" fill="#FFBF00" p-id="29015"></path><path d="M300.288 431.952c0-86.4 72-155.2 160-155.2v43.2c-64 0-115.2 49.6-115.2 112v1.6h54.4l-75.2 72-75.2-72 51.2-1.6c0 1.6 0 0 0 0zM717.888 604.752c0 86.4-72 155.2-160 155.2v-43.2c64 0 115.2-49.6 115.2-112v-1.6h-54.4l75.2-72 75.2 72-51.2 1.6zM509.888 606.352c0-30.4-25.6-56-57.6-56h-144c-32 0-57.6 25.6-57.6 56v99.2c0 30.4 25.6 56 57.6 56h144c32 0 57.6-25.6 57.6-56v-99.2z m-51.2 91.2c0 8-6.4 14.4-14.4 14.4h-129.6c-8 0-14.4-6.4-14.4-14.4v-84.8c0-8 6.4-14.4 14.4-14.4h129.6c8 0 14.4 6.4 14.4 14.4v84.8zM765.888 332.752c0-30.4-25.6-56-57.6-56h-144c-32 0-57.6 25.6-57.6 56v99.2c0 30.4 25.6 56 57.6 56h144c32 0 57.6-25.6 57.6-56v-99.2z m-49.6 91.2c0 8-6.4 14.4-14.4 14.4h-129.6c-8 0-14.4-6.4-14.4-14.4v-83.2c0-8 6.4-14.4 14.4-14.4h129.6c8 0 14.4 6.4 14.4 14.4v83.2z" fill="#FFFFFF" p-id="29016"></path></svg>