<svg t="1729472693221" class="icon" viewBox="0 0 1024 1024" version="1.1" xmlns="http://www.w3.org/2000/svg" p-id="3207" width="32" height="32"><path d="M937.691429 343.04L543.963429 152.649143A76.068571 76.068571 0 0 0 512 146.285714c-11.556571 0-23.186286 2.194286-31.963429 6.363429L86.308571 343.04c-17.554286 8.484571-17.554286 22.381714 0 30.866286l393.728 190.390857c8.777143 4.242286 20.406857 6.363429 31.963429 6.363428 11.556571 0 23.186286-2.194286 31.963429-6.363428l393.728-190.390857c17.554286-8.484571 17.554286-22.381714 0-30.866286z m-421.741715 153.6a22.528 22.528 0 0 1-7.899428 0L222.354286 358.4l285.696-138.093714a26.989714 26.989714 0 0 1 7.899428 0L801.645714 358.4 515.949714 496.566857z" p-id="3208"></path><path d="M887.222857 545.133714L512 687.981714 136.777143 545.133714a34.742857 34.742857 0 0 0-45.056 22.016 37.302857 37.302857 0 0 0 21.065143 47.250286L512 766.537143l399.286857-152.137143a37.302857 37.302857 0 0 0 21.065143-47.250286 34.742857 34.742857 0 0 0-45.129143-22.016z" p-id="3209"></path><path d="M887.222857 729.453714L512 872.374857 136.777143 729.453714a34.742857 34.742857 0 0 0-45.056 22.089143 37.302857 37.302857 0 0 0 21.065143 47.250286L512 950.857143l399.286857-152.137143a37.302857 37.302857 0 0 0 21.065143-47.250286 34.742857 34.742857 0 0 0-45.129143-21.942857z" p-id="3210"></path></svg>