<svg t="1707813372889" class="icon" viewBox="0 0 1024 1024" version="1.1" xmlns="http://www.w3.org/2000/svg"
    p-id="15933" width="200" height="200">
    <path d="M512 0A512 512 0 1 1 0 512 512 512 0 0 1 512 0z" fill="#FF4E7A" opacity=".08" p-id="15934"></path>
    <path
        d="M624.0256 290.167467c-55.330133 0-94.958933 49.851733-112.042667 76.219733-17.066667-26.368-56.712533-76.219733-112.042666-76.219733-79.394133 0-143.957333 71.543467-143.957334 159.470933a205.943467 205.943467 0 0 0 61.7472 130.901333c46.830933 60.16 178.4832 168.482133 194.730667 168.482134 16.5376 0 145.373867-106.205867 193.041067-167.765334a206.728533 206.728533 0 0 0 62.464-131.6352c0-87.927467-64.580267-159.470933-143.957334-159.470933"
        fill="#FF4E7A" p-id="15935"></path>
</svg>