<svg t="1707813678449" class="icon" viewBox="0 0 1024 1024" version="1.1" xmlns="http://www.w3.org/2000/svg"
    p-id="31265" width="200" height="200">
    <path d="M512 512m-512 0a512 512 0 1 0 1024 0 512 512 0 1 0-1024 0Z" fill="#5786FF" p-id="31266"></path>
    <path
        d="M470.830545 533.573818a138.309818 138.309818 0 0 0-138.775272 137.541818v8.168728c0 39.563636 61.253818 39.563636 138.775272 39.563636h82.315637c74.472727 0 138.775273 0 138.775273-39.563636v-8.168728a138.333091 138.333091 0 0 0-138.775273-137.541818h-82.338909z m37.050182-10.519273a109.568 109.568 0 0 0 109.917091-109.009454 109.917091 109.917091 0 0 0-219.834182 0 109.591273 109.591273 0 0 0 109.940364 109.009454z"
        fill="#FFFFFF" p-id="31267"></path>
</svg>