<svg t="1707644284649" class="icon" viewBox="0 0 1024 1024" version="1.1" xmlns="http://www.w3.org/2000/svg" p-id="26994" width="200" height="200"><path d="M64.2 511.2c0 247.5 200.4 448.2 447.6 448.2s447.6-200.7 447.6-448.2C959.3 263.6 759 63 511.8 63S64.2 263.6 64.2 511.2z" fill="#FF9E39" p-id="26995"></path><path d="M573.5 257.6c51.1 0 92.6 41.6 92.6 92.7S624.6 443 573.5 443c-1.3 0-2.5-0.3-3.8-0.4 2.5-9.8 3.8-20 3.8-30.5 0-51.5-31.6-95.6-76.3-114.2 16.7-24.3 44.7-40.3 76.3-40.3z" fill="#FFFFFF" p-id="26996"></path><path d="M357.4 412.1a92.6 92.7 0 1 0 185.2 0 92.6 92.7 0 1 0-185.2 0Z" fill="#FFFFFF" p-id="26997"></path><path d="M635.3 659.5c0 17.1-13.8 30.9-30.9 30.9H295.7c-17 0-30.9-13.8-30.9-34.7V613c0-4.5 2-8.7 5.4-11.6 104.2-87.6 255.5-87.6 359.7 0 3.4 2.9 5.4 7.1 5.4 16.2v41.9z" fill="#FFFFFF" p-id="26998"></path><path d="M758.7 597.6c0 17.1-13.8 30.9-30.9 30.9h-61.7V613c0-13.1-5.3-26-15.3-34.5-38.7-32.9-83.4-54.5-130.1-65.4 14.4-10.2 26.4-23.4 35.4-38.6 69.5-4.3 140.3 17.2 197.1 64.9 3.4 2.9 5.4 7.3 5.4 11.7v46.5h0.1z" fill="#FFFFFF" p-id="26999"></path></svg>