<svg t="1707644099079" class="icon" viewBox="0 0 1024 1024" version="1.1" xmlns="http://www.w3.org/2000/svg" p-id="14592" width="200" height="200"><path d="M512 0c282.713043 0 512 229.286957 512 512S794.713043 1024 512 1024 0 794.713043 0 512 229.286957 0 512 0z" fill="#4598F0" p-id="14593"></path><path d="M645.565217 779.130435c-20.034783 0-37.843478-4.452174-55.652174-11.130435-11.130435-4.452174-17.808696-17.808696-13.356521-28.93913 4.452174-11.130435 17.808696-17.808696 28.93913-13.356522 31.165217 13.356522 69.008696 8.904348 97.947826-8.904348 4.452174-2.226087 11.130435-4.452174 15.582609-2.226087l20.034783 4.452174-4.452174-20.034783c0-6.678261 0-11.130435 2.226087-15.582608 11.130435-17.808696 17.808696-37.843478 17.808695-60.104348 0-24.486957-8.904348-46.747826-22.260869-66.782609-6.678261-8.904348-4.452174-24.486957 4.452174-31.165217 8.904348-6.678261 24.486957-4.452174 31.165217 4.452174 22.26087 26.713043 33.391304 60.104348 33.391304 93.495652 0 26.713043-6.678261 51.2-20.034782 75.686956l6.678261 28.939131c2.226087 8.904348 0 17.808696-4.452174 24.486956-4.452174 6.678261-13.356522 13.356522-22.26087 13.356522h-13.356522l-28.93913-6.678261c-22.26087 13.356522-46.747826 20.034783-73.46087 20.034783z m97.947826-44.521739z m13.356522-13.356522zM467.478261 734.608696c-42.295652 0-84.591304-11.130435-122.434783-33.391305l-62.330435 13.356522h-13.356521c-17.808696-4.452174-28.93913-22.26087-26.713044-40.069565l13.356522-62.330435c-22.26087-37.843478-33.391304-80.13913-33.391304-122.434783 0-135.791304 109.078261-244.869565 244.869565-244.869565s244.869565 109.078261 244.869565 244.869565-109.078261 244.869565-244.869565 244.869566z m-117.982609-77.913044c4.452174 0 8.904348 2.226087 11.130435 4.452174 31.165217 20.034783 69.008696 31.165217 106.852174 31.165217 111.304348 0 200.347826-89.043478 200.347826-200.347826s-89.043478-200.347826-200.347826-200.347826-200.347826 89.043478-200.347826 200.347826c0 37.843478 11.130435 73.46087 31.165217 106.852174 2.226087 4.452174 4.452174 11.130435 2.226087 15.582609L289.391304 667.826087l55.652174-11.130435h4.452174z" fill="#FFFFFF" p-id="14594"></path><path d="M360.626087 518.678261c13.356522 0 26.713043-11.130435 26.713043-26.713044 0-13.356522-11.130435-26.713043-26.713043-26.713043-13.356522 0-26.713043 11.130435-26.713044 26.713043s11.130435 26.713043 26.713044 26.713044zM471.930435 518.678261c13.356522 0 26.713043-11.130435 26.713043-26.713044 0-13.356522-11.130435-26.713043-26.713043-26.713043-13.356522 0-26.713043 11.130435-26.713044 26.713043s11.130435 26.713043 26.713044 26.713044zM583.234783 518.678261c13.356522 0 26.713043-11.130435 26.713043-26.713044 0-13.356522-11.130435-26.713043-26.713043-26.713043-13.356522 0-26.713043 11.130435-26.713044 26.713043s11.130435 26.713043 26.713044 26.713044z" fill="#FFFFFF" p-id="14595"></path></svg>