<svg t="1707188334467" class="icon" viewBox="0 0 1024 1024" version="1.1" xmlns="http://www.w3.org/2000/svg" p-id="5833"
    width="200" height="200">
    <path d="M302.545455 418.909091m-46.545455 0a2 2 0 1 0 93.090909 0 2 2 0 1 0-93.090909 0Z" p-id="5834"
        fill="currentColor"></path>
    <path d="M721.454545 418.909091m-46.545455 0a2 2 0 1 0 93.090909 0 2 2 0 1 0-93.090909 0Z" p-id="5835"
        fill="currentColor"></path>
    <path
        d="M79.127273 1003.054545c-20.945455 0-44.218182-11.636364-51.2-32.581818l-2.327273-4.654545c0-2.327273-2.327273-6.981818-2.327273-13.963636L23.272727 181.527273C23.272727 107.054545 83.781818 46.545455 158.254545 46.545455L861.090909 46.545455c74.472727 0 137.309091 58.181818 139.636364 134.981818L1000.727273 744.727273c-2.327273 76.8-62.836364 137.309091-139.636364 139.636364l0 0L242.036364 884.363636l-139.636364 114.036364C95.418182 1003.054545 86.109091 1003.054545 79.127273 1003.054545zM69.818182 954.181818c2.327273 2.327273 2.327273 2.327273 4.654545 2.327273 2.327273 0 4.654545 0 6.981818 0L223.418182 837.818182 861.090909 837.818182c51.2-2.327273 90.763636-44.218182 93.090909-93.090909l0-563.2C951.854545 132.654545 912.290909 93.090909 861.090909 93.090909L158.254545 93.090909C109.381818 93.090909 69.818182 132.654545 69.818182 181.527273l0 768C69.818182 951.854545 69.818182 951.854545 69.818182 954.181818z"
        p-id="5836" fill="currentColor"></path>
    <path
        d="M512 605.090909c-51.2 0-93.090909-41.890909-93.090909-93.090909 0-13.963636 9.309091-23.272727 23.272727-23.272727s23.272727 9.309091 23.272727 23.272727c0 25.6 20.945455 46.545455 46.545455 46.545455 25.6 0 46.545455-20.945455 46.545455-46.545455 0-13.963636 9.309091-23.272727 23.272727-23.272727s23.272727 9.309091 23.272727 23.272727C605.090909 563.2 563.2 605.090909 512 605.090909z"
        p-id="5837" fill="currentColor"></path>
</svg>