<svg t="1706595214820" class="icon" viewBox="0 0 1024 1024" version="1.1" xmlns="http://www.w3.org/2000/svg" p-id="25556" width="32" height="32"><path d="M128 490.656l768 0 0 42.656-768 0 0-42.656zM853.344 789.344c0 35.36-28.64 64-64 64l-192 0 0 42.656 213.344 0c47.136 0 85.344-38.208 85.344-85.344l0-213.344-42.656 0 0 192zM128 213.344l0 213.344 42.656 0 0-192c0-35.36 28.64-64 64-64l192 0 0-42.656-213.344 0c-47.136 0-85.344 38.208-85.344 85.344l0 0zM810.656 128l-213.344 0 0 42.656 192 0c35.36 0 64 28.64 64 64l0 192 42.656 0 0-213.344c0-47.136-38.208-85.344-85.344-85.344l0 0zM170.656 789.344l0-192-42.656 0 0 213.344c0 47.136 38.208 85.344 85.344 85.344l213.344 0 0-42.656-192 0c-35.36 0-64-28.64-64-64l0 0z" fill="currentColor" p-id="25557"></path></svg>