<svg t="1706141302180" class="icon" viewBox="0 0 1024 1024" version="1.1" xmlns="http://www.w3.org/2000/svg"
  p-id="15702" width="32" height="32">
  <path
    d="M96 149.333333c0-29.44 23.893333-53.333333 53.333333-53.333333H341.333333a32 32 0 0 1 0 64H160V320a32 32 0 0 1-64 0v-170.666667z m234.666667 336a154.666667 154.666667 0 1 1 309.333333 0 154.666667 154.666667 0 0 1-309.333333 0z m154.666666-218.666666a218.666667 218.666667 0 1 0 130.346667 394.24l87.04 87.04a32 32 0 1 0 45.226667-45.226667l-87.04-87.04a218.666667 218.666667 0 0 0-175.616-349.013333zM928 320v-170.666667c0-29.44-23.893333-53.333333-53.333333-53.333333h-170.666667a32 32 0 0 0 0 64h160V320a32 32 0 0 0 64 0zM874.666667 928h-170.666667a32 32 0 0 1 0-64h160V704a32 32 0 0 1 64 0v170.666667c0 29.44-23.893333 53.333333-53.333333 53.333333zM96 704v170.666667c0 29.44 23.893333 53.333333 53.333333 53.333333h170.666667a32 32 0 0 0 0-64H160V704a32 32 0 0 0-64 0z"
    fill="currentColor" p-id="15703"></path>
</svg>