<svg t="1705790218866" class="icon" viewBox="0 0 1123 1024" version="1.1" xmlns="http://www.w3.org/2000/svg"
    p-id="73175" width="64" height="64">
    <path
        d="M376.732903 811.338323a108.180645 108.180645 0 0 1 75.082323 30.158451c9.843613 9.480258 17.441032 20.645161 22.759226 33.560774 5.285161 12.882581 7.927742 26.524903 7.927742 40.96 0 14.369032-2.642581 28.044387-7.927742 40.926968-5.285161 12.882581-12.882581 24.080516-22.759226 33.560774a116.802065 116.802065 0 0 1-34.122323 22.759226c-12.882581 5.681548-26.557935 8.522323-40.96 8.522323-15.161806 0-29.002323-2.840774-41.521548-8.522323a119.246452 119.246452 0 0 1-33.560774-22.792258 97.511226 97.511226 0 0 1-22.726194-33.527742 106.496 106.496 0 0 1-7.960774-40.96c0-14.402065 2.642581-28.077419 7.927742-40.96 5.318194-12.882581 12.882581-24.047484 22.792258-33.527742 9.843613-9.480258 21.008516-16.879484 33.527742-22.197677 12.519226-5.285161 26.359742-7.927742 41.521548-7.927742z m473.220129 2.279225c14.402065 0 28.242581 2.642581 41.521549 7.960775 13.278968 5.285161 24.642065 12.717419 34.122322 22.197677 9.480258 9.447226 17.077677 20.645161 22.759226 33.527742 5.681548 12.882581 8.522323 26.557935 8.522323 40.96 0 14.402065-2.840774 28.077419-8.522323 40.96a109.336774 109.336774 0 0 1-22.759226 33.560774 107.586065 107.586065 0 0 1-34.122322 22.759226 104.348903 104.348903 0 0 1-82.481549 0 109.336774 109.336774 0 0 1-33.560774-22.792258 109.336774 109.336774 0 0 1-22.726193-33.527742 100.352 100.352 0 0 1-8.555355-40.96c0-14.402065 2.840774-28.077419 8.555355-40.96a109.336774 109.336774 0 0 1 22.726193-33.527742c9.480258-9.480258 20.678194-16.879484 33.560774-22.197677 12.882581-5.285161 26.557935-7.960774 40.96-7.960775z m191.091613-646.110967c21.239742 0 37.755871 2.840774 49.515355 8.522322 11.726452 5.681548 20.083613 12.684387 25.005419 21.041549 4.954839 8.357161 7.201032 17.242839 6.837678 26.756129a89.054968 89.054968 0 0 1-3.963871 24.443871l-14.236903 42.083096a4421.037419 4421.037419 0 0 1-24.443871 69.962323c-9.116903 25.401806-18.035613 50.605419-26.756129 75.643871a2248.340645 2248.340645 0 0 0-19.918452 59.127742c-9.843613 30.356645-22.362839 51.398194-37.524645 63.157677-15.194839 11.759484-33.758968 17.639226-55.72542 17.639226h-597.223225l17.077677 102.366968h573.307871c36.401548 0 54.602323 15.525161 54.602323 46.641548 0 15.161806-3.633548 28.242581-10.801549 39.242323-7.201032 10.999742-21.437935 16.516129-42.677677 16.516129H338.052129c-15.161806 0-27.846194-3.435355-38.086194-10.24a86.346323 86.346323 0 0 1-25.6-26.756129 162.485677 162.485677 0 0 1-16.516129-35.84 327.448774 327.448774 0 0 1-9.645419-36.401549c-0.759742-4.525419-2.840774-15.525161-6.276129-32.966193a9824.784516 9824.784516 0 0 1-12.486193-65.403871l-16.51613-87.601548c-6.044903-32.239484-12.122839-64.644129-18.167741-97.28-14.435097-76.568774-30.72-161.891097-48.953807-255.933936H60.515097c-11.396129 0-20.876387-2.840774-28.440774-8.522323a74.256516 74.256516 0 0 1-18.795355-20.48c-4.921806-7.960774-8.324129-16.516129-10.24-25.6a123.474581 123.474581 0 0 1-2.840774-25.038451c0-15.161806 5.12-27.681032 15.36-37.524645 10.24-9.843613 24.113548-14.798452 41.521548-14.798452H171.965935c15.194839 0 27.317677 2.312258 36.401549 6.837677 9.116903 4.558452 16.317935 10.24 21.636129 17.077678 5.285161 6.804645 9.083871 14.005677 11.363097 21.603097 2.279226 7.597419 4.162065 14.03871 5.681548 19.323871 1.519484 6.077935 3.038968 14.600258 4.558452 25.6l4.558451 33.560774c2.279226 13.642323 4.558452 28.077419 6.804645 43.239226h778.074839z"
        fill="currentColor" p-id="73176"></path>
</svg>