<svg t="1707230852732" class="icon" viewBox="0 0 1024 1024" version="1.1" xmlns="http://www.w3.org/2000/svg"
    p-id="10209" width="200" height="200">
    <path d="M512 512m-512 0a512 512 0 1 0 1024 0 512 512 0 1 0-1024 0Z" fill="#50BEFF" p-id="10210"></path>
    <path
        d="M420.542512 411.37414a41.638698 41.638698 0 0 1-25.873861 9.001674H273.860465a5.953488 5.953488 0 0 0-5.953488 5.953488v189.570977a5.953488 5.953488 0 0 0 5.953488 5.953488h49.842605a17.860465 17.860465 0 0 1 0 35.720931H273.860465a41.674419 41.674419 0 0 1-41.674418-41.674419v-189.55907a41.674419 41.674419 0 0 1 41.674418-41.674418h120.808186a5.917767 5.917767 0 0 0 3.691163-1.285954l170.960372-135.429953c11.704558-9.275535 28.94586-0.940651 28.945861 14.002604v509.154233c0 14.955163-17.277023 23.290047-28.981582 13.978791L404.110884 653.70493a17.860465 17.860465 0 0 1 22.242232-27.957581l136.203907 108.329674V298.88893l-142.014511 112.48521zM677.387907 533.480186a17.860465 17.860465 0 0 1 0-35.72093h93.957953a17.860465 17.860465 0 0 1 0 35.72093H677.387907zM691.878698 442.403721a17.860465 17.860465 0 1 1-25.254698-25.254698l66.44093-66.44093a17.860465 17.860465 0 1 1 25.254698 25.254698l-66.44093 66.44093zM691.878698 680.543256a17.860465 17.860465 0 1 1-25.254698-25.254698l66.44093-66.44093a17.860465 17.860465 0 1 1 25.254698 25.254698l-66.44093 66.44093z"
        fill="#FFFFFF" p-id="10211"></path>
</svg>