<svg t="1707145694026" class="icon" viewBox="0 0 1024 1024" version="1.1" xmlns="http://www.w3.org/2000/svg" p-id="7937"
    width="200" height="200">
    <path
        d="M511.943111 0a512 512 0 1 1 0 1024A512 512 0 0 1 0 512a512 512 0 0 1 511.943111-512zM512 142.222222a56.888889 56.888889 0 0 0-56.888889 56.888889V512c0 16.725333 7.224889 31.857778 18.773333 42.211556a55.694222 55.694222 0 0 0 13.425778 10.808888l197.063111 113.777778a56.888889 56.888889 0 0 0 56.888889-98.531555L568.888889 480.711111V199.111111a56.888889 56.888889 0 0 0-50.232889-56.490667z"
        p-id="7938" fill="currentColor"></path>
</svg>