<svg t="1707877003521" class="icon" viewBox="0 0 1024 1024" version="1.1" xmlns="http://www.w3.org/2000/svg"
    p-id="14252" width="200" height="200">
    <path d="M512 512m-512 0a512 512 0 1 0 1024 0 512 512 0 1 0-1024 0Z" fill="#FFD740" p-id="14253"></path>
    <path
        d="M260.189091 478.254545c-4.421818 6.283636-8.145455 12.101818-11.403636 17.687273a58.88 58.88 0 0 0-11.17091 30.021818v113.105455A35.607273 35.607273 0 0 0 273.221818 674.909091h19.781818a67.956364 67.956364 0 0 0 133.12 0h8.843637a34.443636 34.443636 0 0 0 21.643636-7.447273 34.909091 34.909091 0 0 0 21.643636 7.447273h95.185455a67.956364 67.956364 0 0 0 133.12 0h41.425455a35.84 35.84 0 0 0 35.607272-35.84v-279.272727a35.607273 35.607273 0 0 0-35.607272-35.607273H478.254545A35.607273 35.607273 0 0 0 442.181818 358.632727v40.727273a26.065455 26.065455 0 0 0-7.447273 0h-91.461818c-5.818182 0-14.429091 2.327273-31.650909 18.618182a356.538182 356.538182 0 0 0-24.669091 26.298182l-6.516363 7.68v1.163636c-6.981818 8.610909-13.730909 17.687273-19.549091 26.065455z"
        fill="#FABF40" p-id="14254"></path>
    <path
        d="M260.189091 478.254545c-4.421818 6.283636-8.145455 12.101818-11.403636 17.687273a58.88 58.88 0 0 0-11.17091 30.021818v113.105455A35.607273 35.607273 0 0 0 273.221818 674.909091h19.781818a67.956364 67.956364 0 0 0 133.12 0h8.843637a34.443636 34.443636 0 0 0 21.643636-7.447273 34.909091 34.909091 0 0 0 21.643636 7.447273h95.185455a67.956364 67.956364 0 0 0 133.12 0h41.425455a35.84 35.84 0 0 0 35.607272-35.84v-279.272727a35.607273 35.607273 0 0 0-35.607272-35.607273H478.254545A35.607273 35.607273 0 0 0 442.181818 358.632727v40.727273a26.065455 26.065455 0 0 0-7.447273 0h-91.461818c-5.818182 0-14.429091 2.327273-31.650909 18.618182a356.538182 356.538182 0 0 0-24.669091 26.298182l-6.516363 7.68v1.163636c-6.981818 8.610909-13.730909 17.687273-19.549091 26.065455zM640 700.509091a39.796364 39.796364 0 1 1 39.796364-39.796364 40.029091 40.029091 0 0 1-39.796364 39.796364z m-169.192727-266.24v-75.636364a7.447273 7.447273 0 0 1 7.447272-7.447272h269.73091a7.447273 7.447273 0 0 1 7.447272 7.447272v280.436364a7.447273 7.447273 0 0 1-7.447272 7.68h-41.425455a67.490909 67.490909 0 0 0-64.465455-53.992727h-4.18909a67.723636 67.723636 0 0 0-64.465455 53.992727h-95.185455a7.447273 7.447273 0 0 1-7.447272-7.68v-204.8zM359.563636 700.509091a39.796364 39.796364 0 1 1 39.796364-39.796364 39.563636 39.563636 0 0 1-39.796364 39.796364z m-93.090909-61.44V556.218182h104.727273a35.84 35.84 0 0 0 35.607273-35.84v-43.054546A35.607273 35.607273 0 0 0 370.269091 442.181818H325.818182l2.094545-2.094545a71.447273 71.447273 0 0 1 15.825455-13.032728h90.298182a7.447273 7.447273 0 0 1 7.447272 7.68v204.8a7.447273 7.447273 0 0 1-7.447272 7.447273h-8.843637a69.818182 69.818182 0 0 0-60.974545-53.76h-10.705455a67.956364 67.956364 0 0 0-61.44 53.76h-19.781818a7.447273 7.447273 0 0 1-7.447273-7.68z m0-111.010909v-2.094546a58.414545 58.414545 0 0 1 9.076364-18.850909l1.861818-3.025454-3.956364-2.327273 4.189091 2.327273-1.861818-1.163637h1.861818c4.189091-6.516364 9.309091-13.963636 14.894546-21.410909l10.007273-12.567272h68.421818a7.447273 7.447273 0 0 1 7.447272 7.447272v43.054546a7.447273 7.447273 0 0 1-7.447272 7.68z"
        fill="#fff" p-id="14255"></path>
</svg>