<svg t="1707568278400" class="icon" viewBox="0 0 1024 1024" version="1.1" xmlns="http://www.w3.org/2000/svg"
    p-id="13932" width="200" height="200">
    <path d="M507.904 525.824m-460.8 0a460.8 460.8 0 1 0 921.6 0 460.8 460.8 0 1 0-921.6 0Z" fill="#2593FC"
        p-id="13933"></path>
    <path
        d="M439.296 702.976c0 28.16-23.04 51.2-51.2 51.2s-51.2-23.04-51.2-51.2 23.04-51.2 51.2-51.2c28.16-0.512 51.2 22.528 51.2 51.2z m287.744 0c0 28.16-23.04 51.2-51.2 51.2s-51.2-23.04-51.2-51.2 23.04-51.2 51.2-51.2c28.16-0.512 51.2 22.528 51.2 51.2z m45.568-175.104l-46.08-81.92c-9.216-11.264-15.872-20.48-30.72-20.48h-72.192V363.52c0-11.264-9.216-20.48-20.48-20.48H274.432c-11.264 0-20.48 9.216-20.48 20.48v308.224c0 11.264 9.216 20.48 20.48 20.48h40.96c5.12-35.328 35.328-62.976 72.192-62.976s67.072 27.648 72.192 62.976h143.872c5.12-35.328 35.328-62.976 72.192-62.976 36.864 0 67.072 27.648 72.192 62.976h20.48c11.264 0 20.48-9.216 20.48-20.48v-102.912c-0.512-18.944-16.384-40.96-16.384-40.96z m-128 41.472V466.432h50.176c3.072 0 7.68 4.608 7.68 4.608l43.52 80.384c3.584 5.632 8.192 12.288 8.192 17.408l-109.568 0.512z"
        fill="#F2F2F2" p-id="13934"></path>
</svg>