<svg xmlns="http://www.w3.org/2000/svg" xmlns:xlink="http://www.w3.org/1999/xlink" version="1.1" id="Layer_1" x="0px" y="0px" width="100%" viewBox="0 0 624 624" enable-background="new 0 0 624 624" xml:space="preserve">
<path fill="#6900ff" opacity="1.000000" stroke="none" d=" M625.000000,418.531342   C624.424194,420.366791 623.731689,421.697021 623.289673,423.105774   C612.657471,456.990662 590.364563,478.238159 555.020264,483.830261   C536.949646,486.689362 519.657654,481.880249 503.539398,473.214722   C479.655731,460.374298 462.198181,441.051788 448.130798,418.324188   C439.695129,404.695343 432.531921,390.428131 427.067169,375.338379   C426.531799,373.860016 425.242981,372.416016 426.964844,370.157196   C430.481995,373.042084 432.707855,376.925232 435.316284,380.385529   C453.561218,404.589203 473.678680,426.913727 499.596344,443.184052   C512.450684,451.253662 526.379028,456.887268 541.943848,456.001160   C561.897888,454.865204 577.275330,445.541595 586.679260,427.876709   C592.710999,416.546234 590.547729,404.511810 586.254761,393.010986   C578.253540,371.575439 563.447815,354.888641 547.721497,338.922424   C543.399780,334.534760 538.903809,330.299164 534.259399,326.256104   C531.403381,323.769867 531.927307,322.034698 534.500061,319.869812   C549.227478,307.477142 562.208130,293.451141 573.355347,277.757172   C582.145630,265.381531 589.107971,251.947144 590.228088,236.706329   C591.255310,222.729568 584.804932,211.350266 573.757385,202.669159   C553.926147,187.085922 532.744507,187.166855 510.878845,197.501480   C484.811279,209.822128 465.040070,229.727844 446.796967,251.415787   C440.894196,258.433228 435.371063,265.730225 430.062561,273.200012   C429.065613,274.602844 428.306152,276.457916 425.806946,276.380249   C425.013794,273.089691 427.283630,270.833923 428.271393,268.389130   C439.535461,240.510132 454.003693,214.612381 476.007324,193.594910   C492.272461,178.058731 511.123108,166.908676 533.519592,163.421860   C555.739075,159.962601 576.196960,165.154770 593.988708,179.378021   C610.209473,192.345337 620.566101,208.936768 624.811157,229.686584   C625.000000,237.687576 625.000000,245.375168 624.822388,253.862671   C622.580261,264.058899 620.216125,273.347717 616.162720,282.146515   C610.007812,295.506561 602.159302,307.785950 592.826233,319.115356   C590.475342,321.969177 590.012756,324.048523 592.720154,327.240082   C602.650940,338.946777 610.553345,351.974152 617.041016,365.911896   C620.791138,373.968689 622.073486,382.727722 625.000000,391.000000   C625.000000,400.020905 625.000000,409.041779 625.000000,418.531342  z"/>
<path  fill="#6900ff"  opacity="1.000000" stroke="none" d=" M211.468658,625.000000   C201.825256,619.290405 192.631104,613.611938 185.271912,605.500671   C168.694839,587.229492 161.087692,566.095154 164.489075,541.324158   C168.390717,512.909790 183.588593,491.065735 204.404297,472.533264   C223.929489,455.149689 246.599213,443.014130 270.777466,433.509033   C272.789673,432.717987 274.815948,431.150635 277.283234,432.341919   C277.114746,434.778168 275.158813,435.371368 273.748260,436.403412   C249.720627,453.983673 227.255066,473.188202 209.786957,497.624786   C200.157913,511.095093 193.085861,525.553833 191.468430,542.346130   C189.421234,563.600220 205.776337,591.506165 228.292862,595.198181   C238.041504,596.796692 247.444672,595.125305 256.573975,591.271423   C276.925781,582.679749 293.453064,568.840515 308.909882,553.520935   C312.925232,549.541199 316.601074,545.218811 320.429504,541.050781   C324.107117,537.046936 324.819733,537.175598 328.537689,541.320129   C344.734863,559.375427 362.118835,576.052185 383.831604,587.484558   C395.196686,593.468628 407.132751,597.700867 420.200073,595.197266   C436.599457,592.055298 446.556396,580.920898 452.943634,566.419800   C459.937256,550.541992 458.330139,534.498962 451.488403,519.010132   C441.312561,495.973450 424.506256,477.996979 406.162537,461.310425   C395.809418,451.892517 384.882294,443.183350 373.358063,435.231506   C372.405151,434.573944 371.350098,433.967529 371.529602,432.484070   C373.097900,430.966064 374.640686,432.103668 376.085022,432.672974   C402.603424,443.125214 427.454071,456.341095 448.373535,476.133423   C464.539825,491.428680 477.355988,509.077881 482.607269,530.866028   C490.123291,562.050659 482.170746,589.106873 458.126312,610.999146   C452.159485,616.431885 445.359711,620.536194 438.198303,624.726379   C415.979095,625.000000 393.958221,625.000000 371.274170,624.715820   C355.035065,617.816406 340.862244,608.912659 327.898285,598.077881   C325.170563,595.798218 323.004150,596.243530 320.462341,598.417297   C310.695923,606.769775 300.260925,614.102844 288.592773,619.677612   C285.043854,621.373169 281.066620,622.320679 278.000000,625.000000   C255.979111,625.000000 233.958206,625.000000 211.468658,625.000000  z"/>
<path  fill="#6900ff"  opacity="1.000000" stroke="none" d=" M191.155334,407.152893   C199.604218,397.371124 207.027130,387.222992 214.289093,376.994904   C216.800522,378.494476 215.911636,379.955963 215.390121,381.279541   C204.562820,408.758728 190.886749,434.535614 170.082443,455.936584   C153.714218,472.774200 134.610336,485.357361 111.303230,489.852997   C85.022377,494.922150 61.779182,487.873810 42.333107,469.360138   C21.231895,449.270569 12.652751,424.718384 17.961983,395.954102   C22.077175,373.658936 33.283714,354.624054 47.145042,337.032501   C52.149208,330.681702 53.421089,331.139191 47.449951,323.883789   C34.425556,308.058167 24.209486,290.540131 19.167023,270.448425   C13.314355,247.128479 16.473450,225.276566 30.197758,205.162292   C40.615364,189.894287 54.542110,179.169342 71.874748,173.172272   C84.362701,168.851486 97.399818,168.428970 110.357185,170.913376   C140.802719,176.750854 163.368530,194.768951 181.999054,218.394104   C196.452484,236.722275 206.932312,257.328156 215.176437,279.104156   C215.637009,280.320648 216.490051,281.506439 215.334900,282.902100   C212.901886,283.310242 212.527390,281.120300 211.550201,279.757050   C195.561874,257.451477 177.778046,236.753952 155.996353,219.891846   C143.436325,210.168594 129.940796,201.746292 113.978020,198.746094   C92.334686,194.678284 73.956291,200.980316 59.985088,218.022751   C49.853413,230.381607 49.854855,244.462585 55.108013,259.070038   C62.935642,280.836365 77.635254,297.737915 93.328568,313.961548   C97.725739,318.507324 102.307053,322.911621 107.129082,326.997040   C110.379181,329.750610 109.884888,331.384247 106.951645,334.003448   C89.497902,349.588623 73.372017,366.319244 61.616558,386.846497   C56.487671,395.802490 52.916882,405.332672 51.724266,415.436096   C50.440620,426.310669 54.346966,436.086060 61.204914,444.548157   C73.740425,460.015869 97.349594,466.954132 116.446053,461.640747   C135.433533,456.357697 150.973450,445.527039 165.560104,432.898163   C174.645294,425.032410 182.960312,416.402222 191.155334,407.152893  z"/>
<path  fill="#6900ff" opacity="1.000000" stroke="none" d=" M332.668152,46.643623   C353.144623,32.372757 374.864746,22.338495 400.006073,22.295521   C419.912048,22.261497 436.889832,30.142687 451.538177,43.250771   C470.478790,60.199799 479.633484,81.575256 477.965668,106.848419   C476.269623,132.549225 464.314148,153.853027 446.702850,172.126038   C428.287292,191.233551 406.351868,205.185944 382.001709,215.487015   C378.026215,217.168808 374.055023,218.861176 370.067322,220.513641   C368.432831,221.190964 366.791931,222.018387 364.837677,221.470215   C364.852936,218.441986 367.341980,217.867996 368.952698,216.713013   C391.531158,200.522949 412.305084,182.368164 429.165222,160.158356   C439.714905,146.261292 447.984283,131.265045 450.448364,113.455765   C453.542633,91.091614 437.393463,64.387428 415.749512,58.928932   C404.557953,56.106464 393.249207,58.312008 382.661194,63.221203   C362.857269,72.403435 346.479248,86.184128 331.291595,101.542389   C327.663910,105.210808 324.138580,108.993286 320.762207,112.893059   C318.340485,115.690224 316.520020,115.806808 313.996185,112.873772   C303.760620,100.978668 292.485718,90.127243 280.090393,80.493027   C267.911346,71.026939 255.038864,62.232315 239.769318,59.217319   C221.779404,55.665192 209.151367,57.724754 195.226822,76.112946   C181.371078,94.410294 181.586990,114.369148 190.391724,134.637756   C200.723526,158.421661 218.292526,176.634125 237.089005,193.779602   C246.694763,202.541641 256.978149,210.482880 267.682709,217.872498   C268.856018,218.682495 270.347839,219.313583 270.565735,221.485199   C266.403900,222.287735 263.194763,219.865067 259.904388,218.522522   C228.639709,205.765854 200.340012,188.640945 179.207703,161.597168   C164.665771,142.987350 155.885178,122.123878 156.732834,98.000999   C158.117554,58.593296 192.273865,26.880718 226.283234,22.900169   C246.836746,20.494530 265.481598,26.064842 283.449097,35.153263   C294.195068,40.588863 304.036987,47.430210 313.170807,55.239624   C316.323212,57.934948 318.704071,57.928253 321.761353,55.139812   C325.068176,52.123753 328.820374,49.596058 332.668152,46.643623  z"/>
<path  fill="#6900ff"  opacity="1.000000" stroke="none" d=" M467.448120,331.362183   C458.433929,334.034302 449.485840,332.903076 440.744568,334.073425   C413.453033,337.727325 389.788361,348.778961 369.583740,367.356293   C352.378998,383.175385 340.704712,402.532501 333.898499,424.767639   C331.035004,434.122406 329.239502,443.763184 329.157440,453.662231   C329.071899,463.980103 326.830811,474.175018 327.208984,484.537750   C327.260742,485.955902 327.279816,487.638062 324.593475,488.210938   C323.033234,483.880493 323.500153,479.255920 322.984467,474.804779   C321.324219,460.474152 322.089813,445.880951 318.169098,431.792511   C304.956573,384.315460 274.784058,353.414520 227.583801,339.302399   C216.057022,335.856110 204.098831,334.811157 192.103577,334.253754   C185.296524,333.937439 178.495819,333.420807 171.706848,332.827301   C170.191345,332.694824 168.355713,332.947845 166.820358,330.836761   C173.038971,329.286926 179.035080,328.923462 185.100464,328.662689   C208.031555,327.676941 230.492981,324.489746 251.076614,313.367188   C274.701569,300.601288 293.105164,282.617706 305.691132,258.763672   C315.840485,239.527649 320.074860,218.901138 320.733887,197.354767   C320.942352,190.539383 321.426361,183.732452 321.781097,176.921509   C321.841614,175.759979 321.915375,174.610519 323.627960,173.387894   C325.703735,178.082352 326.020660,182.762589 326.088470,187.422272   C326.289978,201.264893 327.355713,215.099319 330.641479,228.487106   C334.708282,245.057037 341.798248,260.479248 352.158905,274.238708   C370.568817,298.688049 394.584686,314.811554 424.212616,322.347809   C440.444489,326.476593 457.159027,326.422333 473.768677,327.033417   C478.917664,327.222900 478.919067,327.185089 483.127960,329.563324   C477.837830,332.438934 472.692719,330.803314 467.448120,331.362183  z"/>
</svg>