<?xml version="1.0" encoding="utf-8"?>
<svg xmlns="http://www.w3.org/2000/svg" viewBox="0 0 500 500">
  <style type="text/css">
	.st0{fill-rule:evenodd;clip-rule:evenodd;fill:url(#XMLID_2_);}
	.st1{fill:#FFFFFF;}
</style>
  <g id="XMLID_632_" transform="matrix(1.66338, 0.00044, 0, 1.666654, -197.590271, -78.835999)" style="">
    <linearGradient id="XMLID_2_" gradientUnits="userSpaceOnUse" x1="269" y1="349" x2="269" y2="49" gradientTransform="matrix(1, 0, 0, -1, 0.082774, 396.070587)">
      <stop offset="0" style="stop-color:#F452FF"/>
      <stop offset="1" style="stop-color:#832BC1"/>
    </linearGradient>
    <path id="XMLID_662_" class="st0" d="M 413.183 307.071 C 410.283 314.471 403.583 324.871 393.983 332.271 C 388.483 336.471 381.883 340.571 372.883 343.271 C 363.283 346.171 351.383 347.071 336.583 347.071 L 201.583 347.071 C 186.783 347.071 174.983 346.071 165.283 343.271 C 156.283 340.571 149.683 336.571 144.183 332.271 C 134.683 324.971 127.883 314.471 124.983 307.071 C 119.183 292.171 119.083 275.271 119.083 264.571 L 119.083 129.571 C 119.083 118.871 119.183 101.971 124.983 87.071 C 127.883 79.671 134.583 69.271 144.183 61.871 C 149.683 57.671 156.283 53.571 165.283 50.871 C 174.983 48.071 186.783 47.071 201.583 47.071 L 336.583 47.071 C 351.383 47.071 363.183 48.071 372.883 50.871 C 381.883 53.571 388.483 57.571 393.983 61.871 C 403.483 69.171 410.283 79.671 413.183 87.071 C 419.083 101.971 419.083 118.971 419.083 129.571 L 419.083 264.571 C 419.083 275.271 418.983 292.171 413.183 307.071 Z"/>
    <g/>
    <path d="M 321.048 92.864 C 358.315 120.382 277.306 172.357 277.306 172.357 C 253.005 155.63 205.686 118.074 229.034 94.642 C 240.213 83.428 260.548 87.867 271.153 97.026 C 274.069 99.551 276.257 102.429 277.306 105.44 C 278.463 102.454 280.572 99.475 283.342 96.83 C 292.266 88.328 308.08 83.296 321.048 92.864 Z M 320.523 106.485 C 319.745 104.159 318.073 101.7 314.72 99.216 C 309.569 95.418 303.998 95.303 298.574 97.379 C 292.635 99.656 288.018 104.225 286.521 108.075 L 276.83 133.185 L 267.993 107.844 C 266.76 104.305 261.385 99.588 253.647 97.397 C 246.23 95.299 240.087 96.397 236.402 100.096 C 232.797 103.719 231.776 107.777 232.864 112.78 C 234.031 118.151 237.627 124.409 243.217 131.151 C 252.616 142.485 266.196 153.494 277.403 161.606 C 279.026 160.46 280.903 159.087 282.963 157.522 C 289.767 152.383 298.292 145.37 305.622 137.638 C 313.106 129.754 318.618 121.88 320.464 115.003 C 321.359 111.689 321.32 108.886 320.523 106.485 Z" p-id="6178" style="fill: rgb(255, 255, 255); transform-box: fill-box; transform-origin: 50% 50%;"/>
    <path d="M 372.856 209.765 C 350.461 240.818 284.125 186.336 284.125 186.336 C 297.542 166.247 333.494 127.778 359.513 142.022 C 371.964 148.844 370.163 164.437 362.471 173.448 C 360.355 175.923 357.796 177.907 354.962 179.06 C 358.047 179.532 361.245 180.707 364.196 182.42 C 373.697 187.935 380.648 198.967 372.863 209.765 L 372.856 209.765 Z M 359.321 211.002 C 361.622 210.144 363.83 208.627 365.796 205.904 C 368.896 201.62 368.305 197.482 365.58 193.745 C 362.589 189.644 357.496 186.821 353.521 186.211 L 327.561 182.261 L 351.421 172.492 C 354.754 171.126 358.713 166.56 359.905 160.562 C 361.038 154.813 359.179 150.413 355.07 148.164 C 351.045 145.966 346.528 145.611 341.071 147.057 C 335.361 148.568 329.018 151.981 322.503 156.826 C 311.635 164.915 301.618 175.966 294.891 184.962 C 296.359 186.058 298.1 187.328 300.076 188.721 C 306.46 193.213 315.077 198.794 324.253 203.409 C 333.586 208.104 342.729 211.376 350.295 211.969 C 353.962 212.259 356.938 211.895 359.321 211.002 Z M 271.623 186.847 C 271.623 186.847 207.396 246.442 181.786 217.344 C 172.885 207.234 178.611 195.689 187.47 189.43 C 190.235 187.485 193.303 186.045 196.336 185.327 C 193.2 184.271 190.404 182.571 188.186 180.37 C 179.786 172.335 176.668 157.831 188.285 150.061 C 212.671 133.773 256.123 167.926 271.623 186.847 Z M 188.394 212.928 C 192.419 217.501 197.728 218.864 205.162 217.709 C 213.079 216.473 222.354 212.42 231.664 206.98 C 240.814 201.628 249.298 195.347 255.548 190.35 C 257.456 188.825 259.132 187.439 260.549 186.241 C 252.799 178.075 241.097 168.249 228.78 161.355 C 221.346 157.205 214.196 154.397 207.945 153.425 C 201.861 152.483 197.136 153.305 193.361 155.824 C 189.361 158.497 188.086 162.823 189.661 167.934 C 191.327 173.334 195.561 177.363 199.161 178.494 L 223.954 186.284 L 198.528 192.324 C 194.628 193.254 189.861 196.479 187.326 200.798 C 185.002 204.748 184.86 208.909 188.394 212.921 L 188.394 212.928 Z M 262.023 271.452 C 225.047 253.921 282.167 197.183 282.167 197.183 C 306.026 207.58 353.504 232.085 338.803 255.595 C 331.769 266.848 313.785 266.257 302.984 260.14 C 300.017 258.456 297.584 256.351 296.085 253.964 C 295.734 256.672 294.584 259.532 292.809 262.204 C 287.091 270.814 274.882 277.548 262.023 271.452 Z M 259.624 259.809 C 260.765 261.666 262.673 263.496 266.007 265.07 C 271.108 267.493 275.808 266.723 279.924 264.116 C 284.434 261.262 287.35 256.658 287.8 253.16 L 290.717 230.342 L 303.385 250.47 C 305.159 253.278 310.642 256.443 317.593 257.095 C 324.253 257.725 329.178 255.829 331.486 252.118 C 333.761 248.481 333.77 244.881 331.819 240.801 C 329.736 236.425 325.41 231.678 319.319 226.829 C 309.085 218.679 295.401 211.453 284.316 206.314 C 283.208 207.549 281.909 209.002 280.509 210.65 C 275.884 216.066 270.183 223.356 265.64 231.052 C 261.014 238.908 258.023 246.451 257.907 252.571 C 257.849 255.526 258.457 257.9 259.624 259.809 Z M 192.452 284.361 C 185.786 261.132 242.457 215.384 271.623 193.598 C 271.623 193.598 211.995 258.933 209.121 269.838 C 206.245 280.743 203.562 286.784 204.953 295.247 C 203.562 301.302 192.452 284.361 192.452 284.361 Z" p-id="6179" style="fill: rgb(255, 255, 255); transform-box: fill-box; transform-origin: 50% 50%;"/>
  </g>
</svg>