<?xml version="1.0" encoding="utf-8"?>
<svg xmlns="http://www.w3.org/2000/svg" viewBox="0 0 500 500">
  <g id="BACKGROUND" transform="matrix(0.994609, 0, 0, 0.997352, 1.587962, 0.000006)" style="">
    <rect x="0" style="fill:#FFFFFF;" width="499.999" height="500"/>
  </g>
  <g id="OBJECTS" transform="matrix(1.852545, 0, 0, 1.545079, -213.701141, -143.263733)" style="">
    <g>
      <g>
        <g>
          <path style="fill:#FF6224;" d="M249.703,315.023c-3.993-3.049-9.56-7.429-15.382-12.414      c-18.834-16.127-23.414-24.086-24.508-26.759l-0.065-0.154c-1.163-2.647-1.737-5.388-1.737-8.216      c0-11.185,9.1-20.284,20.285-20.285c5.635,0,10.874,2.264,14.752,6.374l6.953,7.368l6.953-7.368      c3.878-4.11,9.117-6.374,14.752-6.374c11.185,0.001,20.284,9.1,20.284,20.285c0,2.834-0.577,5.581-1.716,8.165l-0.094,0.219      c-1.1,2.676-5.691,10.641-24.514,26.755C260.962,306.647,253.919,311.922,249.703,315.023z"/>
        </g>
      </g>
      <g>
        <g>
          <path style="fill:#6636CE;" d="M357.456,330.368h-72.337c-4.351,0-7.877-3.526-7.877-7.877c0-4.351,3.526-7.877,7.877-7.877      h72.337c7.021,0,9.572-5.434,10.188-7.098c0.614-1.666,2.205-7.453-3.132-12.014l-107.456-91.85      c-4.088-3.494-10.022-3.494-14.11,0l-107.456,91.849c-5.337,4.562-3.746,10.351-3.131,12.015      c0.615,1.666,3.166,7.098,10.187,7.098h107.099c4.351,0,7.877,3.526,7.877,7.877c0,4.351-3.526,7.877-7.877,7.877H142.544      c-11.265,0-21.064-6.829-24.965-17.396c-3.901-10.567-0.889-22.126,7.674-29.445l107.456-91.849      c10.019-8.564,24.563-8.564,34.582,0l107.456,91.849c8.563,7.319,11.576,18.877,7.675,29.445      C378.521,323.539,368.721,330.368,357.456,330.368z"/>
        </g>
      </g>
      <g>
        <g>
          <path style="fill:#6636CE;" d="M249.999,201.048c-4.35,0-7.877-3.527-7.877-7.877V168.63c0-4.35,3.527-7.877,7.877-7.877      c4.351,0,7.877,3.527,7.877,7.877v24.541C257.875,197.521,254.349,201.048,249.999,201.048z"/>
        </g>
      </g>
      <g>
        <g>
          <path style="fill:#6636CE;" d="M249.999,176.507c-4.35,0-7.877-3.527-7.877-7.877c0-4.35,3.527-7.877,7.877-7.877      c12.877,0,23.353-10.476,23.353-23.353c0-12.877-10.477-23.353-23.353-23.353c-12.877,0-23.352,10.476-23.352,23.353      c0,4.35-3.527,7.877-7.877,7.877c-4.35,0-7.877-3.527-7.877-7.877c0-21.563,17.543-39.106,39.106-39.106      c21.564,0,39.107,17.543,39.107,39.106S271.562,176.507,249.999,176.507z"/>
        </g>
      </g>
      <g>
        <g>
          <path style="fill:#6636CE;" d="M249.65,330.369c-2.453,0-4.868-1.142-6.407-3.286c-2.536-3.534-1.727-8.455,1.808-10.992      c0.123-0.088,12.394-8.905,19.396-14.898c18.511-15.849,22.949-23.493,23.999-26.044l0.112-0.261      c1.032-2.344,1.556-4.837,1.556-7.409c0-10.15-8.258-18.407-18.408-18.408c-5.113,0-9.866,2.054-13.386,5.785l-8.32,8.816      l-8.317-8.816c-3.519-3.73-8.273-5.784-13.386-5.784c-10.15,0.001-18.408,8.258-18.408,18.408c0,2.567,0.521,5.053,1.548,7.39      l0.114,0.269c0.884,2.159,4.487,8.576,18.813,21.498c3.23,2.914,3.487,7.894,0.573,11.125c-2.913,3.23-7.894,3.487-11.125,0.573      c-12.423-11.206-19.884-20.084-22.805-27.139c-1.91-4.359-2.873-8.966-2.873-13.716c0-18.836,15.325-34.161,34.161-34.161      c8.048,0,15.613,2.736,21.705,7.782c6.093-5.045,13.658-7.782,21.705-7.782c18.836,0,34.161,15.325,34.161,34.161      c0,4.757-0.967,9.372-2.875,13.718c-3.294,7.951-12.815,18.705-28.3,31.963c-7.517,6.435-19.932,15.354-20.457,15.731      C252.845,329.889,251.239,330.368,249.65,330.369z"/>
        </g>
      </g>
      <g>
        <path style="fill:#8F78FF;" d="M215.728,135.724c-0.053,0-0.106-0.003-0.16-0.008c-0.865-0.087-1.496-0.857-1.41-1.723     c0.032-0.327,3.626-32.693,35.803-32.693c0.014,0,0.025,0,0.038,0c31.806,0.025,36.022,30.942,36.061,31.254     c0.108,0.863-0.505,1.648-1.367,1.756c-0.855,0.116-1.649-0.502-1.759-1.366c-0.148-1.162-3.943-28.472-32.937-28.494     c-0.011,0-0.025,0-0.036,0c-29.304,0-32.544,28.636-32.668,29.856C217.211,135.118,216.527,135.724,215.728,135.724z"/>
      </g>
      <g>
        <path style="fill:#8F78FF;" d="M371.315,290.96c-0.362,0-0.726-0.124-1.023-0.378l-29.504-25.229     c-0.661-0.566-0.74-1.56-0.173-2.221c0.563-0.661,1.559-0.739,2.22-0.173l29.504,25.23c0.661,0.566,0.739,1.56,0.173,2.221     C372.202,290.773,371.76,290.96,371.315,290.96z"/>
      </g>
      <g>
        <path style="fill:#8F78FF;" d="M329.447,255.157c-0.362,0-0.726-0.124-1.022-0.378l-67.979-58.13     c-0.661-0.566-0.74-1.56-0.173-2.221c0.563-0.661,1.559-0.74,2.22-0.173l67.979,58.13c0.661,0.566,0.74,1.56,0.173,2.221     C330.334,254.97,329.892,255.157,329.447,255.157z"/>
      </g>
      <g>
        <path style="fill:#8F78FF;" d="M298.966,266.576c-0.724,0-1.375-0.501-1.537-1.237c-3.113-14.151-12.799-22.952-25.909-23.544     c-0.87-0.04-1.543-0.776-1.503-1.645c0.039-0.869,0.791-1.542,1.644-1.503c14.623,0.66,25.407,10.385,28.844,26.014     c0.187,0.85-0.351,1.69-1.2,1.877C299.191,266.564,299.077,266.576,298.966,266.576z"/>
      </g>
      <g>
        <path style="fill:#8F78FF;" d="M251.979,248.216c-0.426,0-0.85-0.172-1.161-0.51c-0.588-0.641-0.546-1.637,0.095-2.226     c3.473-3.187,8.35-5.456,13.734-6.389c0.852-0.149,1.673,0.426,1.82,1.283c0.149,0.857-0.426,1.673-1.283,1.822     c-4.796,0.832-9.108,2.822-12.14,5.605C252.742,248.079,252.36,248.216,251.979,248.216z"/>
      </g>
      <g>
        <path style="fill:#8F78FF;" d="M325.262,321.421H290.02c-0.87,0-1.575-0.706-1.575-1.575c0-0.87,0.706-1.575,1.575-1.575h35.241     c0.87,0,1.575,0.706,1.575,1.575C326.837,320.716,326.131,321.421,325.262,321.421z"/>
      </g>
      <g>
        <path style="fill:#4D378C;" d="M257.875,175.71h-5.649c-2.629,0-4.76,2.131-4.76,4.76v1.225c0,2.628,2.13,4.758,4.757,4.76     l5.651,0.003V175.71z"/>
      </g>
    </g>
  </g>
  <g id="TEXTS" style="width: 100%;" transform="matrix(1.876952, 0, 0, 1.462642, -198.652496, -107.397926)">
    <g>
      <g>
        <text xmlns="http://www.w3.org/2000/svg" transform="matrix(1 0 0 1 116.5807 367.4763)" style="white-space: pre;"><tspan x="-10" y="0" style="fill:#3C2E6D;font-family:'Outfit-Black';font-size:41.422px;font-weight: bold;">design</tspan>
    <tspan x="126" y="0" style="fill: #ccc;font-family:'Outfit-Black';font-size:41.422px;font-weight: bold;">&amp;</tspan>
    <tspan x="160" y="0" style="fill:#FF6224;font-family:'Outfit-Black';font-size:41.422px;font-weight: bold;">shop</tspan></text>
      </g>
      <text transform="matrix(1 0 0 1 160.3911 398.0984)" style="fill: rgb(77, 55, 140); font-family: Lato-Semibold; font-size: 13px; letter-spacing: 1px; white-space: pre;">do something sepeical</text>
    </g>
  </g>
</svg>