<svg xmlns="http://www.w3.org/2000/svg" xmlns:xlink="http://www.w3.org/1999/xlink" version="1.0" id="katman_1" x="0px" y="0px" viewBox="0 0 430.1 429.82" style="enable-background:new 0 0 430.1 429.82;" xml:space="preserve">
<style type="text/css">
	.st0{fill:#358211;}
	.st1{fill:#64D634;}
</style>
<g>
	<path class="st0" d="M430.01,83.81c0-15.8-3.96-30.17-11.88-43.11c-11.4-18.62-27.42-31.13-48.05-37.52   c-6.73-2.09-13.42-3.13-20.08-3.13C261.33,0.05,173.13,0.03,85.42,0c-6.71,0-12.54,0.48-17.49,1.43   C29.33,8.88,0.92,43.17,0.15,82.62c-0.07,3.83-0.11,7.72-0.12,11.69C-0.02,137,0,219.91,0.07,343.06   c0.01,7.53,0.49,13.64,1.44,18.35c6.69,33.01,31.98,61.37,65.84,67.09c4.57,0.77,11.11,1.13,19.62,1.08   c33.25-0.21,66.14-0.2,98.67,0.01c0.23,0,0.4-0.11,0.49-0.33c11.59-27.39,18.35-55.86,20.28-85.43c0.01-0.12-0.14-0.19-0.23-0.11   c-14.14,12.16-33.63,15.7-50.81,8.44c-16.64-7.02-25.85-24.74-24.75-42.63c0.69-11.02,4.26-21.32,10.72-30.89   c0.44-0.65,0.33-0.77-0.34-0.36c-22.9,14.27-56.97,19.06-75.09-6.16c-9.9-13.77-10.92-31.04-3.66-46.41   c2.13-4.51,4.91-8.92,8.34-13.24c0.34-0.42,0.35-0.85,0.03-1.28c-1.81-2.48-3.61-5.04-5.39-7.67   c-8.92-13.19-10.24-30.11-4.41-44.17c4.59-11.08,12.42-19.02,23.49-23.81c16.2-7.01,36.68-3.24,52.2,3.99   c1.69,0.78,3.12,1.88,4.57,3c2.36,1.83,2.73,1.5,1.1-1.01c-8.77-13.57-13.69-28.1-10.82-43.91c3.28-18.05,16.05-31.84,33.66-36.66   c17.36-4.75,36.33,0.29,49.95,11.97c0.18,0.16,0.44,0.16,0.62,0.01c18.85-15.59,45.97-19.19,66.33-4.07   c16.44,12.21,21.98,33.3,16.49,52.64c-1.46,5.15-3.93,10.8-7.42,16.93c-0.9,1.57-2.6,2.92-3.17,4.61c-0.22,0.67-0.05,0.78,0.5,0.35   c7.18-5.6,17.15-8.5,26.01-10.31c18.53-3.77,37.71,0.89,49.58,15.78c10.96,13.75,12.75,32.48,5.6,47.95   c-2.4,5.2-5.86,9.47-8.92,14.25c-0.23,0.35-0.22,0.8,0.02,1.14c3.52,5.13,7.77,10.97,9.89,16.6c5.84,15.52,3.55,32.94-7.04,45.78   c-7.58,9.18-17.76,14.26-30.55,15.25c-14.16,1.08-29.94-3.41-41.89-11.35c-1.2-0.8-1.4-0.6-0.61,0.6   c12.44,18.89,15,44.8-0.83,62.81c-10.04,11.43-23.58,15.25-38.29,13.64c-9.29-1.02-17.38-4.34-24.27-9.95   c-0.34-0.28-0.86-0.05-0.88,0.39c-0.35,9.99-1.43,20.25-3.26,30.79c-2.96,17.06-7.62,34.48-13.99,52.27   c-0.16,0.44,0.24,0.89,0.7,0.77c0.48-0.13,0.99-0.19,1.54-0.19c41.42-0.21,86.47-0.24,135.16-0.1c7.01,0.02,12.64-0.36,16.87-1.14   c34.49-6.39,60.25-34.08,65.78-68.13c0.77-4.77,1.16-11.13,1.16-19.06C430.06,255.6,430.03,169.81,430.01,83.81z"/>
	<path class="st1" d="M252.63,79.95c-19,0.27-28.99,14.23-33.08,31c-2.11,8.66-3.32,17.08-3.65,25.25c0,0.04-0.03,0.07-0.07,0.07   c-0.04,0-0.07-0.02-0.08-0.06c-0.31-1.75-0.55-3.57-0.73-5.45c-0.69-7.31-1.84-14.08-3.45-20.31   c-4.53-17.53-15.85-31.95-35.79-30.36c-8.39,0.68-15.31,4.82-19.88,11.93c-11.72,18.24,1.41,41.32,12.24,56.44   c13.4,18.7,30.28,34.26,46.95,50.42c0.26,0.25,0.52,0.25,0.77,0c8.24-7.84,16.4-15.76,24.48-23.77   c14.54-14.39,28.82-31.75,36.02-50.23c1.59-4.07,2.62-8.19,3.11-12.37C281.43,95.62,270.8,79.7,252.63,79.95z"/>
	<path class="st1" d="M331.79,205.51c7.29-3.64,13.21-7.87,16.96-15.3c9.47-18.7-2.89-38.25-23.77-38.58   c-6.65-0.11-12.95,0.84-18.88,2.84c-19.82,6.69-38.87,18.67-54.49,32.28c-6.72,5.86-13.4,11.83-20.15,18.22   c-1.31,1.23-2.55,2.6-3.74,4.13c-0.21,0.27-0.2,0.52,0.03,0.76c1.86,1.99,3.73,3.85,5.61,5.59c8.48,7.84,16.85,15.12,25.12,21.85   c12.27,9.99,25.22,18.32,38.84,24.97c6.23,3.03,12.53,5.29,18.92,6.78c9.04,2.1,17.55,1.15,25.37-3.9   c8.09-5.23,11.69-15.33,9.86-24.85c-3.14-16.38-17.5-25.56-33.2-28.14c-2.19-0.36-4.4-0.7-6.63-1.02   c-0.78-0.11-0.78-0.19,0.01-0.23C318.63,210.53,325.34,208.73,331.79,205.51z"/>
	<path class="st1" d="M84.09,228.75c-3.98,6.19-5.6,12.63-4.85,19.32c1.64,14.64,15.14,23.19,29.2,21.9   c8.01-0.74,16.46-3.27,25.37-7.58c11.34-5.49,21.98-12.1,31.92-19.83c11.36-8.84,23.07-18.68,32.81-28.04   c1.73-1.66,3.43-3.12,5.11-4.39c0.29-0.22,0.33-0.47,0.1-0.76c-1.19-1.49-2.47-2.9-3.84-4.22c-6.43-6.19-13.04-12.22-19.82-18.09   c-10.55-9.13-22.51-17.25-35.86-24.36c-11.06-5.9-22.9-10.75-35.74-10.99c-11.99-0.23-22.21,3.73-27.19,14.85   c-2.97,6.64-2.85,15.56,0.2,22.13c2.71,5.87,6.94,10.61,12.67,14.23c6.96,4.39,15.46,7.14,25.49,8.23c0.75,0.08,0.75,0.15,0,0.22   C106.52,212.52,91.33,217.5,84.09,228.75z"/>
	<path class="st1" d="M206.77,227.81c-19.27,17.32-39.85,36.12-50.72,59.97c-6.32,13.87-8.29,32.88,5.84,43.04   c6.96,5,16.18,5.59,23.86,2.4c13.85-5.75,21.37-17.27,21.33-31.95c-0.06-23.88,0.03-48.28,0.26-73.21   C207.34,227.77,206.99,227.61,206.77,227.81z"/>
	<path class="st1" d="M231.2,323.25c7.52,9.18,18.79,14.15,30.36,10.91c12.81-3.58,19.23-14.71,18.4-27.45   c-1.19-18.43-13.16-35.71-25.42-49.31c-8.7-9.65-18.86-19.44-30.49-29.37c-0.57-0.49-0.82-0.37-0.74,0.38   c0.11,1.05,0.16,2.07,0.17,3.06c0.14,20.83,0.13,42.43-0.02,64.79C223.39,307.13,224.34,314.87,231.2,323.25z"/>
</g>
</svg>