<?xml version="1.0" encoding="utf-8"?>
<svg viewBox="0 0 500 500" xmlns="http://www.w3.org/2000/svg">

	<defs>
		<linearGradient id="c">
			<stop offset="35%" stop-color="#6900ff" />
			<stop offset="60%" stop-color="#f0e5ff" />
			<stop  offset="100%"  stop-color="#d80ebd"/>
		</linearGradient>
	</defs>

	<g id="SVGRepo_iconCarrier"
		transform="matrix(1.090260028839, 0.688039004803, -0.795827925205, 1.106636047363, 279.84505323308, -2.08123122596)"
		style="transform-origin: 63.9958px 68.335px;">
		<path
			d="M 118.566 76.585 C 108.534 67.549 91.476 60.015 80.192 55.03 C 78.279 54.189 76.553 53.431 75.089 52.756 C 70.831 50.802 65.008 45.389 67.516 39.171 C 69.203 34.966 73.487 32.846 80.265 32.846 C 82.438 32.846 84.822 33.083 87.366 33.534 C 96.207 35.109 102.911 38.259 106.709 40.047 C 107.181 40.273 107.726 40.296 108.224 40.13 C 108.709 39.953 109.117 39.597 109.329 39.135 L 118.031 20.411 C 118.415 19.593 118.118 18.622 117.323 18.125 C 111.191 14.24 95.884 8.472 78.875 8.472 C 76.417 8.472 73.971 8.59 71.588 8.828 C 58.031 10.154 44.449 13.6 36.926 29.719 C 32.233 39.751 32.246 51.05 36.938 59.199 C 41.953 68.093 50.173 72.073 60.576 77.095 L 61.917 77.746 C 69.428 81.323 78.428 85.302 84.351 87.919 C 93.103 91.947 96.342 99.1 94.331 103.412 C 91.091 110.364 83.928 111.891 71.538 108.54 C 60.599 105.709 50.508 97.714 47.69 95.334 C 47.267 94.979 46.707 94.813 46.138 94.884 C 45.579 94.955 45.082 95.263 44.771 95.701 L 31.29 115.421 C 30.78 116.167 30.892 117.15 31.562 117.766 C 38.552 124.197 44.25 127.94 54.121 132.571 C 60.762 135.685 70.483 137.556 80.129 137.556 C 90.21 137.556 114.828 135.331 125.629 114.746 C 132.52 101.575 129.949 87.695 118.566 76.585 Z"
			style="fill: rgb(105, 0, 255);" />
	</g>
	<g id="g-1"
		transform="matrix(0.7449299693107605, 0.5520079731941223, -0.5121220350265503, 0.6936240792274475, 161.53982543945312, -50.79476547241211)"
		style="">
		<path style="fill:url(#c)"
			d="M 393.089 37.716 C 393.257 37.733 363.777 41.087 342.218 42.58 C 346.981 72.333 302.522 125.305 258.317 122.196 C 214.112 119.087 169.29 110.869 162.844 55.58 L 134.909 50.981 L 0 127.999 L 42.67 245.323 L 106.668 223.995 L 106.668 469.322 L 405.314 469.322 L 405.314 223.995 L 469.311 245.323 L 511.981 127.999 L 393.089 37.716 Z" />
	</g>
</svg>