<?xml version="1.0" encoding="utf-8"?>
<!-- Generator: Adobe Illustrator 27.5.0, SVG Export Plug-In . SVG Version: 6.00 Build 0)  -->
<svg version="1.1" xmlns="http://www.w3.org/2000/svg" xmlns:xlink="http://www.w3.org/1999/xlink" x="0px" y="0px"
	 viewBox="0 0 500 500" style="enable-background:new 0 0 500 500;" xml:space="preserve">
<g id="Background">
	<text transform="matrix(1 0 0 1 209.0313 101.3931)" style="fill:#C2B0B1; font-family:'OpenSans'; font-size:12.0548px;">COLLECTION</text>
	<g>
		<rect x="0.002" y="0.002" style="fill:#FFFEF5;" width="500" height="500"/>
	</g>
</g>
<g id="Objects">
	<g>
		<g>
			<g>
				<path style="fill:#FBCAAB;" d="M79.264,398.927c0,0-2.289,9.69-1.942,15.198l3.594,0.707l2.353-15.54L79.264,398.927z"/>
				<path style="fill:#FBCAAB;" d="M110.61,399.358c0,0,1.202,9.713,0.856,15.221l-3.594,0.707l-0.985-15.699L110.61,399.358z"/>
				<g>
					<path style="fill:#161616;" d="M87.888,386.64c0,0-2.728-0.758-4.85,1.819c-2.122,2.577-5.022,11.659-6.063,20.158l6.517,1.516
						L87.888,386.64z"/>
					<path style="fill:#161616;" d="M102.287,386.337c0,0,3.956-0.575,5.599,2.712c2.896,5.793,4.016,13.652,4.042,21.353
						l-6.466,0.337L102.287,386.337z"/>
					<path style="fill:#161616;" d="M80.916,414.831c0,0-3.535-19.027,6.972-28.191c0,0,7.855,1.335,14.398-0.303
						c2.77,2.308,7.942,12.622,5.734,28.915C108.021,415.252,94.86,417.256,80.916,414.831z"/>
				</g>
			</g>
			<path style="fill:#FBCAAB;" d="M95.061,390.762L95.061,390.762c-4.071,0.313-5.48-2.628-5.572-3.937l-0.019-9.377h11.182
				l0.009,8.094c0.001,1.149-0.254,2.307-0.874,3.274C99.011,390.026,97.714,390.954,95.061,390.762z"/>
		</g>
		<g>
			<path style="fill:#FBB34D;" d="M47.727,335.523c0,0-9.401,2.973-19.792-0.888c-1.78-0.661-1.538-3.226,0.315-3.522
				c0.955-0.152,2.031-0.192,3.19-0.018c0,0-5.979-4.841-2.618-5.858C28.822,325.237,37.202,326.591,47.727,335.523"/>
			<path style="fill:#FBB34D;" d="M140.893,335.489c0,0,9.832,1.234,19.402-4.468c1.639-0.976,0.935-3.468-0.95-3.423
				c-0.972,0.023-2.043,0.179-3.156,0.561c0,0,4.924-7.214,1.525-6.265C153.178,323.159,145.907,329.775,140.893,335.489"/>
			<path style="fill:#FBCAAB;" d="M141.825,338.666c0.297,24.241-20.998,43.246-46.9,43.246s-46.95-17.659-46.9-43.246
				c0.047-23.884,15.678-44.157,46.9-43.245C127.362,296.368,141.533,314.783,141.825,338.666z"/>
			<g>
				<g>
					<g>
						<path style="fill:#FFFFFF;" d="M76.907,338.115c0,1.704-1.539,3.085-3.436,3.085c-1.898,0-3.436-1.381-3.436-3.085
							c0-1.704,1.539-3.085,3.436-3.085C75.368,335.03,76.907,336.411,76.907,338.115z"/>
						<path style="fill:#1E120D;" d="M76.701,337.748c0,1.501-1.217,2.718-2.718,2.718c-1.501,0-2.718-1.217-2.718-2.718
							c0-1.501,1.217-2.718,2.718-2.718C75.484,335.03,76.701,336.247,76.701,337.748z"/>
					</g>
					<g>
						<path style="fill:#FFFFFF;" d="M116.983,338.115c0,1.704-1.538,3.085-3.436,3.085c-1.898,0-3.436-1.381-3.436-3.085
							c0-1.704,1.538-3.085,3.436-3.085C115.445,335.03,116.983,336.411,116.983,338.115z"/>
						<circle style="fill:#1E120D;" cx="114.06" cy="337.96" r="2.718"/>
					</g>
				</g>
				<g>
					<path style="fill:none;stroke:#FFAC94;stroke-width:1.2445;stroke-miterlimit:10;" d="M94.887,343.403
						c0,0-5.541-0.14-5.419,2.779c0.139,3.335,5.141,2.223,5.141,2.223"/>
					<g>
						<path style="fill:none;stroke:#FFAC94;stroke-width:1.19;stroke-miterlimit:10;" d="M92.471,360.076
							c0,0,0.381,4.029,3.684,3.751c3.303-0.278,3.303-4.029,3.303-4.029"/>
						<g>
							<ellipse style="fill:#FFAC94;" cx="68.348" cy="351.531" rx="7.152" ry="4.454"/>
							<ellipse style="fill:#FFAC94;" cx="117.781" cy="351.531" rx="7.152" ry="4.454"/>
						</g>
					</g>
				</g>
			</g>
			<g>
				<path style="fill:#FBCAAB;" d="M48.689,346.528c0,0-12.577-7.4-0.531-10.984C48.158,335.544,54.54,344.415,48.689,346.528z"/>
				<path style="fill:#E9BBA1;" d="M48.871,342.355c0,0-0.494-4.169-2.194-3.51c-1.7,0.658-1.481,2.413,0.11,1.92
					C48.377,340.27,48.871,342.355,48.871,342.355z"/>
			</g>
			<g>
				<path style="fill:#FBCAAB;" d="M141.167,346.509c0,0,12.577-7.4,0.531-10.984C141.698,335.525,135.315,344.396,141.167,346.509z
					"/>
				<path style="fill:#E9BBA1;" d="M140.985,342.336c0,0,0.494-4.169,2.194-3.51c1.7,0.658,1.481,2.413-0.11,1.92
					C141.478,340.251,140.985,342.336,140.985,342.336z"/>
			</g>
			<path style="fill:#FBB34D;" d="M121.264,298.681c-11.234-6.275-23.964-9.01-38.151-4.984c-35.071,9.952-36.401,42.1-36.401,42.1
				c36.532-6.285,46.077-22.705,46.077-22.705s13.915,18.574,48.908,22.433C141.698,335.525,142.544,310.568,121.264,298.681z"/>
		</g>
	</g>
	<g>
		<g>
			<g>
				<path style="fill:#FBCAAB;" d="M392.365,398.927c0,0-2.289,9.69-1.942,15.198l3.594,0.707l2.353-15.54L392.365,398.927z"/>
				<path style="fill:#FBCAAB;" d="M423.71,399.358c0,0,1.203,9.713,0.856,15.221l-3.594,0.707l-0.985-15.699L423.71,399.358z"/>
				<g>
					<path style="fill:#C2B0B1;" d="M400.988,386.64c0,0-2.728-0.758-4.85,1.819c-2.122,2.577-5.022,11.659-6.063,20.158
						l6.517,1.516L400.988,386.64z"/>
					<path style="fill:#C2B0B1;" d="M415.387,386.337c0,0,3.956-0.575,5.599,2.712c2.896,5.793,4.016,13.652,4.042,21.353
						l-6.467,0.337L415.387,386.337z"/>
					<path style="fill:#C2B0B1;" d="M394.016,414.831c0,0-3.535-19.027,6.972-28.191c0,0,7.855,1.335,14.398-0.303
						c2.77,2.308,7.942,12.622,5.734,28.915C421.121,415.252,407.96,417.256,394.016,414.831z"/>
				</g>
			</g>
			<path style="fill:#FBCAAB;" d="M408.161,390.762L408.161,390.762c-4.071,0.313-5.48-2.628-5.572-3.937l-0.019-9.377h11.182
				l0.009,8.094c0.001,1.149-0.254,2.307-0.874,3.274C412.112,390.026,410.814,390.954,408.161,390.762z"/>
		</g>
		<g>
			<path style="fill:#FF892C;" d="M452.397,305.685c-7.897-15.28-25.592-23.932-42.648-24.228c-7.539-0.131-16.18,0.89-24.536,4.168
				c-11.28,4.425-18.633,10.958-23.394,17.953c-5.444,7.998-7.955,17.66-7.583,27.353l1.473,38.425
				c45.6,1.743,65.222,1.208,103.123-1.544C459.515,366.432,460.116,320.621,452.397,305.685z"/>
			<path style="fill:#FBCAAB;" d="M453.498,338.794c1.356,24.405-21.188,44.736-47.325,44.736
				c-26.137,0-46.716-20.331-47.325-44.736c-0.616-24.699,15.82-45.679,47.325-44.736
				C438.903,295.038,452.127,314.124,453.498,338.794z"/>
			<g>
				<path style="fill:#FBCAAB;" d="M360.245,340.976c0,0-12.577-7.4-0.531-10.984C359.714,329.992,366.097,338.863,360.245,340.976z
					"/>
				<path style="fill:#E9BBA1;" d="M360.427,336.803c0,0-0.494-4.169-2.194-3.511c-1.7,0.658-1.481,2.413,0.11,1.92
					C359.934,334.718,360.427,336.803,360.427,336.803z"/>
			</g>
			<g>
				<path style="fill:#FBCAAB;" d="M451.813,340.687c0,0,12.577-7.4,0.531-10.984C452.344,329.703,445.961,338.573,451.813,340.687z
					"/>
				<path style="fill:#E9BBA1;" d="M451.631,336.513c0,0,0.494-4.169,2.194-3.51c1.7,0.658,1.481,2.414-0.11,1.92
					C452.124,334.429,451.631,336.513,451.631,336.513z"/>
			</g>
			<g>
				<g>
					<path style="fill:none;stroke:#FFAC94;stroke-width:1.19;stroke-miterlimit:10;" d="M404.167,358.567
						c0,0,0.381,4.029,3.684,3.751c3.303-0.278,3.303-4.029,3.303-4.029"/>
					<g>
						<ellipse style="fill:#FFAC94;" cx="380.043" cy="350.022" rx="7.152" ry="4.454"/>
						<path style="fill:#FFAC94;" d="M436.628,350.022c0,2.46-3.202,4.454-7.152,4.454c-3.95,0-7.152-1.994-7.152-4.454
							c0-2.46,3.202-4.454,7.152-4.454C433.426,345.568,436.628,347.562,436.628,350.022z"/>
					</g>
				</g>
				<g>
					<path style="fill:none;stroke:#1E120D;stroke-width:1.2445;stroke-miterlimit:10;" d="M380.985,335.092
						c0,0,1.279,5.116,4.75,4.75c3.471-0.365,4.385-4.933,4.385-4.933"/>
					<path style="fill:none;stroke:#1E120D;stroke-width:1.2445;stroke-miterlimit:10;" d="M425.571,334.102
						c0,0,1.279,5.116,4.75,4.75c3.471-0.366,4.385-4.933,4.385-4.933"/>
				</g>
				<path style="fill:none;stroke:#FFAC94;stroke-width:1.2445;stroke-miterlimit:10;" d="M406.746,342.766
					c0,0-3.837-3.471-5.664,0.548c-1.827,4.02,4.202,2.923,4.202,2.923"/>
			</g>
			<g>
				<path style="fill:#FFA2A7;" d="M373.282,296.808l-9.671-11.363l6.528-3.626l5.319,14.264l-2.418-15.231l4.594-1.451
					l1.451,16.924C379.085,296.325,378.118,299.951,373.282,296.808z"/>
				<path style="fill:#FFA2A7;" d="M362.091,321.919c0,0-2.517-33.298,42.647-33.883c40.188-0.52,42.411,23.565,42.411,23.565
					l-1.123,1.103c0,0-4.66-21.08-41.287-20.935c-39.621,0.156-41.696,31.947-41.696,31.947L362.091,321.919z"/>
			</g>
			<polygon style="fill:#FF892C;" points="361.465,329.882 364.46,318.001 357.414,315.469 354.332,326.698 			"/>
			<polygon style="fill:#FF892C;" points="450.104,321.513 444.183,309.339 449.72,305.919 454.932,317.645 			"/>
			<path style="fill:#FF892C;" d="M443.664,308.762c-2.432-6.766-11.006-17.53-41.04-16.485
				c-43.502,1.513-43.359,37.651-43.359,37.651l14.023-2.825l10.271-1.11c0,0,2.268-8.786,6.058-10.757l0.284,9.981l17.589-1.497
				l4.352-13.083l2.404,12.743l13.93-0.647l3.462-9.333l5.588,11.554l17.57,3.772C454.796,328.726,452.171,314.843,443.664,308.762z
				"/>
		</g>
	</g>
	<g>
		<g>
			<path style="fill:#1E120D;" d="M375.645,240.05c0,0,17.985-7.117,72.426,0l0.729-57.695l-72.912-2.287L375.645,240.05z"/>
			<g>
				<g>
					<path style="fill:#FBCAAB;" d="M391.471,250.247c0,0-2.289,9.69-1.942,15.198l3.594,0.707l2.353-15.54L391.471,250.247z"/>
					<path style="fill:#FBCAAB;" d="M422.817,250.678c0,0,1.202,9.713,0.856,15.22l-3.594,0.707l-0.985-15.699L422.817,250.678z"/>
					<g>
						<path style="fill:#B3D8CB;" d="M400.095,237.96c0,0-2.728-0.758-4.85,1.819c-2.122,2.577-5.022,11.659-6.063,20.158
							l6.517,1.516L400.095,237.96z"/>
						<path style="fill:#B3D8CB;" d="M414.493,237.657c0,0,3.956-0.575,5.599,2.712c2.897,5.793,4.016,13.652,4.042,21.353
							l-6.467,0.337L414.493,237.657z"/>
						<path style="fill:#B3D8CB;" d="M393.123,266.151c0,0-3.535-19.027,6.972-28.191c0,0,7.855,1.335,14.398-0.303
							c2.77,2.308,7.942,12.622,5.734,28.915C420.227,266.572,407.067,268.576,393.123,266.151z"/>
					</g>
				</g>
				<path style="fill:#FBCAAB;" d="M407.268,242.082L407.268,242.082c-4.071,0.313-5.48-2.628-5.572-3.937l-0.019-9.377h11.182
					l0.009,8.094c0.001,1.149-0.254,2.307-0.874,3.274C411.218,241.346,409.92,242.275,407.268,242.082z"/>
			</g>
		</g>
		<g>
			<path style="fill:#FBCAAB;" d="M452.76,188.294c1.308,20.326-20.008,42.131-46.002,41.932
				c-31.249-0.238-47.053-35.369-47.067-41.94c-0.052-24.268,15.734-44.867,47.067-43.94
				C439.311,145.309,451.202,164.077,452.76,188.294z"/>
			<path style="fill:#1E120D;" d="M446.92,164.85c0,0-7.661-0.965-12.15-8.198c0,0-13.468,10.686-52.265,7.82l-0.499,80.811
				c0,0-20.452,2.494-25.939-6.984l0.499-58.114c0,0,0.313-33.581,30.928-37.163c23.445-2.744,38.902,1.08,49.669,8.959
				C442.262,155.713,446.92,164.85,446.92,164.85z"/>
			<g>
				<path style="fill:none;stroke:#1E120D;stroke-width:1.2645;stroke-miterlimit:10;" d="M399.569,180.835
					c0,0,1.299,5.198,4.827,4.827c3.527-0.371,4.455-5.012,4.455-5.012"/>
				<path style="fill:none;stroke:#1E120D;stroke-width:1.2645;stroke-miterlimit:10;" d="M436.061,180.336
					c0,0,1.299,5.198,4.827,4.827c3.527-0.371,4.455-5.012,4.455-5.012"/>
				<g>
					<g>
						<path style="fill:none;stroke:#FFAC94;stroke-width:1.19;stroke-miterlimit:10;" d="M416.882,207.068
							c0,0,0.381,4.029,3.684,3.751c3.303-0.278,3.303-4.029,3.303-4.029"/>
						<g>
							<ellipse style="fill:#FFAC94;" cx="397.759" cy="198.523" rx="7.152" ry="4.454"/>
							<ellipse style="fill:#FFAC94;" cx="442.191" cy="198.523" rx="7.152" ry="4.454"/>
						</g>
					</g>
					<path style="fill:none;stroke:#FFAC94;stroke-width:1.2645;stroke-miterlimit:10;" d="M421.479,190.555
						c0,0,5.629-0.142,5.506,2.824c-0.141,3.388-5.223,2.259-5.223,2.259"/>
				</g>
			</g>
		</g>
	</g>
	<g>
		<g>
			<g>
				<path style="fill:#FBCAAB;" d="M232.171,398.927c0,0-2.289,9.69-1.942,15.198l3.594,0.707l2.353-15.54L232.171,398.927z"/>
				<path style="fill:#FBCAAB;" d="M263.516,399.358c0,0,1.203,9.713,0.856,15.221l-3.594,0.707l-0.985-15.699L263.516,399.358z"/>
				<g>
					<path style="fill:#CECBBE;" d="M240.795,386.64c0,0-2.728-0.758-4.85,1.819c-2.122,2.577-5.022,11.659-6.063,20.158
						l6.517,1.516L240.795,386.64z"/>
					<path style="fill:#CECBBE;" d="M255.193,386.337c0,0,3.956-0.575,5.599,2.712c2.896,5.793,4.015,13.652,4.042,21.353
						l-6.467,0.337L255.193,386.337z"/>
					<path style="fill:#CECBBE;" d="M233.823,414.831c0,0-3.535-19.027,6.972-28.191c0,0,7.855,1.335,14.398-0.303
						c2.77,2.308,7.942,12.622,5.734,28.915C260.927,415.252,247.767,417.256,233.823,414.831z"/>
				</g>
			</g>
			<path style="fill:#FBCAAB;" d="M247.967,390.762L247.967,390.762c-4.071,0.313-5.48-2.628-5.572-3.937l-0.019-9.377h11.182
				l0.009,8.094c0.001,1.149-0.253,2.307-0.874,3.274C251.918,390.026,250.62,390.954,247.967,390.762z"/>
		</g>
		<g>
			<path style="fill:#FBCAAB;" d="M296.151,339.666c0.139,18.732-20.998,39.512-46.9,39.512c-25.902,0-47.068-18.201-46.9-39.512
				c0.189-23.883,15.678-44.157,46.9-43.245C281.687,297.368,295.973,315.782,296.151,339.666z"/>
			<g>
				<g>
					<path style="fill:#1E120D;" d="M203.608,329.175c0,0-6.811,1.514-9.082,6.055C194.526,335.229,201.337,337.752,203.608,329.175
						z"/>
					<path style="fill:#1E120D;" d="M194.785,335.142c0,0-6.919,0.901-9.586,5.221C185.199,340.363,191.759,343.483,194.785,335.142
						z"/>
					<polygon style="fill:#1E120D;" points="185.816,340.226 172.496,337.767 171.574,340.636 177.721,341.968 171.881,344.119 
						173.828,347.091 					"/>
					<path style="fill:#FFA2A7;" d="M185.69,340.629c0-0.512-1.025-12.397-1.025-12.397l-4.201,1.742l-5.328,0.41L185.69,340.629z"
						/>
					<path style="fill:#FFA2A7;" d="M183.026,354.358c0.103-0.307,2.459-14.549,2.459-14.549l8.197,12.705l-5.533-0.922
						L183.026,354.358z"/>
				</g>
				<g>
					<path style="fill:#1E120D;" d="M293.419,328.589c0,0,6.874,1.197,9.352,5.628C302.771,334.218,296.084,337.053,293.419,328.589
						z"/>
					<path style="fill:#1E120D;" d="M302.509,334.142c0,0,6.954,0.58,9.817,4.773C312.325,338.915,305.917,342.335,302.509,334.142z
						"/>
					<polygon style="fill:#1E120D;" points="311.614,338.806 324.806,335.734 325.859,338.557 319.78,340.172 325.714,342.051 
						323.906,345.109 					"/>
					<path style="fill:#FFA2A7;" d="M311.968,339.302c-0.024-0.512,0.45-12.431,0.45-12.431l4.277,1.546l5.341,0.163
						L311.968,339.302z"/>
					<path style="fill:#FFA2A7;" d="M315.264,352.894c-0.116-0.302-3.129-14.42-3.129-14.42l-7.6,13.07l5.484-1.177L315.264,352.894
						z"/>
				</g>
				<path style="fill:#1E120D;" d="M271.494,311.695c0,0-48.728,28.539-68.666,17.875c0,0,2.362-38.866,39.809-37.923
					c2.652,0.067,5.302-0.186,7.926-0.58c10.863-1.633,40.223-2.142,44.393,38.875c0,0-21.412-0.75-47.851-17.294L271.494,311.695z"
					/>
			</g>
			<g>
				<path style="fill:#FBCAAB;" d="M202.636,340.922c0,0-11.75-8.653,0.6-10.981C203.236,329.941,208.674,339.421,202.636,340.922z"
					/>
				<path style="fill:#E9BBA1;" d="M203.246,336.789c0,0-0.063-4.197-1.822-3.717c-1.759,0.48-1.721,2.249-0.088,1.921
					C202.969,334.665,203.246,336.789,203.246,336.789z"/>
			</g>
			<g>
				<path style="fill:#FBCAAB;" d="M294.426,340.926c0,0,12.577-7.4,0.531-10.984C294.957,329.941,288.575,338.812,294.426,340.926z
					"/>
				<path style="fill:#E9BBA1;" d="M294.244,336.752c0,0,0.494-4.169,2.194-3.511c1.7,0.658,1.481,2.414-0.11,1.92
					C294.738,334.668,294.244,336.752,294.244,336.752z"/>
			</g>
			<g>
				<g>
					<g>
						<ellipse style="fill:#FFFFFF;" cx="227.315" cy="338.371" rx="3.436" ry="3.085"/>
						<circle style="fill:#1E120D;" cx="227.828" cy="338.217" r="2.718"/>
					</g>
					<g>
						<path style="fill:#FFFFFF;" d="M274.226,338.371c0,1.704-1.538,3.085-3.436,3.085c-1.898,0-3.436-1.381-3.436-3.085
							s1.539-3.085,3.436-3.085C272.688,335.287,274.226,336.668,274.226,338.371z"/>
						<circle style="fill:#1E120D;" cx="271.303" cy="338.217" r="2.718"/>
					</g>
				</g>
				<g>
					<g>
						<path style="fill:none;stroke:#FFAC94;stroke-width:1.19;stroke-miterlimit:10;" d="M246.755,360.487
							c0,0,0.381,4.029,3.684,3.751c3.303-0.278,3.303-4.029,3.303-4.029"/>
						<g>
							<ellipse style="fill:#FFAC94;" cx="222.631" cy="351.942" rx="7.152" ry="4.454"/>
							<ellipse style="fill:#FFAC94;" cx="272.064" cy="351.942" rx="7.152" ry="4.454"/>
						</g>
					</g>
					<path style="fill:none;stroke:#FFAC94;stroke-width:1.2445;stroke-miterlimit:10;" d="M247.6,343.398
						c0,0,5.54-0.14,5.419,2.779c-0.139,3.335-5.141,2.223-5.141,2.223"/>
				</g>
			</g>
		</g>
	</g>
	<g>
		<g>
			<path style="fill:#736955;" d="M135.018,201.796c0,0,6.051,3.817,7.614-2.699c0.971,2.791,5.46,2.791,5.863-1.803
				c0.002-0.02-0.01-0.028-0.008-0.028c2.044,0.235,3.562-1.908,2.985-6.486c-1.289-10.226-8.678-47.174-34.135-56.461
				c-9.18-3.349-28.661-5.523-43.406-1.31c0,0-39.949,7.259-36.611,58.661c0.085,1.312,0.42,6.554,1.616,7.102
				c0.909,0.416,1.988,0.445,2.912-0.826c0,0,3.08,5.903,5.903,1.797c0,0,2.567,4.62,6.16,1.027
				C53.911,200.77,86.261,206.019,135.018,201.796z"/>
			<path style="fill:#FBCAAB;" d="M143.4,189.635c0.449,17.578-22.164,41.915-49.506,41.915s-48.342-20.469-49.506-41.915
				c-1.366-25.174,16.549-46.611,49.506-45.648C128.133,144.987,142.755,164.432,143.4,189.635z"/>
			<path style="fill:#736955;" d="M92.7,161.955c0,0-10.251,13.856-48.544,19.777c0,0,0.065-35.767,39.439-41.973
				c19.959-3.146,31.072,2.14,39.698,7.253c8.452,5.01,22.334,15.373,23.726,29.807C147.019,176.819,115.444,181.571,92.7,161.955z"
				/>
			<g>
				<g>
					<g>
						<path style="fill:#FFFFFF;" d="M76.105,190.147c0,1.704-1.538,3.085-3.436,3.085c-1.898,0-3.436-1.381-3.436-3.085
							s1.538-3.085,3.436-3.085C74.566,187.062,76.105,188.443,76.105,190.147z"/>
						<path style="fill:#1E120D;" d="M75.899,189.78c0,1.501-1.217,2.718-2.718,2.718c-1.501,0-2.718-1.217-2.718-2.718
							s1.217-2.718,2.718-2.718C74.682,187.062,75.899,188.279,75.899,189.78z"/>
					</g>
					<g>
						<path style="fill:#FFFFFF;" d="M116.181,190.147c0,1.704-1.538,3.085-3.436,3.085c-1.898,0-3.436-1.381-3.436-3.085
							s1.538-3.085,3.436-3.085C114.642,187.062,116.181,188.443,116.181,190.147z"/>
						<path style="fill:#1E120D;" d="M115.975,189.992c0,1.501-1.217,2.718-2.718,2.718s-2.718-1.217-2.718-2.718
							c0-1.501,1.217-2.718,2.718-2.718S115.975,188.491,115.975,189.992z"/>
					</g>
				</g>
				<g>
					<path style="fill:none;stroke:#FFAC94;stroke-width:1.2445;stroke-miterlimit:10;" d="M94.084,195.435
						c0,0-5.54-0.14-5.419,2.779c0.139,3.335,5.141,2.223,5.141,2.223"/>
					<g>
						<path style="fill:none;stroke:#FFAC94;stroke-width:1.19;stroke-miterlimit:10;" d="M91.669,213.353
							c0,0,0.381,4.029,3.684,3.752c3.303-0.278,3.303-4.03,3.303-4.03"/>
						<g>
							<ellipse style="fill:#FFAC94;" cx="67.546" cy="204.808" rx="7.152" ry="4.454"/>
							<ellipse style="fill:#FFAC94;" cx="116.978" cy="204.808" rx="7.152" ry="4.454"/>
						</g>
					</g>
				</g>
			</g>
			<g>
				<path style="fill:#FBCAAB;" d="M44.496,193.824c0,0-9.998-10.629,2.57-10.693C47.066,183.131,50.706,193.436,44.496,193.824z"/>
				<path style="fill:#E9BBA1;" d="M45.841,189.869c0,0,0.695-4.14-1.122-3.985c-1.817,0.155-2.098,1.902-0.433,1.874
					C45.952,187.73,45.841,189.869,45.841,189.869z"/>
			</g>
			<g>
				<path style="fill:#FBCAAB;" d="M143.56,191.487c0,0,10.291-10.346-2.27-10.76C141.29,180.726,137.364,190.925,143.56,191.487z"
					/>
				<path style="fill:#E9BBA1;" d="M142.326,187.495c0,0-0.579-4.158,1.233-3.952c1.812,0.206,2.044,1.959,0.38,1.885
					C142.276,185.354,142.326,187.495,142.326,187.495z"/>
			</g>
			<g>
				<path style="fill:#FFA2A7;" d="M62.391,142.461l-8.914-11.966l6.749-3.196l4.383,14.579l-1.425-15.356l4.678-1.15l0.351,16.982
					C68.212,142.355,67.012,145.911,62.391,142.461z"/>
				<path style="fill:#FFA2A7;" d="M49.596,166.794c0,0-0.353-33.392,44.753-31.048c40.137,2.085,40.794,26.264,40.794,26.264
					l-1.193,1.028c0,0-3.284-21.338-39.843-23.567c-39.548-2.412-43.679,29.178-43.679,29.178L49.596,166.794z"/>
			</g>
		</g>
		<g>
			<g>
				<path style="fill:#FBCAAB;" d="M78.371,251.247c0,0-2.289,9.69-1.942,15.198l3.594,0.707l2.353-15.54L78.371,251.247z"/>
				<path style="fill:#FBCAAB;" d="M109.716,251.679c0,0,1.202,9.713,0.856,15.221l-3.594,0.707l-0.985-15.699L109.716,251.679z"/>
				<g>
					<path style="fill:#FF191A;" d="M86.995,238.961c0,0-2.728-0.758-4.85,1.819c-2.122,2.576-5.022,11.659-6.063,20.158
						l6.517,1.516L86.995,238.961z"/>
					<path style="fill:#FF191A;" d="M101.393,238.658c0,0,3.956-0.575,5.599,2.712c2.896,5.793,4.016,13.652,4.042,21.353
						l-6.467,0.337L101.393,238.658z"/>
					<path style="fill:#FF191A;" d="M80.023,267.151c0,0-3.535-19.027,6.972-28.191c0,0,7.855,1.335,14.398-0.303
						c2.77,2.308,7.942,12.622,5.734,28.915C107.127,267.572,93.967,269.576,80.023,267.151z"/>
				</g>
			</g>
			<path style="fill:#FBCAAB;" d="M94.167,243.083L94.167,243.083c-4.071,0.313-5.48-2.629-5.572-3.937l-0.019-9.377h11.182
				l0.009,8.094c0.001,1.149-0.254,2.307-0.874,3.274C98.118,242.347,96.82,243.275,94.167,243.083z"/>
		</g>
	</g>
	<g>
		<g>
			<polygon style="fill:#FBCAAB;" points="213.684,154.57 210.445,163.419 222.132,159.975 			"/>
			<path style="fill:#FBCAAB;" d="M294.763,190.193c0.987,19.408-20.998,42.001-46.9,42.001c-25.902,0-45.427-21.234-46.9-42.001
				c-1.69-23.824,15.678-44.157,46.9-43.245C280.3,147.895,293.55,166.339,294.763,190.193z"/>
			<path style="fill:#C53601;" d="M215.096,143.289c0,0-21.965,0.998-26.567,30.118c-1.254,7.935-0.246,16.132,3.376,23.303
				c2.876,5.695,8.396,9.863,14.77,11.344l-6.018-18.823c0,0-6.564-9.718,3.176-10.631c0,0,10.654-9.132,10.654-23.743
				c0,0,13.089,33.788,73.664,19.177c0,0,10.411,10.758,3.066,31.144c0,0,15.491-1.966,16.111-22.925
				C308.293,149.576,246.172,97.647,215.096,143.289z"/>
			<g>
				<path style="fill:#FFA2A7;" d="M210.861,143.717l-9.44-11.556l6.599-3.494l5.03,14.368l-2.11-15.277l4.622-1.358l1.109,16.95
					C216.672,143.351,215.632,146.957,210.861,143.717z"/>
				<path style="fill:#FFA2A7;" d="M199.167,168.597c0,0-1.845-33.342,43.321-33.017c40.19,0.29,41.927,24.415,41.927,24.415
					l-1.145,1.08c0,0-4.234-21.17-40.857-21.763c-39.616-0.642-42.332,31.101-42.332,31.101L199.167,168.597z"/>
			</g>
			<g>
				<g>
					<g>
						<g>
							<path style="fill:none;stroke:#FFAC94;stroke-width:1.19;stroke-miterlimit:10;" d="M245.111,211.464
								c0,0,0.381,4.029,3.684,3.751c3.303-0.278,3.303-4.029,3.303-4.029"/>
							<g>
								<ellipse style="fill:#FFAC94;" cx="220.987" cy="202.919" rx="7.152" ry="4.454"/>
								<ellipse style="fill:#FFAC94;" cx="270.42" cy="202.919" rx="7.152" ry="4.454"/>
							</g>
						</g>
						<path style="fill:none;stroke:#1E120D;stroke-width:1.2445;stroke-miterlimit:10;" d="M223.075,188.993
							c0,0,1.279,5.116,4.75,4.75c3.471-0.366,4.385-4.933,4.385-4.933"/>
						<path style="fill:none;stroke:#1E120D;stroke-width:1.2445;stroke-miterlimit:10;" d="M260.759,188.8
							c0,0,1.279,5.116,4.75,4.75s4.385-4.933,4.385-4.933"/>
						<path style="fill:none;stroke:#FFAC94;stroke-width:1.2445;stroke-miterlimit:10;" d="M247.69,195.663
							c0,0-3.837-3.471-5.664,0.548c-1.827,4.02,4.202,2.923,4.202,2.923"/>
					</g>
					<g>
						
							<ellipse transform="matrix(0.038 -0.9993 0.9993 0.038 29.0245 410.7561)" style="fill:none;stroke:#1E120D;stroke-width:1.0543;stroke-miterlimit:10;" cx="227.847" cy="190.304" rx="12.122" ry="12.596"/>
						<path style="fill:none;stroke:#1E120D;stroke-width:1.0543;stroke-miterlimit:10;" d="M277.586,191.224
							c-0.254,6.69-6.096,11.9-13.048,11.635c-6.952-0.264-12.381-5.902-12.127-12.592c0.254-6.69,6.096-11.899,13.048-11.635
							S277.841,184.533,277.586,191.224z"/>
						<path style="fill:none;stroke:#1E120D;stroke-width:1.0543;stroke-miterlimit:10;" d="M240.434,190.782
							c0,0,4.916-5.793,11.978-0.515"/>
						<path style="fill:none;stroke:#1E120D;stroke-width:1.0543;stroke-miterlimit:10;" d="M216.048,185.815l-13.275-6.929
							c0,0-4.722-2.328-3.856,6.613"/>
						<path style="fill:none;stroke:#1E120D;stroke-width:1.0543;stroke-miterlimit:10;" d="M277.114,186.358l13.999-7.747
							c0,0,3.974-1.556,3.488,3.19"/>
					</g>
				</g>
				<g>
					<path style="fill:#FBCAAB;" d="M200.734,189.304c0,0-7.857-8.353-0.886-10.294c1.931-0.538,3.893,0.726,4.248,2.699
						C204.648,184.777,204.693,189.056,200.734,189.304z"/>
					<path style="fill:#E9BBA1;" d="M202.078,185.348c0,0,0.695-4.14-1.122-3.985c-1.817,0.155-2.098,1.902-0.433,1.874
						C202.189,183.209,202.078,185.348,202.078,185.348z"/>
				</g>
				<g>
					<path style="fill:#FBCAAB;" d="M293.494,189.593c0,0,9.496-9.547-0.889-10.666c-0.815-0.088-1.581,0.427-1.813,1.214
						C289.975,182.911,288.684,189.157,293.494,189.593z"/>
					<path style="fill:#E9BBA1;" d="M292.26,185.602c0,0-0.579-4.158,1.233-3.952c1.812,0.206,2.044,1.959,0.38,1.885
						C292.21,183.46,292.26,185.602,292.26,185.602z"/>
				</g>
			</g>
		</g>
		<g>
			<g>
				<path style="fill:#FBCAAB;" d="M231.278,251.247c0,0-2.289,9.69-1.942,15.198l3.594,0.707l2.353-15.54L231.278,251.247z"/>
				<path style="fill:#FBCAAB;" d="M262.623,251.679c0,0,1.202,9.713,0.856,15.221l-3.594,0.707l-0.985-15.699L262.623,251.679z"/>
				<g>
					<path style="fill:#6C5D5C;" d="M239.901,238.961c0,0-2.728-0.758-4.85,1.819c-2.122,2.576-5.022,11.659-6.063,20.158
						l6.517,1.516L239.901,238.961z"/>
					<path style="fill:#6C5D5C;" d="M254.3,238.658c0,0,3.956-0.575,5.599,2.712c2.897,5.793,4.016,13.652,4.042,21.353
						l-6.467,0.337L254.3,238.658z"/>
					<path style="fill:#6C5D5C;" d="M232.929,267.151c0,0-3.535-19.027,6.972-28.191c0,0,7.855,1.335,14.398-0.303
						c2.77,2.308,7.942,12.622,5.734,28.915C260.034,267.572,246.873,269.576,232.929,267.151z"/>
				</g>
			</g>
			<path style="fill:#FBCAAB;" d="M247.074,243.083L247.074,243.083c-4.071,0.313-5.48-2.629-5.572-3.937l-0.019-9.377h11.182
				l0.009,8.094c0.001,1.149-0.254,2.307-0.874,3.274C251.025,242.347,249.727,243.275,247.074,243.083z"/>
		</g>
	</g>
	<g>
		<text transform="matrix(1 0 0 1 209.0309 101.3926)" style="fill:#C2B0B1; font-family:'OpenSans'; font-size:12.0548px;">COLLECTION</text>
		<g>
			<text transform="matrix(1 0 0 1 147.8927 83.4391)" style="fill:#FD191A; font-family:'LearningCurve'; font-size:33.0172px;">Children Character</text>
		</g>
	</g>
</g>
<g id="Designed_by_Freepik">
	<g>
		<g id="XMLID_319_">
			<g id="XMLID_338_">
				<path id="XMLID_346_" style="fill:#002338;" d="M260.104,465.465c-0.432,0.443-0.803,0.931-1.108,1.453l-0.465-0.241
					c-0.067-0.298-0.349-0.503-0.659-0.466c-0.331,0.039-0.568,0.339-0.529,0.67c0.039,0.331,0.339,0.568,0.67,0.529
					c0.065-0.008,0.127-0.026,0.183-0.052l0.452,0.234c-0.251,0.554-0.433,1.139-0.539,1.744l0.747,0.132
					c0.23-1.306,0.85-2.507,1.792-3.473L260.104,465.465z"/>
				<path id="XMLID_345_" style="fill:#002338;" d="M265.592,463.163c-0.171,0-0.341,0.006-0.51,0.017l-0.074-0.626
					c0.188-0.149,0.296-0.389,0.266-0.645c-0.046-0.393-0.402-0.674-0.795-0.628c-0.393,0.046-0.674,0.402-0.628,0.795
					c0.03,0.254,0.189,0.461,0.405,0.564l0.073,0.624c-0.714,0.116-1.403,0.332-2.06,0.646l0.327,0.684
					c0.934-0.447,1.942-0.673,2.995-0.673c0.496,0,0.993,0.053,1.475,0.158l0.161-0.741
					C266.692,463.222,266.142,463.163,265.592,463.163z"/>
				<path id="XMLID_344_" style="fill:#002338;" d="M272.194,465.711c0.331-0.04,0.566-0.341,0.526-0.672
					c-0.04-0.331-0.341-0.566-0.672-0.526c-0.309,0.038-0.535,0.304-0.53,0.609l-0.416,0.363c-0.418-0.43-0.89-0.813-1.408-1.139
					l-0.404,0.641c1.134,0.715,2.021,1.726,2.563,2.925l0.691-0.313c-0.251-0.554-0.568-1.072-0.942-1.545l0.402-0.351
					C272.065,465.716,272.129,465.719,272.194,465.711z"/>
				<path id="XMLID_343_" style="fill:#002338;" d="M265.044,473.372c-0.386,0.023-0.775,0.035-1.157,0.035
					c-0.88,0-1.733-0.061-2.478-0.179c-0.39-0.062-0.846-0.155-1.27-0.292c1.046,1.861,3.069,3.125,5.388,3.125
					c2.855,0,5.262-1.916,5.95-4.504c-0.682,0.449-1.505,0.825-2.459,1.123C267.839,473.047,266.464,473.286,265.044,473.372z"/>
				<path id="XMLID_339_" style="fill:#002338;" d="M265.592,464.68c-3.352,0-6.08,2.666-6.08,5.943
					c0,0.426,0.046,0.849,0.137,1.261c0.673,0.483,2.706,0.89,5.348,0.731c2.879-0.173,5.297-0.957,6.672-2.159
					c-0.005-0.195-0.021-0.39-0.045-0.582C271.244,466.913,268.65,464.68,265.592,464.68z M263.432,471.194
					c-1.02,0-1.85-0.83-1.85-1.85c0-1.02,0.83-1.85,1.85-1.85c1.02,0,1.85,0.83,1.85,1.85
					C265.282,470.365,264.452,471.194,263.432,471.194z M268.17,470.286c-0.75,0-1.36-0.61-1.36-1.36s0.61-1.361,1.36-1.361
					c0.75,0,1.361,0.61,1.361,1.361S268.92,470.286,268.17,470.286z"/>
			</g>
			<path id="XMLID_336_" style="fill:#002338;" d="M281.595,466.547c-0.295-0.116-0.805-0.309-1.382-0.237
				c-0.551,0.069-0.844,0.341-0.844,1.007v0.866h2.228v1.717h-2.228v5.455h-1.932v-5.455h-1.34v-1.717h1.34v-0.888
				c0-1.68,0.896-2.783,2.568-2.783c0.643,0,1.157,0.122,1.59,0.308L281.595,466.547z"/>
			<path id="XMLID_334_" style="fill:#002338;" d="M286.298,469.879c-0.177-0.03-0.358-0.046-0.526-0.046
				c-0.896,0-1.51,0.548-1.51,1.614v3.908h-1.932v-7.172h1.873v0.785c0.451-0.673,1.14-0.977,2.021-0.977
				c0.414,0,0.848,0.128,1.094,0.337L286.298,469.879z"/>
			<path id="XMLID_331_" style="fill:#002338;" d="M293.965,471.757c0,0.222-0.015,0.489-0.037,0.651h-5.085
				c0.207,1.036,0.933,1.488,1.843,1.488c0.622,0,1.295-0.252,1.813-0.688l1.132,1.243c-0.814,0.748-1.85,1.088-3.057,1.088
				c-2.198,0-3.723-1.495-3.723-3.753c0-2.258,1.48-3.797,3.627-3.797C292.544,467.99,293.958,469.522,293.965,471.757z
				 M288.851,471.091h3.175c-0.177-0.918-0.733-1.436-1.562-1.436C289.554,469.655,289.021,470.203,288.851,471.091z"/>
			<path id="XMLID_328_" style="fill:#002338;" d="M301.618,471.757c0,0.222-0.015,0.489-0.037,0.651h-5.085
				c0.207,1.036,0.933,1.488,1.843,1.488c0.622,0,1.295-0.252,1.813-0.688l1.132,1.243c-0.814,0.748-1.85,1.088-3.057,1.088
				c-2.198,0-3.723-1.495-3.723-3.753c0-2.258,1.48-3.797,3.627-3.797C300.197,467.99,301.611,469.522,301.618,471.757z
				 M296.504,471.091h3.175c-0.178-0.918-0.733-1.436-1.562-1.436C297.207,469.655,296.674,470.203,296.504,471.091z"/>
			<path id="XMLID_325_" style="fill:#002338;" d="M309.964,471.764c0,2.154-1.495,3.775-3.471,3.775
				c-0.962,0-1.643-0.378-2.109-0.933v3.708h-1.924v-10.133h1.887v0.792c0.466-0.585,1.155-0.984,2.139-0.984
				C308.469,467.99,309.964,469.61,309.964,471.764z M304.287,471.764c0,1.132,0.747,1.976,1.843,1.976
				c1.14,0,1.85-0.881,1.85-1.976c0-1.095-0.71-1.976-1.85-1.976C305.035,469.788,304.287,470.632,304.287,471.764z"/>
			<path id="XMLID_322_" style="fill:#002338;" d="M313.068,465.836c0,0.696-0.54,1.229-1.236,1.229
				c-0.696,0-1.229-0.533-1.229-1.229c0-0.696,0.533-1.243,1.229-1.243C312.527,464.592,313.068,465.14,313.068,465.836z
				 M312.809,475.354h-1.932v-7.172h1.932V475.354z"/>
			<path id="XMLID_320_" style="fill:#002338;" d="M316.032,470.736l2.701-2.554h2.368l-3.479,3.375l3.501,3.797h-2.376
				l-2.716-2.901v2.901H314.1v-10.658h1.932V470.736z"/>
		</g>
		<g>
			<path style="fill:#002338;" d="M184.412,475.289v-1.055c-0.527,0.718-1.391,1.23-2.387,1.23c-1.846,0-3.149-1.406-3.149-3.706
				c0-2.256,1.289-3.721,3.149-3.721c0.952,0,1.816,0.469,2.387,1.245v-3.765h1.099v9.77H184.412z M184.412,473.37v-3.208
				c-0.395-0.615-1.245-1.143-2.124-1.143c-1.421,0-2.27,1.172-2.27,2.739c0,1.567,0.85,2.724,2.27,2.724
				C183.168,474.483,184.017,473.986,184.412,473.37z"/>
			<path style="fill:#002338;" d="M186.932,471.744c0-2.051,1.465-3.706,3.486-3.706c2.139,0,3.398,1.67,3.398,3.794v0.279h-5.727
				c0.088,1.333,1.025,2.446,2.549,2.446c0.805,0,1.626-0.322,2.182-0.894l0.527,0.718c-0.703,0.703-1.655,1.084-2.812,1.084
				C188.44,475.465,186.932,473.956,186.932,471.744z M190.403,468.947c-1.509,0-2.256,1.274-2.314,2.358h4.643
				C192.718,470.25,192.015,468.947,190.403,468.947z"/>
			<path style="fill:#002338;" d="M194.607,474.351l0.571-0.791c0.469,0.542,1.362,1.011,2.329,1.011c1.084,0,1.67-0.513,1.67-1.216
				c0-1.714-4.38-0.659-4.38-3.281c0-1.098,0.952-2.036,2.636-2.036c1.201,0,2.051,0.454,2.622,1.026l-0.513,0.762
				c-0.424-0.513-1.201-0.894-2.109-0.894c-0.967,0-1.567,0.483-1.567,1.113c0,1.552,4.38,0.527,4.38,3.281
				c0,1.187-0.952,2.138-2.783,2.138C196.306,475.465,195.325,475.113,194.607,474.351z"/>
			<path style="fill:#002338;" d="M201.477,466.471c0-0.41,0.337-0.747,0.732-0.747c0.41,0,0.747,0.337,0.747,0.747
				c0,0.41-0.337,0.732-0.747,0.732C201.814,467.203,201.477,466.881,201.477,466.471z M201.667,475.289v-7.075h1.099v7.075H201.667
				z"/>
			<path style="fill:#002338;" d="M204.582,477.105l0.556-0.82c0.586,0.703,1.289,0.967,2.3,0.967c1.172,0,2.27-0.571,2.27-2.124
				v-1.011c-0.513,0.718-1.377,1.26-2.373,1.26c-1.845,0-3.149-1.377-3.149-3.662c0-2.27,1.289-3.677,3.149-3.677
				c0.952,0,1.802,0.469,2.373,1.245v-1.069h1.098v6.87c0,2.344-1.641,3.076-3.369,3.076
				C206.237,478.16,205.417,477.926,204.582,477.105z M209.709,473.253v-3.091c-0.381-0.615-1.23-1.143-2.109-1.143
				c-1.421,0-2.27,1.128-2.27,2.695c0,1.553,0.849,2.695,2.27,2.695C208.478,474.41,209.328,473.868,209.709,473.253z"/>
			<path style="fill:#002338;" d="M217.413,475.289v-4.629c0-1.245-0.63-1.641-1.582-1.641c-0.865,0-1.685,0.527-2.095,1.099v5.17
				h-1.099v-7.075h1.099v1.025c0.498-0.586,1.465-1.201,2.519-1.201c1.48,0,2.256,0.747,2.256,2.285v4.966H217.413z"/>
			<path style="fill:#002338;" d="M219.932,471.744c0-2.051,1.465-3.706,3.486-3.706c2.139,0,3.398,1.67,3.398,3.794v0.279h-5.727
				c0.088,1.333,1.025,2.446,2.549,2.446c0.806,0,1.626-0.322,2.183-0.894l0.527,0.718c-0.703,0.703-1.655,1.084-2.812,1.084
				C221.441,475.465,219.932,473.956,219.932,471.744z M223.404,468.947c-1.509,0-2.256,1.274-2.314,2.358h4.643
				C225.718,470.25,225.015,468.947,223.404,468.947z"/>
			<path style="fill:#002338;" d="M233.35,475.289v-1.055c-0.527,0.718-1.392,1.23-2.388,1.23c-1.846,0-3.149-1.406-3.149-3.706
				c0-2.256,1.289-3.721,3.149-3.721c0.952,0,1.817,0.469,2.388,1.245v-3.765h1.098v9.77H233.35z M233.35,473.37v-3.208
				c-0.396-0.615-1.245-1.143-2.124-1.143c-1.421,0-2.27,1.172-2.27,2.739c0,1.567,0.849,2.724,2.27,2.724
				C232.105,474.483,232.954,473.986,233.35,473.37z"/>
			<path style="fill:#002338;" d="M239.692,475.289v-9.77h1.098v3.765c0.572-0.776,1.421-1.245,2.388-1.245
				c1.845,0,3.149,1.465,3.149,3.721c0,2.299-1.304,3.706-3.149,3.706c-0.996,0-1.86-0.513-2.388-1.23v1.055H239.692z
				 M242.9,474.483c1.436,0,2.285-1.157,2.285-2.724c0-1.568-0.85-2.739-2.285-2.739c-0.864,0-1.728,0.527-2.109,1.143v3.208
				C241.171,473.986,242.036,474.483,242.9,474.483z"/>
			<path style="fill:#002338;" d="M247.528,477.061c0.161,0.073,0.425,0.117,0.601,0.117c0.483,0,0.805-0.161,1.055-0.747
				l0.469-1.069l-2.959-7.148h1.187l2.358,5.8l2.344-5.8h1.201l-3.545,8.51c-0.425,1.025-1.143,1.421-2.08,1.435
				c-0.234,0-0.601-0.044-0.806-0.103L247.528,477.061z"/>
		</g>
	</g>
</g>
</svg>
