<?xml version="1.0" encoding="utf-8"?>
<svg xmlns="http://www.w3.org/2000/svg" viewBox="0 0 500 500">
  <g xmlns="http://www.w3.org/2000/svg" transform="matrix(3.700105, 0, 0, 4.240813, -672.093262, -1175.439819)" style="">
    <g>
      <g>
        <g/>
      </g>
    </g>
    <g>
      <path style="fill:#FBCAAB;" d="M296.151,339.666c0.139,18.732-20.998,39.512-46.9,39.512c-25.902,0-47.068-18.201-46.9-39.512     c0.189-23.883,15.678-44.157,46.9-43.245C281.687,297.368,295.973,315.782,296.151,339.666z"/>
      <g>
        <g>
          <path style="fill:#1E120D;" d="M203.608,329.175c0,0-6.811,1.514-9.082,6.055C194.526,335.229,201.337,337.752,203.608,329.175       z"/>
          <path style="fill:#1E120D;" d="M194.785,335.142c0,0-6.919,0.901-9.586,5.221C185.199,340.363,191.759,343.483,194.785,335.142       z"/>
          <polygon style="fill:#1E120D;" points="185.816,340.226 172.496,337.767 171.574,340.636 177.721,341.968 171.881,344.119        173.828,347.091      "/>
          <path style="fill:#FFA2A7;" d="M185.69,340.629c0-0.512-1.025-12.397-1.025-12.397l-4.201,1.742l-5.328,0.41L185.69,340.629z"/>
          <path style="fill:#FFA2A7;" d="M183.026,354.358c0.103-0.307,2.459-14.549,2.459-14.549l8.197,12.705l-5.533-0.922       L183.026,354.358z"/>
        </g>
        <g>
          <path style="fill:#1E120D;" d="M293.419,328.589c0,0,6.874,1.197,9.352,5.628C302.771,334.218,296.084,337.053,293.419,328.589       z"/>
          <path style="fill:#1E120D;" d="M302.509,334.142c0,0,6.954,0.58,9.817,4.773C312.325,338.915,305.917,342.335,302.509,334.142z       "/>
          <polygon style="fill:#1E120D;" points="311.614,338.806 324.806,335.734 325.859,338.557 319.78,340.172 325.714,342.051        323.906,345.109      "/>
          <path style="fill:#FFA2A7;" d="M311.968,339.302c-0.024-0.512,0.45-12.431,0.45-12.431l4.277,1.546l5.341,0.163       L311.968,339.302z"/>
          <path style="fill:#FFA2A7;" d="M315.264,352.894c-0.116-0.302-3.129-14.42-3.129-14.42l-7.6,13.07l5.484-1.177L315.264,352.894       z"/>
        </g>
        <path style="fill:#1E120D;" d="M271.494,311.695c0,0-48.728,28.539-68.666,17.875c0,0,2.362-38.866,39.809-37.923      c2.652,0.067,5.302-0.186,7.926-0.58c10.863-1.633,40.223-2.142,44.393,38.875c0,0-21.412-0.75-47.851-17.294L271.494,311.695z"/>
      </g>
      <g>
        <path style="fill:#FBCAAB;" d="M202.636,340.922c0,0-11.75-8.653,0.6-10.981C203.236,329.941,208.674,339.421,202.636,340.922z"/>
        <path style="fill:#E9BBA1;" d="M203.246,336.789c0,0-0.063-4.197-1.822-3.717c-1.759,0.48-1.721,2.249-0.088,1.921      C202.969,334.665,203.246,336.789,203.246,336.789z"/>
      </g>
      <g>
        <path style="fill:#FBCAAB;" d="M294.426,340.926c0,0,12.577-7.4,0.531-10.984C294.957,329.941,288.575,338.812,294.426,340.926z      "/>
        <path style="fill:#E9BBA1;" d="M294.244,336.752c0,0,0.494-4.169,2.194-3.511c1.7,0.658,1.481,2.414-0.11,1.92      C294.738,334.668,294.244,336.752,294.244,336.752z"/>
      </g>
      <g>
        <g>
          <g>
            <ellipse style="fill:#FFFFFF;" cx="227.315" cy="338.371" rx="3.436" ry="3.085"/>
            <circle style="fill:#1E120D;" cx="227.828" cy="338.217" r="2.718"/>
          </g>
          <g>
            <path style="fill:#FFFFFF;" d="M274.226,338.371c0,1.704-1.538,3.085-3.436,3.085c-1.898,0-3.436-1.381-3.436-3.085        s1.539-3.085,3.436-3.085C272.688,335.287,274.226,336.668,274.226,338.371z"/>
            <circle style="fill:#1E120D;" cx="271.303" cy="338.217" r="2.718"/>
          </g>
        </g>
        <g>
          <g>
            <path style="fill:none;stroke:#FFAC94;stroke-width:1.19;stroke-miterlimit:10;" d="M246.755,360.487        c0,0,0.381,4.029,3.684,3.751c3.303-0.278,3.303-4.029,3.303-4.029"/>
            <g>
              <ellipse style="fill:#FFAC94;" cx="222.631" cy="351.942" rx="7.152" ry="4.454"/>
              <ellipse style="fill:#FFAC94;" cx="272.064" cy="351.942" rx="7.152" ry="4.454"/>
            </g>
          </g>
          <path style="fill:none;stroke:#FFAC94;stroke-width:1.2445;stroke-miterlimit:10;" d="M247.6,343.398       c0,0,5.54-0.14,5.419,2.779c-0.139,3.335-5.141,2.223-5.141,2.223"/>
        </g>
      </g>
    </g>
  </g>
</svg>