<svg t="1728924752974" class="icon" viewBox="0 0 1024 1024" version="1.1" xmlns="http://www.w3.org/2000/svg"
    p-id="11192" width="32" height="32">
    <path d="M507.6 508.2m-229.8 0a229.8 229.8 0 1 0 459.6 0 229.8 229.8 0 1 0-459.6 0Z" p-id="11193" fill="currentColor">
    </path>
    <path
        d="M507.6 952.9c-245.2 0-444.7-199.5-444.7-444.6S262.4 63.6 507.6 63.6s444.7 199.5 444.7 444.7-199.5 444.6-444.7 444.6z m0-837.2C291.2 115.7 115 291.8 115 508.3c0 216.5 176.1 392.6 392.7 392.6s392.7-176.1 392.7-392.6c-0.1-216.5-176.2-392.6-392.8-392.6z"
        p-id="11194" fill="currentColor"></path>
</svg>