<svg t="1701953972826" class="icon" viewBox="0 0 1024 1024" version="1.1" xmlns="http://www.w3.org/2000/svg" p-id="41660" width="64" height="64"><path d="M510 912H374a32 32 0 0 1-32-32V624a32 32 0 0 1 32-32h136a32 32 0 0 1 32 32v256a32 32 0 0 1-32 32z m-96-72h56V664h-56z" p-id="41661" fill="currentColor"></path><path d="M478.15 615.88h-72v-143a32 32 0 0 1 32-32h402.49v-176h-71.15v-72h111.15a32 32 0 0 1 32 32v256a32 32 0 0 1-32 32H478.15z" p-id="41662" fill="currentColor"></path><path d="M753 345H145a32 32 0 0 1-32-32V145a32 32 0 0 1 32-32h608a32 32 0 0 1 32 32v168a32 32 0 0 1-32 32z m-568-72h528v-88H185z" p-id="41663" fill="currentColor"></path></svg>