<svg t="1701912162321" class="icon" viewBox="0 0 1024 1024" version="1.1" xmlns="http://www.w3.org/2000/svg" p-id="29940" width="200" height="200"><path d="M192 128v768h361.6c84.288 0 149.76-15.04 196.288-45.184 54.4-36.544 82.112-92.48 82.112-169.92 0-51.648-13.312-93.632-39.936-124.8-26.624-31.168-66.56-51.648-118.656-61.312 39.936-13.952 69.824-35.52 92.032-63.488 22.208-30.08 33.28-66.688 33.28-109.696 0-59.136-21.12-105.408-63.232-139.84C691.2 145.28 631.232 128 553.6 128H192z m120.96 96.832h210.688c53.248 0 93.184 8.576 117.568 26.88 24.384 17.216 36.608 45.184 36.608 83.84 0 40.96-12.16 71.04-36.608 90.368-24.384 18.304-64.32 27.968-119.808 27.968H312.96v-229.12z m0 324.8h227.328c57.664 0 100.928 9.728 128.64 30.08 27.776 20.48 42.176 53.824 42.176 99.008 0 44.16-18.88 76.352-54.4 96.832-28.8 15.04-68.736 23.68-119.744 23.68h-224v-249.6z" fill="currentColor" p-id="29941"></path></svg>