<svg t="1700005943289" class="icon" viewBox="0 0 1024 1024" version="1.1" xmlns="http://www.w3.org/2000/svg" p-id="10543" width="200" height="200"><path d="M51.2 682.666667c201.5232 199.338667 314.299733 302.421333 338.261333 309.384533 23.995733 6.929067 171.008-30.958933 441.002667-113.732267 12.288-11.229867 15.36-24.405333 9.216-39.5264-6.144-15.121067-17.476267-22.664533-34.065067-22.664533l-359.560533 98.304 105.6768-379.050667 377.924267-102.331733-76.526934 333.482667c-2.594133 25.3952 5.085867 40.2432 23.005867 44.475733 17.954133 4.232533 31.982933-4.164267 42.120533-25.1904 69.802667-265.489067 101.546667-409.4976 95.232-432.128-6.314667-22.562133-111.616-128.648533-315.938133-318.190933-17.237333-4.471467-29.969067-3.310933-38.229333 3.515733-8.260267 6.826667-11.8784 19.114667-10.820267 36.864l269.755733 272.622933-395.434666 122.2656L229.034667 198.178133 591.086933 85.674667c14.2336-12.9024 19.114667-26.487467 14.574934-40.721067-4.539733-14.267733-15.428267-22.289067-32.699734-24.064-277.162667 77.141333-422.775467 122.88-436.804266 137.3184-13.994667 14.404267-52.701867 157.934933-116.053334 430.592 2.935467 17.271467 11.1616 27.989333 24.6784 32.187733 13.550933 4.1984 27.4432 0.375467 41.710934-11.434666L182.272 248.149333l301.192533 280.8832-101.376 366.455467-281.770666-258.1504c-14.199467-2.594133-26.248533-0.443733-36.113067 6.417067-9.898667 6.826667-14.2336 19.797333-13.038933 38.877866z" fill="currentColor" p-id="10544"></path></svg>