<svg t="1699962051853" class="icon" viewBox="0 0 1024 1024" version="1.1" xmlns="http://www.w3.org/2000/svg" p-id="8883" width="64" height="64"><path d="M512 1024c-31.030303 0-62.060606-7.757576-85.333333-23.272727l-302.545455-170.666667c-54.30303-31.030303-93.090909-93.090909-93.090909-155.151515v-325.818182c0-62.060606 38.787879-124.121212 93.090909-155.151515l302.545455-170.666667c54.30303-31.030303 116.363636-31.030303 170.666666 0l302.545455 170.666667c54.30303 31.030303 93.090909 93.090909 93.090909 155.151515v325.818182c0 62.060606-38.787879 124.121212-93.090909 155.151515l-302.545455 170.666667c-23.272727 15.515152-54.30303 23.272727-85.333333 23.272727z m0-961.939394c-23.272727 0-46.545455 7.757576-62.060606 15.515152l-302.545455 170.666666c-38.787879 23.272727-69.818182 62.060606-69.818181 108.606061v325.818182c0 46.545455 23.272727 85.333333 69.818181 108.60606l302.545455 170.666667c38.787879 23.272727 85.333333 23.272727 124.121212 0l302.545455-170.666667c38.787879-23.272727 69.818182-62.060606 69.818181-108.60606v-325.818182c0-46.545455-23.272727-85.333333-69.818181-108.606061l-302.545455-170.666666c-23.272727-7.757576-38.787879-15.515152-62.060606-15.515152z" opacity=".85" p-id="8884" fill="#515151"></path><path d="M512 543.030303l-426.666667-232.727273c-7.757576-7.757576-15.515152-15.515152-15.515151-23.272727 0-7.757576 7.757576-15.515152 7.757576-23.272727 7.757576-7.757576 15.515152-7.757576 23.272727 0l403.393939 224.969697 403.39394-224.969697c7.757576-7.757576 15.515152-7.757576 23.272727 0 7.757576 7.757576 15.515152 15.515152 15.515151 23.272727 0 7.757576-7.757576 15.515152-15.515151 23.272727l-418.909091 232.727273z" opacity=".85" p-id="8885" fill="#515151"></path><path d="M512 1000.727273c-15.515152 0-23.272727-7.757576-23.272727-23.272728v-457.696969c0-15.515152 7.757576-23.272727 23.272727-23.272728s23.272727 7.757576 23.272727 23.272728v457.696969c0 7.757576 0 15.515152-7.757575 15.515152 0 7.757576-7.757576 7.757576-15.515152 7.757576z" opacity=".85" p-id="8886" fill="#515151"></path></svg>