<svg t="1699962143487" class="icon" viewBox="0 0 1024 1024" version="1.1" xmlns="http://www.w3.org/2000/svg" p-id="9966" width="64" height="64"><path d="M871.370811 197.476607l-5.511527 0 0-28.360931c0-46.918589-38.166251-85.083817-85.083817-85.083817L213.546607 84.031858c-46.918589 0-85.083817 38.166251-85.083817 85.083817l0 28.360931-33.540907 0c-15.662725 0-28.360931 12.69923-28.360931 28.361955 0 15.662725 12.69923 28.360931 28.360931 28.360931l33.540907 0 0 28.360931c0 46.918589 38.166251 85.083817 85.083817 85.083817l567.227836 0c46.918589 0 85.083817-38.166251 85.083817-85.083817l0-28.360931 5.511527 0c15.635095 0 28.360931 12.726859 28.360931 28.360931l0 113.445772c0 15.635095-12.726859 28.360931-28.360931 28.360931L583.879074 424.367127l-32.529881 0-2.562359 0c-1.301645 0-2.580778 0.095167-3.835352 0.265036-43.937698 3.284813-78.68713 40.055275-78.68713 84.818781l0 82.96148c-17.164938 9.758248-28.76923 28.181853-28.76923 49.318242l0 255.252475c0 31.325449 25.468045 56.722886 56.793494 56.722886s56.793494-25.397437 56.793494-56.722886L551.08211 641.73169c0-20.859074-11.30037-39.076994-28.094872-48.931432l0-83.34829c0-15.635095 12.726859-28.361955 28.360931-28.361955l32.529881 0 287.491737 0c46.918589 0 85.083817-38.166251 85.083817-85.083817L956.453604 282.561447C956.455651 235.642858 918.2894 197.476607 871.370811 197.476607zM809.136398 282.561447c0 15.635095-12.726859 28.361955-28.360931 28.361955L213.546607 310.923402c-15.635095 0-28.360931-12.726859-28.360931-28.361955L185.185676 169.115676c0-15.635095 12.726859-28.360931 28.360931-28.360931l567.227836 0c15.635095 0 28.360931 12.726859 28.360931 28.360931L809.135374 282.561447z" fill="currentColor" p-id="9967"></path></svg>