<svg t="1700741540177" class="icon" viewBox="0 0 1024 1024" version="1.1" xmlns="http://www.w3.org/2000/svg" p-id="27902" width="64" height="64"><path d="M636.695273 69.818182c39.610182 0 76.381091 21.410909 95.930182 55.877818l39.214545 69.12h83.246545c93.137455 0 168.913455 75.752727 168.913455 168.890182v448.884363c0 93.137455-75.776 168.913455-168.913455 168.913455H168.913455C75.776 981.504 0 905.728 0 812.590545V363.706182C0 270.568727 75.776 194.792727 168.913455 194.792727h83.269818l39.191272-69.096727a110.545455 110.545455 0 0 1 95.953455-55.854545h249.367273z m0 93.090909H387.328a17.221818 17.221818 0 0 0-14.987636 8.727273l-52.596364 92.672A46.592 46.592 0 0 1 279.272727 287.883636H168.936727A75.915636 75.915636 0 0 0 93.090909 363.706182v448.884363a75.915636 75.915636 0 0 0 75.822546 75.822546h686.17309A75.915636 75.915636 0 0 0 930.909091 812.590545V363.706182a75.892364 75.892364 0 0 0-75.822546-75.822546H744.727273c-16.756364 0-32.209455-9.006545-40.494546-23.575272L651.636364 171.636364A17.221818 17.221818 0 0 0 636.718545 162.909091z m-116.945455 182.830545c133.678545 0 242.432 108.753455 242.432 242.408728 0 133.678545-108.753455 242.432-242.432 242.432s-242.432-108.753455-242.432-242.432c0-133.655273 108.753455-242.408727 242.432-242.408728z m0 93.090909a149.480727 149.480727 0 0 0-149.341091 149.317819 149.504 149.504 0 0 0 149.341091 149.341091 149.527273 149.527273 0 0 0 149.341091-149.341091 149.504 149.504 0 0 0-149.341091-149.317819z m294.167273-111.522909a46.126545 46.126545 0 1 1 0.023273 92.276364 46.126545 46.126545 0 0 1-0.023273-92.276364z" fill="currentColor" p-id="27903"></path></svg>