<svg t="1701775766029" class="icon" viewBox="0 0 1042 1024" version="1.1" xmlns="http://www.w3.org/2000/svg" p-id="30628" width="64" height="64"><path d="M513.828571 969.142857c-252.342857 0-457.142857-204.8-457.142857-457.142857s204.8-457.142857 457.142857-457.142857 457.142857 204.8 457.142858 457.142857-204.8 457.142857-457.142858 457.142857z m0-841.142857c-212.114286 0-384 171.885714-384 384s171.885714 384 384 384 384-171.885714 384-384-171.885714-384-384-384z" p-id="30629" fill="currentColor"></path><path d="M585.142857 391.314286c0-40.228571-25.6-69.485714-74.971428-69.485715-36.571429 0-67.657143 16.457143-96.914286 49.371429l-43.885714-40.228571c38.4-43.885714 87.771429-73.142857 151.771428-73.142858 84.114286 0 140.8 45.714286 140.8 126.171429 0 102.4-133.485714 120.685714-118.857143 219.428571h-69.485714c-20.114286-109.714286 111.542857-138.971429 111.542857-212.114285z m-128 334.628571c0-31.085714 21.942857-51.2 49.371429-51.2 27.428571 0 51.2 20.114286 51.2 51.2 0 31.085714-21.942857 51.2-51.2 51.2-29.257143 0-49.371429-21.942857-49.371429-51.2z" p-id="30630" fill="currentColor"></path></svg>