<svg t="1701957949515" class="icon" viewBox="0 0 1024 1024" version="1.1" xmlns="http://www.w3.org/2000/svg" p-id="4133" width="64" height="64"><path d="M0 127.619858C0 57.137357 57.24888 0 127.619858 0L896.380141 0C966.862643 0 1024 57.24888 1024 127.619858L1024 896.380141C1024 966.862643 966.751117 1024 896.380141 1024L127.619858 1024C57.137357 1024 0 966.751117 0 896.380141L0 127.619858ZM64 127.619858 64 896.380141C64 931.452058 92.530723 960 127.619858 960L896.380141 960C931.452058 960 960 931.46928 960 896.380141L960 127.619858C960 92.547944 931.46928 64 896.380141 64L127.619858 64C92.547944 64 64 92.530723 64 127.619858ZM554.813793 832 558.922825 809.931034C487.7481 808.165517 482.883679 801.10345 498.004918 719.889658L575.419083 304.110345C590.704683 222.013793 596.987402 216.717242 670.031053 213.186207L673.975725 192 439.161932 192 435.217261 213.186207C506.063264 216.717242 510.373648 222.013793 495.088049 304.110345L417.673884 719.889658C402.552645 801.10345 395.941203 808.165517 324.109032 809.931034L320 832 554.813793 832Z" fill="currentColor" p-id="4134"></path></svg>