<svg t="1729523003230" class="icon" viewBox="0 0 1024 1024" version="1.1" xmlns="http://www.w3.org/2000/svg" p-id="1451"
    width="32" height="32">
    <path
        d="M513.450667 175.274667a47.36 47.36 0 0 0-40.746667 0L129.365333 338.773333a2.346667 2.346667 0 0 0 0 4.266667l343.338667 163.498667c12.885333 6.144 27.861333 6.144 40.746667 0L856.746667 343.04a2.346667 2.346667 0 0 0 0-4.266667l-343.338667-163.498666z m36.693333-77.056l343.338667 163.541333a87.68 87.68 0 0 1 0 158.293333l-343.338667 163.541334a132.693333 132.693333 0 0 1-114.133333 0L92.672 420.096a87.68 87.68 0 0 1 0-158.336l343.338667-163.541333a132.693333 132.693333 0 0 1 114.133333 0z m337.152 417.493333a42.666667 42.666667 0 1 1 36.650667 77.098667l-373.802667 177.621333a132.778667 132.778667 0 0 1-114.304-0.085333l-369.024-177.664a42.666667 42.666667 0 1 1 37.034667-76.885334l368.853333 177.578667c12.885333 6.144 27.861333 6.144 40.789333 0l373.802667-177.664z m0 170.666667a42.666667 42.666667 0 1 1 36.650667 77.098666l-373.802667 177.621334a132.778667 132.778667 0 0 1-114.304-0.085334l-369.024-177.664a42.666667 42.666667 0 1 1 37.034667-76.885333l368.853333 177.578667c12.885333 6.144 27.861333 6.144 40.789333 0l373.802667-177.664z"
        fill="currentColor" p-id="1452"></path>
</svg>