<svg t="1701515656862" class="icon" viewBox="0 0 1024 1024" version="1.1" xmlns="http://www.w3.org/2000/svg" p-id="19341" width="64" height="64"><path d="M512 117.333333c-87.978667 0-160 72.021333-160 160a32 32 0 0 0 32 32 32 32 0 0 0 32-32c0-53.397333 42.602667-96 96-96s96 42.602667 96 96c0 8.021333-6.058667 31.381333-17.28 56.96-11.242667 25.557333-26.752 54.549333-42.389333 81.493334-31.253333 53.888-62.656 99.370667-62.656 99.370666a32 32 0 0 0 8.149333 44.501334 32 32 0 0 0 44.501333-8.149334s32.597333-47.146667 65.344-103.594666c16.362667-28.224 32.853333-58.816 45.632-87.872 12.757333-29.056 22.698667-55.381333 22.698667-82.709334 0-87.978667-72.021333-160-160-160z m0 408.704a159.872 159.872 0 0 0-87.210667 25.813334L93.077333 767.445333a32 32 0 0 0-0.042666 0A87.402667 87.402667 0 0 0 53.333333 840.661333c0 47.850667 39.488 87.338667 87.338667 87.338667h742.656c47.850667 0 87.338667-39.488 87.338667-87.338667a87.402667 87.402667 0 0 0-39.701334-73.194666 32 32 0 0 0-0.042666 0l-331.733334-215.637334A159.872 159.872 0 0 0 512 526.037333z m0 63.914667c18.197333 0 36.394667 5.184 52.330667 15.552L896.042667 821.12c6.656 4.330667 10.624 11.626667 10.624 19.541333 0 13.269333-10.069333 23.338667-23.338667 23.338667H140.672A22.869333 22.869333 0 0 1 117.333333 840.661333c0-7.914667 3.968-15.210667 10.624-19.541333l331.712-215.616A95.936 95.936 0 0 1 512 589.952z" p-id="19342" fill="currentColor"></path></svg>