<svg t="1699961928055" class="icon" viewBox="0 0 1024 1024" version="1.1" xmlns="http://www.w3.org/2000/svg" p-id="7794" width="64" height="64"><path d="M792.868571 507.794286c-4.754286 0-9.325714-1.828571-12.982857-5.302857L521.142857 243.748571a18.212571 18.212571 0 1 1 25.782857-25.782857l258.742857 258.742857a18.212571 18.212571 0 0 1-12.8 31.085715z" fill="#515151" p-id="7795"></path><path d="M428.8 871.862857c-4.754286 0-9.325714-1.828571-12.982857-5.302857L157.074286 607.817143a18.212571 18.212571 0 0 1 0-25.782857L571.794286 167.314286c26.514286-26.514286 72.777143-26.514286 99.108571 0l185.417143 185.417143c27.245714 27.245714 27.428571 71.862857 0 99.108571L441.782857 866.56c-3.657143 3.657143-8.228571 5.302857-12.982857 5.302857zM195.84 594.834286l232.96 232.96L830.537143 426.057143c12.982857-13.165714 12.982857-34.377143 0-47.36L644.937143 193.28c-12.617143-12.617143-34.742857-12.617143-47.36 0L195.84 594.834286z" fill="#515151" p-id="7796"></path><path d="M165.485714 876.434286c-4.754286 0-9.508571-2.011429-12.982857-5.302857a17.792 17.792 0 0 1-5.302857-13.165715l4.754286-263.131428a18.358857 18.358857 0 1 1 31.268571-12.617143l258.377143 258.377143c5.12 5.12 6.765714 12.982857 4.022857 19.748571-2.742857 6.765714-9.325714 11.337143-16.64 11.52l-263.131428 4.571429h-0.365715z m22.308572-238.08l-3.657143 201.142857 201.142857-3.657143-197.485714-197.485714z" fill="#515151" p-id="7797"></path></svg>