<svg t="1701699165522" class="icon" viewBox="0 0 1024 1024" version="1.1" xmlns="http://www.w3.org/2000/svg" p-id="27627" width="64" height="64"><path d="M984.083958 945.191404c21.493253 0 39.404298 17.3993 39.404298 39.404298 0 21.493253-17.3993 39.404298-39.404298 39.404298H42.474763c-21.493253 0-39.404298-17.3993-39.404298-39.404298 0-21.493253 17.3993-39.404298 39.404298-39.404298h941.609195zM910.392804 45.033483l18.422788 18.422789c56.291854 56.291854 56.291854 147.382309 0 203.674163L399.16042 796.785607c-26.098951 26.098951-59.362319 44.521739-95.696152 52.709645l-186.786607 41.963019c-29.169415 6.652674-54.756622-20.469765-46.056971-49.639181l53.221389-180.133933c9.211394-31.728136 26.098951-59.874063 49.63918-83.414292L706.718641 45.033483c56.291854-55.78011 147.382309-55.78011 203.674163 0z m-244.613694 151.988006L228.237881 634.562719c-13.817091 13.817091-24.051974 31.216392-29.681159 50.150924l-34.286857 116.165917 121.283358-27.122439c22.004998-5.117441 41.451274-15.864068 57.315343-31.728135l433.447276-433.447277-110.536732-111.56022zM762.498751 100.813593l-40.939531 40.93953 111.048476 111.048476 40.93953-40.93953c12.281859-12.281859 18.934533-28.657671 18.934533-46.056972 0-17.3993-6.652674-33.775112-18.934533-46.056971l-18.422788-18.422789c-25.587206-26.098951-67.038481-26.098951-92.625687-0.511744z m0 0" p-id="27628" fill="currentColor"></path></svg>