<svg t="1706445881006" class="icon" viewBox="0 0 1024 1024" version="1.1" xmlns="http://www.w3.org/2000/svg"
    p-id="13245" width="200" height="200">
    <path
        d="M958.464 958.464H1024V1024l-65.536-65.536zM851.968 174.08h-172.032v174.08h172.032V174.08zM0 0h423.936v423.936L337.92 337.92V88.064H88.064L0 0z m821.248 610.304h71.68v120.832h-71.68v-120.832z m-210.944 0H768V768l-157.696-157.696z m262.144 262.144l-88.064-88.064h153.6v-174.08H1024v262.144h-151.552z m65.536-436.224V88.064H595.968v348.16h342.016zM509.952 0H942.08A82.142609 82.142609 0 0 1 1024 81.92v440.32H509.952V0zM174.08 174.08h79.872v79.872L174.08 174.08z"
        fill="currentColor" p-id="13246"></path>
</svg>