<svg t="1700034690800" class="icon" viewBox="0 0 1024 1024" version="1.1" xmlns="http://www.w3.org/2000/svg"
    p-id="39774" width="200" height="200">
    <path
        d="M146.358 714C219.143 847.474 360.001 934 517 934c212.963 0 391.858-158.66 418.579-367.974 3.077-24.104 25.112-41.15 49.217-38.074 24.105 3.078 41.152 25.113 38.074 49.218C990.558 830.286 774.393 1022 517 1022c-173.766 0-331.173-87.715-424-226.4V911c0 24.3-19.7 44-44 44S5 935.3 5 911V670c0-24.3 19.7-44 44-44h241c24.3 0 44 19.7 44 44s-19.7 44-44 44H146.358z m736.284-404C809.857 176.526 668.999 90 512 90 299.037 90 120.142 248.66 93.421 457.974c-3.077 24.104-25.112 41.15-49.217 38.074C20.099 492.97 3.052 470.935 6.13 446.83 38.442 193.714 254.607 2 512 2c173.766 0 331.173 87.715 424 226.4V113c0-24.3 19.7-44 44-44s44 19.7 44 44v241c0 24.3-19.7 44-44 44H739c-24.3 0-44-19.7-44-44s19.7-44 44-44h143.642z"
        fill="currentColor" p-id="39775"></path>
</svg>