<svg t="1700034344961" class="icon" viewBox="0 0 1024 1024" version="1.1" xmlns="http://www.w3.org/2000/svg" p-id="30001" width="200" height="200"><path d="M867.415485 309.51513c85.926957 0 155.826087 69.89913 155.826087 155.826087v367.972174c0 85.926957-69.89913 155.826087-155.826087 155.826087h-529.808695c-85.926957 0-155.826087-69.89913-155.826087-155.826087v-367.972174c0-85.926957 69.89913-155.826087 155.826087-155.826087z m0 89.043479h-529.808695c-36.819478 0-66.782609 29.94087-66.782609 66.782608v367.972174c0 36.797217 29.96313 66.782609 66.782609 66.782609h529.808695c36.819478 0 66.782609-29.985391 66.782609-66.782609v-367.972174c0-36.841739-29.96313-66.782609-66.782609-66.782608zM0.933398 424.247652C48.816529 191.888696 248.452007 58.501565 534.370616 67.183304a45.657043 45.657043 0 0 1 27.625739 10.907826l2.226087 1.51374c1.202087 1.113043 1.936696 2.31513 2.448695 3.205565 1.224348 1.024 3.361391 4.006957 5.342609 7.613217 1.691826 3.027478 3.005217 6.41113 4.073739 10.462609a43.742609 43.742609 0 0 1-5.12 33.836522 36.953043 36.953043 0 0 1-2.31513 3.628521 15.649391 15.649391 0 0 1-2.80487 4.140522l-102.845217 108.321391c-17.252174 18.18713-49.485913 17.452522-65.981218-1.55826-7.078957-8.147478-7.635478-22.861913-7.969391-46.169044-0.133565-10.618435-0.400696-29.606957-3.027478-36.10713-161.947826 31.031652-267.686957 128.667826-297.850435 275.233391a44.677565 44.677565 0 0 1-52.602435 34.615652 44.610783 44.610783 0 0 1-34.637913-52.580174z" fill="currentColor" p-id="30002"></path></svg>