<svg t="1700005868382" class="icon" viewBox="0 0 1024 1024" version="1.1" xmlns="http://www.w3.org/2000/svg" p-id="7228" width="200" height="200"><path d="M814.8 984.2H207.2c-9.2 0-17.8-3.6-24.2-10.2s-9.8-15.4-9.6-24.4l14.4-510.2v-1.6c0-0.6 0-1-0.2-1.6 0-0.6-0.2-1-0.4-1.6-0.2-0.6-0.2-1-0.4-1.6-0.2-0.4-0.4-1-0.6-1.4-0.2-0.4-0.4-1-0.8-1.4-0.2-0.4-0.6-0.8-0.8-1.4-0.4-0.4-0.6-0.8-1-1.2-0.4-0.4-0.8-0.8-1-1.2-0.4-0.4-0.8-0.8-1.2-1-0.4-0.4-0.8-0.6-1.2-1-0.4-0.2-0.8-0.6-1.4-0.8-0.4-0.2-1-0.4-1.4-0.6-0.4-0.2-1-0.4-1.4-0.6-0.6-0.2-1-0.2-1.6-0.4-0.4-0.2-1-0.2-1.6-0.2l-103-11.6c-14.8-1.6-26.6-12.8-29.4-27.2L5.4 197.4c-3-16.4 6.2-32.6 22-38.2l308.8-108c0.4-0.2 1-0.4 1.4-0.4l16.6-5.8c10.8-3.8 22-5.6 33.4-5.6 3.8 0 7.6 0.6 11.2 2 0.4 0.2 44.4 15 112.4 15s112-14.8 112.4-15c3.6-1.2 7.2-1.8 11-1.8 11.4 0 22.6 2 33.4 5.6l16.6 5.8c0.4 0.2 1 0.4 1.4 0.4l308.6 108c15.8 5.6 25.2 21.8 22 38.2l-35 185.6c-2.8 14.6-14.6 25.6-29.4 27.2l-103.2 11.6c-0.6 0-1 0.2-1.6 0.2-0.4 0.2-1 0.2-1.6 0.4-0.6 0.2-1 0.4-1.4 0.6-0.6 0.2-1 0.4-1.4 0.6-0.4 0.2-1 0.6-1.4 0.8-0.4 0.2-0.8 0.6-1.2 1-0.4 0.4-0.8 0.6-1.2 1l-1.2 1.2c-0.4 0.4-0.6 0.8-1 1.2-0.2 0.4-0.6 0.8-0.8 1.4-0.2 0.4-0.6 1-0.8 1.4-0.2 0.4-0.4 1-0.6 1.4-0.2 0.6-0.4 1-0.4 1.6-0.2 0.6-0.2 1-0.4 1.6 0 0.6-0.2 1-0.2 1.6v1.6l14.4 510.4c0.2 9.2-3.2 18-9.6 24.4-6 6.2-14.8 9.8-23.8 9.8zM242 916.8h538l-13.4-475.6c0-2.4 0-5.2 0.2-7.8 0.2-2.6 0.4-5.2 0.8-7.8 0.4-2.6 1-5.2 1.6-7.6 0.6-2.6 1.4-5 2.2-7.6 0.8-2.4 1.8-4.8 3-7.2 1.2-2.4 2.4-4.8 3.6-7l4.2-6.6c1.6-2.2 3.2-4.2 4.8-6.2 1.8-2 3.6-4 5.4-5.8 1.8-1.8 3.8-3.6 6-5.2 2-1.6 4.2-3.2 6.4-4.6 2.2-1.4 4.4-2.8 6.8-4 2.4-1.2 4.8-2.4 7.2-3.4 2.4-1 4.8-1.8 7.4-2.6 2.4-0.8 5-1.4 7.6-2 2.6-0.6 5.2-1 7.8-1.2l78.4-8.8 25-132.6-250.8-87.6c-1.8 4-4 8-6 11.8-2.6 4.8-5.6 9.6-8.6 14.2s-6.4 9-9.8 13.4c-3.4 4.4-7 8.6-10.8 12.6-3.8 4-7.8 8-11.8 11.6-4 3.6-8.4 7.2-12.8 10.6-4.4 3.4-9 6.6-13.6 9.6s-9.4 5.8-14.2 8.4c-4.8 2.6-9.8 5-15 7.2-5 2.2-10.2 4.2-15.4 6-5.2 1.8-10.6 3.4-15.8 4.6-5.4 1.4-10.8 2.4-16.2 3.4-5.4 0.8-11 1.6-16.4 2-11 1-22.2 1-33.2 0-5.4-0.4-11-1.2-16.4-2-5.4-0.8-10.8-2-16.2-3.4-5.4-1.4-10.8-3-16-4.6-5.2-1.8-10.4-3.8-15.4-6s-10-4.6-15-7.2c-4.8-2.6-9.6-5.4-14.2-8.4s-9.2-6.2-13.6-9.6c-4.4-3.4-8.6-7-12.8-10.6-4-3.8-8-7.6-11.8-11.6-3.8-4-7.4-8.2-10.8-12.6-3.4-4.4-6.6-8.8-9.8-13.4-3-4.6-6-9.4-8.6-14.2-2.2-3.8-4.2-7.8-6-12l-251 88L102 346l78.4 8.8c2.6 0.2 5.2 0.8 7.8 1.2 2.6 0.6 5.2 1.2 7.6 2 2.4 0.8 5 1.6 7.4 2.6 2.4 1 4.8 2.2 7 3.4 2.4 1.2 4.6 2.6 6.8 4s4.4 3 6.4 4.6c2 1.6 4 3.4 5.8 5.2 1.8 1.8 3.6 3.8 5.4 5.6 1.8 2 3.4 4 4.8 6.2 1.6 2.2 3 4.4 4.2 6.6 1.4 2.2 2.6 4.6 3.6 7 1.2 2.4 2.2 4.8 3 7.2 0.8 2.4 1.6 5 2.2 7.6 0.6 2.6 1.2 5 1.6 7.6 0.4 2.6 0.6 5.2 0.8 7.8 0.2 2.6 0.2 5.2 0.2 7.8L242 916.8z m154.2-806.4c0.8 1.2 1.6 2.6 2.4 3.8 2 3 4.2 6 6.6 9 2.2 2.8 4.8 5.6 7.2 8.4l7.8 7.8c2.8 2.4 5.6 4.8 8.4 7 3 2.2 6 4.4 9 6.4s6.2 3.8 9.6 5.6c3.2 1.8 6.6 3.4 10 4.8 3.4 1.4 6.8 2.8 10.4 4 3.4 1.2 7 2.2 10.6 3.2 3.6 0.8 7.2 1.6 10.8 2.2 3.6 0.6 7.4 1 11 1.4 7.4 0.6 14.8 0.6 22 0 3.6-0.4 7.4-0.8 11-1.4 3.6-0.6 7.2-1.4 10.8-2.2 3.6-0.8 7.2-2 10.6-3.2 3.4-1.2 7-2.6 10.4-4s6.8-3 10-4.8c3.2-1.8 6.4-3.6 9.6-5.6 3-2 6.2-4.2 9-6.4 3-2.2 5.8-4.6 8.4-7 2.8-2.4 5.4-5 7.8-7.8s5-5.6 7.2-8.4c2.2-2.8 4.4-6 6.4-9 0.8-1.2 1.6-2.6 2.4-3.8-22.4 5.6-62.8 13-114.8 13s-92.2-7.4-114.6-13z" p-id="7229" fill="currentColor"></path></svg>