<svg t="1699961670612" class="icon" viewBox="0 0 1024 1024" version="1.1" xmlns="http://www.w3.org/2000/svg" p-id="4162" width="64" height="64"><path d="M691.26144 972.8h-409.6c-42.3424 0-76.8-34.4576-76.8-76.8V419.5328l-119.9104 39.9872a25.6 25.6 0 0 1-32.3584-16.1792l-51.2-153.6a25.5488 25.5488 0 0 1 12.8512-30.976l307.2-153.6A25.6 25.6 0 0 1 358.46144 128.0512c0 70.5536 57.4464 128 128 128s128-57.4464 128-128a25.6 25.6 0 0 1 37.0176-22.8864l307.2 153.6a25.6 25.6 0 0 1 12.8512 30.976l-51.2 153.6a25.5488 25.5488 0 0 1-32.3584 16.1792L768.06144 419.5328V896c0 42.3424-34.4576 76.8-76.8 76.8z m-460.8-614.4a25.4976 25.4976 0 0 1 25.6 25.6v512a25.6 25.6 0 0 0 25.6 25.6h409.6a25.6 25.6 0 0 0 25.6-25.6v-512a25.5488 25.5488 0 0 1 33.6896-24.32l129.3312 43.1104 36.096-108.2368-254.6176-127.3344c-17.9712 79.9744-89.5488 139.9296-174.848 139.9296S329.58464 247.1936 311.66464 167.2192L57.04704 294.5536l36.096 108.2368 129.3312-43.1104a26.0096 26.0096 0 0 1 8.0896-1.3312z" p-id="4163" fill="#515151"></path></svg>