<svg t="1700006054123" class="icon" viewBox="0 0 1024 1024" version="1.1" xmlns="http://www.w3.org/2000/svg" p-id="12160" width="200" height="200"><path d="M894.4 823.1L659.2 183.3c-3.9-10.5-13.9-16.8-24.5-16.5-10.6-0.3-20.6 6-24.5 16.5l-192 522.4-98.6-268.2c-3.8-10.4-13.7-16.6-24.2-16.5-10.5-0.2-20.4 6.1-24.2 16.5L129.6 823.1c-4.8 13.1 1.9 27.7 15 32.5 2.9 1.1 5.8 1.6 8.7 1.6 10.3 0 20-6.3 23.8-16.6l45.6-124.2h145.6l23 62.7-16.2 44.1c-4.8 13.1 1.9 27.7 15 32.5 2.9 1.1 5.8 1.6 8.7 1.6 10.3 0 20-6.3 23.8-16.6l80-217.6c1.8 0.4 3.6 0.6 5.5 0.6h259l79.8 217c3.8 10.2 13.4 16.6 23.8 16.6 2.9 0 5.8-0.5 8.7-1.6 13.1-4.9 19.9-19.5 15-32.6zM241.3 665.8l54.2-147.4 54.2 147.4H241.3zM521 573l113.8-309.6L748.6 573H521z" fill="currentColor" p-id="12161"></path></svg>