<svg t="1725750540132" class="icon" viewBox="0 0 1024 1024" version="1.1" xmlns="http://www.w3.org/2000/svg" p-id="33046" width="32" height="32"><path d="M512 512m-506.88 0a506.88 506.88 0 1 0 1013.76 0 506.88 506.88 0 1 0-1013.76 0Z" fill="#FB6664" p-id="33047"></path><path d="M509.73696 801.64352a72.40192 72.40192 0 0 1-72.39168-72.40192V512a72.3968 72.3968 0 1 1 144.78848 0v217.2416a72.40192 72.40192 0 0 1-72.3968 72.40192z m0-434.4576A72.41216 72.41216 0 1 1 582.144 294.77888a72.40704 72.40704 0 0 1-72.3968 72.41216z" fill="#FFFFFF" p-id="33048"></path></svg>