<svg t="1718026980399" class="icon" viewBox="0 0 1170 1024" version="1.1" xmlns="http://www.w3.org/2000/svg" p-id="34500" width="32" height="32"><path d="M1142.90176 162.377143l-182.857143-146.285714A73.142857 73.142857 0 0 0 914.330331 0H256.044617a73.142857 73.142857 0 0 0-45.714286 16.091429l-182.857142 146.285714A73.142857 73.142857 0 0 0 3.70176 242.468571l73.142857 219.428572a73.142857 73.142857 0 0 0 106.057143 40.228571V950.857143a73.142857 73.142857 0 0 0 73.142857 73.142857h658.285714a73.142857 73.142857 0 0 0 73.142858-73.142857V502.125714a73.142857 73.142857 0 0 0 106.057142-40.228571l73.142858-219.428572a73.142857 73.142857 0 0 0-23.771429-80.091428zM722.330331 73.142857A149.577143 149.577143 0 0 1 585.187474 146.285714a149.577143 149.577143 0 0 1-137.142857-73.142857zM1024.044617 438.857143l-109.714286-73.142857v585.142857H256.044617V365.714286l-109.714286 73.142857-73.142857-219.428572 182.857143-146.285714h152.868572A179.565714 179.565714 0 0 0 585.187474 182.857143a179.565714 179.565714 0 0 0 176.274286-109.714286H914.330331l182.857143 146.285714z" fill="currentColor" p-id="34501"></path></svg>