<svg t="1718114524908" class="icon" viewBox="0 0 1024 1024" version="1.1" xmlns="http://www.w3.org/2000/svg" p-id="12206" width="32" height="32"><path d="M43.923286 263.43049h369.920564a219.342166 219.342166 0 0 0 429.910646 0h135.992143a43.868433 43.868433 0 0 0 0-87.736866h-135.992143a219.342166 219.342166 0 0 0-429.910646 0H43.923286a43.868433 43.868433 0 0 0 0 87.736866zM628.799173 87.956757a131.6053 131.6053 0 1 1-131.6053 131.6053 131.6053 131.6053 0 0 1 131.6053-131.6053zM979.746639 760.56951H609.826075a219.342166 219.342166 0 0 0-429.910645 0H43.923286a43.868433 43.868433 0 0 0 0 87.736866h135.992144a219.342166 219.342166 0 0 0 429.910645 0h369.920564a43.868433 43.868433 0 0 0 0-87.736866zM394.870753 936.043243a131.6053 131.6053 0 1 1 131.605299-131.6053 131.6053 131.6053 0 0 1-131.605299 131.6053z" p-id="12207" fill="currentColor"></path></svg>