<svg t="1718113938698" class="icon" viewBox="0 0 1024 1024" version="1.1" xmlns="http://www.w3.org/2000/svg" p-id="4232" width="32" height="32"><path d="M512 0l495.616 393.344c2.176 2.048 3.328 3.392 3.52 4.16a512.256 512.256 0 0 1-354.624 605.824l-12.608 3.52a509.76 509.76 0 0 1-118.272 16.96L512 1024A512 512 0 1 1 512 0zM131.072 289.984l-2.688 4.672c-7.424 13.056-14.144 26.432-20.16 40.192l3.392-7.616a438.4 438.4 0 0 0-4.992 11.136l1.6-3.52a438.4 438.4 0 0 0-4.672 10.88l3.072-7.36-5.568 13.632 2.56-6.272c-1.28 3.072-2.56 6.208-3.712 9.344l1.152-3.072a437.76 437.76 0 0 0-4.48 11.968l3.328-8.96a340.032 340.032 0 0 0-4.48 12.288l1.152-3.328-3.776 11.072 2.688-7.744-4.288 12.8 1.664-5.12a437.44 437.44 0 0 0-3.392 10.88l1.792-5.76a437.44 437.44 0 0 0-3.2 10.752l1.408-4.928a437.568 437.568 0 0 0-3.328 11.776l1.92-6.848c-1.28 4.16-2.368 8.32-3.392 12.48l1.408-5.632a437.696 437.696 0 0 0-3.264 13.056l1.856-7.424-2.816 11.52 0.96-4.096a438.08 438.08 0 0 0-2.496 11.264l1.536-7.04a438.4 438.4 0 0 0-2.368 11.264l0.832-4.224a402.56 402.56 0 0 0-2.432 12.8l1.6-8.576c-2.24 11.52-4.032 23.04-5.376 34.56l0.64-5.632-1.088 9.536 0.448-3.84a328.256 328.256 0 0 0-1.28 12.16l0.832-8.32a338.496 338.496 0 0 0-1.28 13.76l0.448-5.44-0.896 13.504-0.64 12.16a440.96 440.96 0 0 0 881.6 26.048L952.96 512l-0.192-7.68-7.232 3.712a378.048 378.048 0 0 1-149.12 36.672l-14.4 0.32a379.136 379.136 0 0 1-371.328-456.256l1.472-6.336-11.392 2.816c-13.44 3.52-26.688 7.68-39.744 12.352l3.904-1.408a328 328 0 0 0-11.968 4.48l8.064-3.072c-3.904 1.472-7.744 2.88-11.584 4.48l3.52-1.472-10.56 4.288 7.04-2.88c-4.736 1.92-9.408 3.84-14.144 5.952l7.04-3.072a438.4 438.4 0 0 0-11.456 4.992l4.416-1.92c-3.072 1.28-6.08 2.688-9.152 4.096l4.736-2.176c-3.84 1.728-7.68 3.584-11.52 5.44l6.784-3.264-11.392 5.504 4.608-2.24-11.328 5.632 6.72-3.392a439.424 439.424 0 0 0-8.896 4.544l2.176-1.152a439.872 439.872 0 0 0-10.432 5.76l8.32-4.608a572.032 572.032 0 0 0-12.8 7.04l4.48-2.56c-3.456 1.92-6.784 3.84-10.112 5.888l5.568-3.328a507.776 507.776 0 0 0-10.88 6.464l5.312-3.2a440.96 440.96 0 0 0-10.112 6.208l4.8-3.008a441.344 441.344 0 0 0-11.072 7.04l6.272-4.032a441.472 441.472 0 0 0-10.688 6.976l4.416-2.944-8.768 5.888 4.352-2.944c-3.84 2.56-7.552 5.184-11.328 7.872l6.976-4.928a442.24 442.24 0 0 0-9.728 6.912l2.752-1.984-8.64 6.336 5.888-4.352a442.56 442.56 0 0 0-10.752 8.064l4.864-3.712c-7.872 5.952-15.552 12.16-23.04 18.56l3.2-2.688-9.536 8.32 6.4-5.632a443.52 443.52 0 0 0-9.28 8.32l2.816-2.688c-7.04 6.4-14.016 13.056-20.672 19.904l5.12-5.184c-2.88 2.88-5.76 5.824-8.576 8.832l3.456-3.648a443.584 443.584 0 0 0-8.192 8.576l4.736-4.928c-15.744 16.384-30.144 33.984-43.136 52.608l-6.144 9.024a441.216 441.216 0 0 0-6.848 10.816l2.816-4.48a405.12 405.12 0 0 0-8.832 14.464z m342.912-124.16a308.032 308.032 0 0 0 465.984 264.576l-451.392-358.4a307.072 307.072 0 0 0-14.592 93.888z" fill="currentColor" p-id="4233"></path></svg>