<svg t="1718282608784" class="icon" viewBox="0 0 1024 1024" version="1.1" xmlns="http://www.w3.org/2000/svg" p-id="20765" width="32" height="32"><path d="M320 256c35.35 0 64 28.65 64 64s-28.65 64-64 64-64-28.65-64-64 28.65-64 64-64z m512-96H192c-35.35 0-64 28.65-64 64v410.66l106.98-110.54c52.83-54.6 140.99-57.06 196.93-5.49l4.03 3.87 3.87 4.02 32.92 35.73 110.41-129.32c49.25-57.69 137.09-65.49 196.2-17.41 9.28 7.55 17.5 16.23 24.47 25.83l4.99 7.37L896 587.07V224c0-35.35-28.65-64-64-64zM660.52 490.37l-2.94 3.11-146.21 171.26c-17.84 20.9-49.7 22.64-69.82 4.73l-3.42-3.36-70.36-76.31-2.4-2.4c-15.96-14.71-40.54-14.97-56.8-1.26l-3.14 2.93L128 772.42V800c0 35.35 28.65 64 64 64h640c35.35 0 64-28.65 64-64v-32.48L726.25 498.29a41.7 41.7 0 0 0-8.97-10.1c-16.86-13.72-41.41-12.49-56.76 2.18zM832 64c86.04 0 156.22 67.91 159.85 153.06L992 224v576c0 86.04-67.91 156.22-153.06 159.85L832 960H192c-86.04 0-156.22-67.91-159.85-153.06L32 800V224c0-86.04 67.91-156.22 153.06-159.85L192 64h640z" fill="currentColor" p-id="20766"></path></svg>