<svg t="1718114129383" class="icon" viewBox="0 0 1024 1024" version="1.1" xmlns="http://www.w3.org/2000/svg" p-id="7018" width="32" height="32"><path d="M822.96713 452.813c-4.787-14.413-19.2-24.013-35.2-24.013-14.387 0-30.387 9.6-35.2 24.013l-198.4 441.6c-9.6 19.2 0 44.8 19.2 54.4s44.8 0 54.4-19.2L677.38013 825.6h228.787l49.613 108.8c4.787 14.413 19.2 24.013 35.2 24.013 4.787 0 9.6 0 14.387-4.813 14.413-19.2 24.013-39.987 14.413-59.187l-196.813-441.6z m-35.2 110.387l80 172.8h-153.6l73.6-172.8zM421.38013 100.813C416.56713 86.4 400.56713 76.8 381.36713 76.8c-14.387 0-30.387 9.6-39.987 24.013L3.76713 889.6c-9.6 19.2 0 44.8 19.2 54.4s44.8 0 54.4-19.2l104.013-238.387h401.587l4.813-9.6L627.76713 592v-9.6L421.38013 100.813z m-35.2 119.987l163.2 387.2h-326.4l163.2-387.2z" fill="currentColor" p-id="7019"></path></svg>